<?xml version="1.0" standalone="no"?>
<!DOCTYPE svg PUBLIC "-//W3C//DTD SVG 20010904//EN"
 "http://www.w3.org/TR/2001/REC-SVG-20010904/DTD/svg10.dtd">
<svg version="1.0" xmlns="http://www.w3.org/2000/svg"
 width="744.000000pt" height="744.000000pt" viewBox="0 0 744.000000 744.000000"
 preserveAspectRatio="xMidYMid meet">
<metadata>
Created by potrace 1.11, written by Peter Selinger 2001-2013
</metadata>
<g transform="translate(0.000000,744.000000) scale(0.100000,-0.100000)"
fill="#000000" stroke="none">
<path d="M0 3720 l0 -3720 3720 0 3720 0 0 3720 0 3720 -3720 0 -3720 0 0
-3720z m3180 2930 l0 -130 -130 0 -130 0 0 130 0 130 130 0 130 0 0 -130z
m1340 0 l0 -130 -132 0 -133 0 2 127 c1 71 3 129 3 131 0 1 59 2 130 2 l130 0
0 -130z m-2140 -270 l0 -130 -132 0 -133 0 3 130 3 130 130 0 129 0 0 -130z
m1335 0 l0 -130 -132 0 -133 0 0 -140 0 -140 135 0 135 0 0 135 0 135 135 0
135 0 0 135 0 135 130 0 130 0 0 -135 0 -135 135 0 135 0 0 135 0 135 130 0
129 0 3 -132 3 -133 132 -3 132 -3 3 -132 3 -132 133 -3 132 -3 0 -264 0 -265
135 0 135 0 0 -130 0 -130 -135 0 -135 0 0 -2145 0 -2145 -1470 0 -1470 0 0
405 0 405 -130 0 -129 0 -3 133 -3 132 -267 3 -268 2 0 130 0 130 -132 0 -133
0 -2 935 -2 935 135 0 134 0 0 135 0 135 270 0 270 0 0 130 0 130 130 0 130 0
0 140 0 140 -132 0 -133 0 3 130 3 130 130 0 129 0 0 135 0 135 -130 0 -130 0
0 135 0 135 -135 0 -135 0 0 130 0 130 265 0 265 0 0 135 0 135 403 2 402 3 3
133 3 132 262 0 262 0 0 -130z m1875 -270 l0 -130 -129 0 -130 0 -3 130 -3
130 133 0 132 0 0 -130z m-3480 -800 l0 -130 -130 0 -130 0 0 130 0 130 130 0
130 0 0 -130z"/>
<path d="M3990 5159 c0 -7 42 -9 125 -7 l125 3 2 -388 3 -387 -122 0 -123 0
-3 268 -2 267 -3 -272 -2 -273 -140 0 -141 0 3 -132 3 -133 135 -2 135 -1 0
-134 0 -133 -138 -3 -137 -3 2 -802 3 -802 133 -3 132 -3 0 -124 0 -124 -132
-3 -133 -3 0 -135 0 -135 138 -3 137 -3 0 263 c0 145 0 444 0 666 l0 402 127
0 128 0 -1 -408 c0 -224 2 -523 4 -665 l5 -257 403 0 404 0 0 1740 0 1740
-135 0 -134 0 -3 -132 -3 -133 -132 -3 -133 -3 0 136 0 135 -265 0 c-180 0
-265 -3 -265 -11z m255 -1194 l0 -125 -122 0 -123 0 0 125 0 125 123 0 122 0
0 -125z m0 -529 l0 -125 -128 -3 -127 -3 0 128 0 127 128 0 127 0 0 -124z"/>
<path d="M3180 4105 l0 -805 140 0 140 0 0 603 c0 331 -3 693 -7 805 l-6 202
-134 0 -133 0 0 -805z"/>
<path d="M2648 4240 l-3 -135 -400 0 -400 0 -3 -132 -3 -132 -132 -3 -132 -3
-3 -672 -2 -673 135 0 135 0 0 -135 0 -135 270 0 270 0 0 343 c0 188 3 608 7
933 l6 592 264 7 263 7 0 134 0 133 -135 3 -135 3 -2 -135z"/>
<path d="M2644 3965 c0 -66 1 -92 3 -57 2 34 2 88 0 120 -2 31 -3 3 -3 -63z"/>
<path d="M2640 3642 c0 -110 3 -293 6 -408 l7 -209 133 3 134 3 0 405 0 404
-140 0 -140 0 0 -198z"/>
<path d="M2650 2230 l0 -540 135 0 135 0 0 540 0 540 -135 0 -135 0 0 -540z"/>
<path d="M3180 2365 l0 -405 140 0 140 0 -2 403 -3 402 -137 3 -138 3 0 -406z"/>
<path d="M4058 1703 c34 -2 90 -2 125 0 34 2 6 3 -63 3 -69 0 -97 -1 -62 -3z"/>
<path d="M3848 1422 l-1198 -2 0 -130 0 -130 1203 0 1202 0 -2 131 c-1 72 -3
132 -5 133 -2 0 -542 0 -1200 -2z"/>
</g>
</svg>
