<?xml version="1.0" encoding="UTF-8" standalone="no"?>
<svg width="36px" height="36px" viewBox="0 0 36 36" version="1.1" xmlns="http://www.w3.org/2000/svg" xmlns:xlink="http://www.w3.org/1999/xlink">
    <!-- Generator: Sketch 46 (44423) - http://www.bohemiancoding.com/sketch -->
    <title>Group 4</title>
    <desc>Created with Sketch.</desc>
    <defs></defs>
    <g id="Page-1" stroke="none" stroke-width="1" fill="none" fill-rule="evenodd">
        <g id="HOME" transform="translate(-368.000000, -228.000000)" fill="#00FF00">
            <g id="Group-4" transform="translate(368.000000, 228.000000)">
                <polygon id="Fill-1" points="3.27272727 9.81818182 6.54545455 9.81818182 6.54545455 6.54545455 3.27272727 6.54545455"></polygon>
                <polygon id="Fill-2" points="29.4545455 9.81818182 32.7272727 9.81818182 32.7272727 6.54545455 29.4545455 6.54545455"></polygon>
                <polygon id="Fill-3" points="32.7275345 9.81844364 32.7275345 13.0905164 32.7275345 16.3638982 32.7275345 19.6359709 32.7275345 22.9093527 32.7275345 26.1814255 36.0002618 26.1814255 36.0002618 9.81844364"></polygon>
                <polygon id="Fill-4" points="0 9.81844364 0 13.0905164 0 16.3638982 0 19.6359709 0 22.9093527 0 26.1814255 3.27272727 26.1814255 3.27272727 22.9093527 3.27272727 19.6359709 3.27272727 16.3638982 3.27272727 13.0905164 3.27272727 9.81844364"></polygon>
                <polygon id="Fill-5" points="6.54545455 6.54545455 9.81818182 6.54545455 9.81818182 3.27272727 6.54545455 3.27272727"></polygon>
                <polygon id="Fill-6" points="26.1818182 6.54545455 29.4545455 6.54545455 29.4545455 3.27272727 26.1818182 3.27272727"></polygon>
                <polygon id="Fill-7" points="9.81837818 6.54545454e-05 9.81837818 3.27279273 13.0904509 3.27279273 16.3638327 3.27279273 19.6359055 3.27279273 22.9092873 3.27279273 26.18136 3.27279273 26.18136 6.54545454e-05"></polygon>
                <polygon id="Fill-8" points="16.3636364 13.0909091 16.3636364 16.3636364 19.6363636 16.3636364 19.6363636 19.6363636 22.9090909 19.6363636 22.9090909 16.3636364 22.9090909 13.0909091 19.6363636 13.0909091"></polygon>
                <polygon id="Fill-9" points="9.81818182 26.1818182 13.0909091 26.1818182 13.0909091 22.9090909 9.81818182 22.9090909"></polygon>
                <polygon id="Fill-10" points="16.3636364 16.3636364 13.0909091 16.3636364 13.0909091 19.6363636 13.0909091 22.9090909 16.3636364 22.9090909 19.6363636 22.9090909 19.6363636 19.6363636 16.3636364 19.6363636"></polygon>
                <polygon id="Fill-11" points="22.9090909 13.0909091 26.1818182 13.0909091 26.1818182 9.81818182 22.9090909 9.81818182"></polygon>
                <polygon id="Fill-12" points="29.4545455 29.4545455 32.7272727 29.4545455 32.7272727 26.1818182 29.4545455 26.1818182"></polygon>
                <polygon id="Fill-13" points="3.27272727 29.4545455 6.54545455 29.4545455 6.54545455 26.1818182 3.27272727 26.1818182"></polygon>
                <polygon id="Fill-14" points="26.1818182 32.7272727 29.4545455 32.7272727 29.4545455 29.4545455 26.1818182 29.4545455"></polygon>
                <polygon id="Fill-15" points="6.54545455 32.7272727 9.81818182 32.7272727 9.81818182 29.4545455 6.54545455 29.4545455"></polygon>
                <polygon id="Fill-16" points="22.9091564 32.7270109 19.6364291 32.7270109 16.3637018 32.7270109 13.0909745 32.7270109 9.81824727 32.7270109 9.81824727 35.9997382 13.0909745 35.9997382 16.3637018 35.9997382 19.6364291 35.9997382 22.9091564 35.9997382 26.1812291 35.9997382 26.1812291 32.7270109"></polygon>
            </g>
        </g>
    </g>
</svg>