<?xml version="1.0" encoding="UTF-8" standalone="no"?>
<svg width="31px" height="17px" viewBox="0 0 31 17" version="1.1" xmlns="http://www.w3.org/2000/svg" xmlns:xlink="http://www.w3.org/1999/xlink">
    <!-- Generator: Sketch 46 (44423) - http://www.bohemiancoding.com/sketch -->
    <title>arrowup</title>
    <desc>Created with Sketch.</desc>
    <defs></defs>
    <g id="Page-1" stroke="none" stroke-width="1" fill="none" fill-rule="evenodd">
        <g id="HOME" transform="translate(-705.000000, -222.000000)" fill="#00FF00">
            <polygon id="arrowup" points="718.472 221.9996 718.472 225.3686 715.103 225.3686 715.103 228.7366 711.735 228.7366 711.735 232.1036 708.368 232.1036 708.368 235.4716 705 235.4716 705 238.8396 708.368 238.8396 711.735 238.8396 715.103 238.8396 718.472 238.8396 721.84 238.8396 725.207 238.8396 728.575 238.8396 731.943 238.8396 735.311 238.8396 735.311 235.4716 731.943 235.4716 731.943 232.1036 728.575 232.1036 728.575 228.7366 725.207 228.7366 725.207 225.3686 721.84 225.3686 721.84 221.9996"></polygon>
        </g>
    </g>
</svg>