<?xml version="1.0" encoding="UTF-8" standalone="no"?>
<svg width="27px" height="27px" viewBox="0 0 27 27" version="1.1" xmlns="http://www.w3.org/2000/svg" xmlns:xlink="http://www.w3.org/1999/xlink">
    <!-- Generator: Sketch 46 (44423) - http://www.bohemiancoding.com/sketch -->
    <title>fb icon</title>
    <desc>Created with Sketch.</desc>
    <defs></defs>
    <g id="Page-1" stroke="none" stroke-width="1" fill="none" fill-rule="evenodd">
        <g id="HOME" transform="translate(-690.000000, -695.000000)">
            <g id="fb-icon" transform="translate(690.000000, 695.000000)">
                <polygon id="Fill-1" fill="#0055AA" points="1.153 2.3048 2.305 2.3048 2.305 1.1528 1.153 1.1528"></polygon>
                <polygon id="Fill-2" fill="#003D79" points="2.305 2.3048 3.456 2.3048 3.456 1.1528 2.305 1.1528"></polygon>
                <polygon id="Fill-3" fill="#003D79" points="3.456 2.3048 4.608 2.3048 4.608 1.1528 3.456 1.1528"></polygon>
                <polygon id="Fill-4" fill="#003D79" points="4.609 2.3048 5.761 2.3048 5.761 1.1528 4.609 1.1528"></polygon>
                <polygon id="Fill-5" fill="#003D79" points="5.761 2.3048 6.912 2.3048 6.912 1.1528 5.761 1.1528"></polygon>
                <polygon id="Fill-6" fill="#003D79" points="6.912 2.3048 8.064 2.3048 8.064 1.1528 6.912 1.1528"></polygon>
                <polygon id="Fill-7" fill="#003D79" points="8.065 2.3048 9.217 2.3048 9.217 1.1528 8.065 1.1528"></polygon>
                <polygon id="Fill-8" fill="#003D79" points="9.217 2.3048 10.369 2.3048 10.369 1.1528 9.217 1.1528"></polygon>
                <polygon id="Fill-9" fill="#003D79" points="10.369 2.3048 11.52 2.3048 11.52 1.1528 10.369 1.1528"></polygon>
                <polygon id="Fill-10" fill="#003D79" points="11.521 2.3048 12.673 2.3048 12.673 1.1528 11.521 1.1528"></polygon>
                <polygon id="Fill-11" fill="#003D79" points="12.673 2.3048 13.825 2.3048 13.825 1.1528 12.673 1.1528"></polygon>
                <polygon id="Fill-12" fill="#003D79" points="13.825 2.3048 14.977 2.3048 14.977 1.1528 13.825 1.1528"></polygon>
                <polygon id="Fill-13" fill="#003D79" points="14.978 2.3048 16.129 2.3048 16.129 1.1528 14.978 1.1528"></polygon>
                <polygon id="Fill-14" fill="#003D79" points="16.129 2.3048 17.281 2.3048 17.281 1.1528 16.129 1.1528"></polygon>
                <polygon id="Fill-15" fill="#003D79" points="17.282 2.3048 18.434 2.3048 18.434 1.1528 17.282 1.1528"></polygon>
                <polygon id="Fill-16" fill="#003D79" points="18.434 2.3048 19.585 2.3048 19.585 1.1528 18.434 1.1528"></polygon>
                <polygon id="Fill-17" fill="#003D79" points="19.585 2.3048 20.737 2.3048 20.737 1.1528 19.585 1.1528"></polygon>
                <polygon id="Fill-18" fill="#003D79" points="20.738 2.3048 21.89 2.3048 21.89 1.1528 20.738 1.1528"></polygon>
                <polygon id="Fill-19" fill="#003D79" points="21.89 2.3048 23.042 2.3048 23.042 1.1528 21.89 1.1528"></polygon>
                <polygon id="Fill-20" fill="#003D79" points="23.042 2.3048 24.193 2.3048 24.193 1.1528 23.042 1.1528"></polygon>
                <polygon id="Fill-21" fill="#0055AA" points="2.305 1.1518 3.456 1.1518 3.456 -0.0002 2.305 -0.0002"></polygon>
                <polygon id="Fill-22" fill="#0055AA" points="3.456 1.1518 4.608 1.1518 4.608 -0.0002 3.456 -0.0002"></polygon>
                <polygon id="Fill-23" fill="#0055AA" points="4.608 1.1518 5.761 1.1518 5.761 -0.0002 4.608 -0.0002"></polygon>
                <polygon id="Fill-24" fill="#0055AA" points="5.761 1.1518 6.912 1.1518 6.912 -0.0002 5.761 -0.0002"></polygon>
                <polygon id="Fill-25" fill="#0055AA" points="6.912 1.1518 8.064 1.1518 8.064 -0.0002 6.912 -0.0002"></polygon>
                <polygon id="Fill-26" fill="#0055AA" points="8.064 1.1518 9.217 1.1518 9.217 -0.0002 8.064 -0.0002"></polygon>
                <polygon id="Fill-27" fill="#0055AA" points="9.217 1.1518 10.369 1.1518 10.369 -0.0002 9.217 -0.0002"></polygon>
                <polygon id="Fill-28" fill="#0055AA" points="10.369 1.1518 11.521 1.1518 11.521 -0.0002 10.369 -0.0002"></polygon>
                <polygon id="Fill-29" fill="#0055AA" points="11.521 1.1518 12.673 1.1518 12.673 -0.0002 11.521 -0.0002"></polygon>
                <polygon id="Fill-30" fill="#0055AA" points="12.673 1.1518 13.825 1.1518 13.825 -0.0002 12.673 -0.0002"></polygon>
                <polygon id="Fill-31" fill="#0055AA" points="13.825 1.1518 14.978 1.1518 14.978 -0.0002 13.825 -0.0002"></polygon>
                <polygon id="Fill-32" fill="#0055AA" points="14.978 1.1518 16.129 1.1518 16.129 -0.0002 14.978 -0.0002"></polygon>
                <polygon id="Fill-33" fill="#0055AA" points="16.129 1.1518 17.281 1.1518 17.281 -0.0002 16.129 -0.0002"></polygon>
                <polygon id="Fill-34" fill="#0055AA" points="17.281 1.1518 18.434 1.1518 18.434 -0.0002 17.281 -0.0002"></polygon>
                <polygon id="Fill-35" fill="#0055AA" points="18.434 1.1518 19.585 1.1518 19.585 -0.0002 18.434 -0.0002"></polygon>
                <polygon id="Fill-36" fill="#0055AA" points="19.585 1.1518 20.737 1.1518 20.737 -0.0002 19.585 -0.0002"></polygon>
                <polygon id="Fill-37" fill="#0055AA" points="20.737 1.1518 21.89 1.1518 21.89 -0.0002 20.737 -0.0002"></polygon>
                <polygon id="Fill-38" fill="#0055AA" points="21.89 1.1518 23.042 1.1518 23.042 -0.0002 21.89 -0.0002"></polygon>
                <polygon id="Fill-39" fill="#0055AA" points="23.042 1.1518 24.193 1.1518 24.193 -0.0002 23.042 -0.0002"></polygon>
                <polygon id="Fill-40" fill="#0055AA" points="24.194 2.3048 25.346 2.3048 25.346 1.1528 24.194 1.1528"></polygon>
                <polygon id="Fill-41" fill="#003D79" points="1.153 3.4558 2.305 3.4558 2.305 2.3048 1.153 2.3048"></polygon>
                <polygon id="Fill-42" fill="#0055AA" points="0 3.4558 1.152 3.4558 1.152 2.3048 0 2.3048"></polygon>
                <polygon id="Fill-43" fill="#003D79" points="2.305 3.4558 3.456 3.4558 3.456 2.3048 2.305 2.3048"></polygon>
                <polygon id="Fill-44" fill="#003D79" points="3.456 3.4558 4.608 3.4558 4.608 2.3048 3.456 2.3048"></polygon>
                <polygon id="Fill-45" fill="#003D79" points="4.609 3.4558 5.761 3.4558 5.761 2.3048 4.609 2.3048"></polygon>
                <polygon id="Fill-46" fill="#003D79" points="5.761 3.4558 6.912 3.4558 6.912 2.3048 5.761 2.3048"></polygon>
                <polygon id="Fill-47" fill="#003D79" points="6.912 3.4558 8.064 3.4558 8.064 2.3048 6.912 2.3048"></polygon>
                <polygon id="Fill-48" fill="#003D79" points="8.065 3.4558 9.217 3.4558 9.217 2.3048 8.065 2.3048"></polygon>
                <polygon id="Fill-49" fill="#003D79" points="9.217 3.4558 10.369 3.4558 10.369 2.3048 9.217 2.3048"></polygon>
                <polygon id="Fill-50" fill="#003D79" points="10.369 3.4558 11.52 3.4558 11.52 2.3048 10.369 2.3048"></polygon>
                <polygon id="Fill-51" fill="#003D79" points="11.521 3.4558 12.673 3.4558 12.673 2.3048 11.521 2.3048"></polygon>
                <polygon id="Fill-52" fill="#003D79" points="12.673 3.4558 13.825 3.4558 13.825 2.3048 12.673 2.3048"></polygon>
                <polygon id="Fill-53" fill="#003D79" points="13.825 3.4558 14.977 3.4558 14.977 2.3048 13.825 2.3048"></polygon>
                <polygon id="Fill-54" fill="#FFFFFF" points="14.978 3.4558 16.129 3.4558 16.129 2.3048 14.978 2.3048"></polygon>
                <polygon id="Fill-55" fill="#FFFFFF" points="16.129 3.4558 17.281 3.4558 17.281 2.3048 16.129 2.3048"></polygon>
                <polygon id="Fill-56" fill="#FFFFFF" points="17.282 3.4558 18.434 3.4558 18.434 2.3048 17.282 2.3048"></polygon>
                <polygon id="Fill-57" fill="#FFFFFF" points="18.434 3.4558 19.585 3.4558 19.585 2.3048 18.434 2.3048"></polygon>
                <polygon id="Fill-58" fill="#FFFFFF" points="19.585 3.4558 20.737 3.4558 20.737 2.3048 19.585 2.3048"></polygon>
                <polygon id="Fill-59" fill="#FFFFFF" points="20.738 3.4558 21.89 3.4558 21.89 2.3048 20.738 2.3048"></polygon>
                <polygon id="Fill-60" fill="#FFFFFF" points="21.89 3.4558 23.042 3.4558 23.042 2.3048 21.89 2.3048"></polygon>
                <polygon id="Fill-61" fill="#003D79" points="23.042 3.4558 24.193 3.4558 24.193 2.3048 23.042 2.3048"></polygon>
                <polygon id="Fill-62" fill="#003D79" points="24.194 3.4558 25.346 3.4558 25.346 2.3048 24.194 2.3048"></polygon>
                <polygon id="Fill-63" fill="#0055AA" points="25.346 3.4558 26.498 3.4558 26.498 2.3048 25.346 2.3048"></polygon>
                <polygon id="Fill-64" fill="#003D79" points="1.153 4.6078 2.305 4.6078 2.305 3.4558 1.153 3.4558"></polygon>
                <polygon id="Fill-65" fill="#0055AA" points="0 4.6078 1.152 4.6078 1.152 3.4558 0 3.4558"></polygon>
                <polygon id="Fill-66" fill="#003D79" points="2.305 4.6078 3.456 4.6078 3.456 3.4558 2.305 3.4558"></polygon>
                <polygon id="Fill-67" fill="#003D79" points="3.456 4.6078 4.608 4.6078 4.608 3.4558 3.456 3.4558"></polygon>
                <polygon id="Fill-68" fill="#003D79" points="4.609 4.6078 5.761 4.6078 5.761 3.4558 4.609 3.4558"></polygon>
                <polygon id="Fill-69" fill="#003D79" points="5.761 4.6078 6.912 4.6078 6.912 3.4558 5.761 3.4558"></polygon>
                <polygon id="Fill-70" fill="#003D79" points="6.912 4.6078 8.064 4.6078 8.064 3.4558 6.912 3.4558"></polygon>
                <polygon id="Fill-71" fill="#003D79" points="8.065 4.6078 9.217 4.6078 9.217 3.4558 8.065 3.4558"></polygon>
                <polygon id="Fill-72" fill="#003D79" points="9.217 4.6078 10.369 4.6078 10.369 3.4558 9.217 3.4558"></polygon>
                <polygon id="Fill-73" fill="#003D79" points="10.369 4.6078 11.52 4.6078 11.52 3.4558 10.369 3.4558"></polygon>
                <polygon id="Fill-74" fill="#003D79" points="11.521 4.6078 12.673 4.6078 12.673 3.4558 11.521 3.4558"></polygon>
                <polygon id="Fill-75" fill="#003D79" points="12.673 4.6078 13.825 4.6078 13.825 3.4558 12.673 3.4558"></polygon>
                <polygon id="Fill-76" fill="#FFFFFF" points="13.825 4.6078 14.977 4.6078 14.977 3.4558 13.825 3.4558"></polygon>
                <polygon id="Fill-77" fill="#FFFFFF" points="14.978 4.6078 16.129 4.6078 16.129 3.4558 14.978 3.4558"></polygon>
                <polygon id="Fill-78" fill="#FFFFFF" points="16.129 4.6078 17.281 4.6078 17.281 3.4558 16.129 3.4558"></polygon>
                <polygon id="Fill-79" fill="#FFFFFF" points="17.282 4.6078 18.434 4.6078 18.434 3.4558 17.282 3.4558"></polygon>
                <polygon id="Fill-80" fill="#FFFFFF" points="18.434 4.6078 19.585 4.6078 19.585 3.4558 18.434 3.4558"></polygon>
                <polygon id="Fill-81" fill="#FFFFFF" points="19.585 4.6078 20.737 4.6078 20.737 3.4558 19.585 3.4558"></polygon>
                <polygon id="Fill-82" fill="#FFFFFF" points="20.738 4.6078 21.89 4.6078 21.89 3.4558 20.738 3.4558"></polygon>
                <polygon id="Fill-83" fill="#FFFFFF" points="21.89 4.6078 23.042 4.6078 23.042 3.4558 21.89 3.4558"></polygon>
                <polygon id="Fill-84" fill="#003D79" points="23.042 4.6078 24.193 4.6078 24.193 3.4558 23.042 3.4558"></polygon>
                <polygon id="Fill-85" fill="#003D79" points="24.194 4.6078 25.346 4.6078 25.346 3.4558 24.194 3.4558"></polygon>
                <polygon id="Fill-86" fill="#0055AA" points="25.346 4.6078 26.498 4.6078 26.498 3.4558 25.346 3.4558"></polygon>
                <polygon id="Fill-87" fill="#00478E" points="1.153 5.7608 2.305 5.7608 2.305 4.6088 1.153 4.6088"></polygon>
                <polygon id="Fill-88" fill="#0055AA" points="0 5.7608 1.152 5.7608 1.152 4.6078 0 4.6078"></polygon>
                <polygon id="Fill-89" fill="#00478E" points="2.305 5.7608 3.456 5.7608 3.456 4.6088 2.305 4.6088"></polygon>
                <polygon id="Fill-90" fill="#00478E" points="3.456 5.7608 4.608 5.7608 4.608 4.6088 3.456 4.6088"></polygon>
                <polygon id="Fill-91" fill="#00478E" points="4.609 5.7608 5.761 5.7608 5.761 4.6088 4.609 4.6088"></polygon>
                <polygon id="Fill-92" fill="#00478E" points="5.761 5.7608 6.912 5.7608 6.912 4.6088 5.761 4.6088"></polygon>
                <polygon id="Fill-93" fill="#00478E" points="6.912 5.7608 8.064 5.7608 8.064 4.6088 6.912 4.6088"></polygon>
                <polygon id="Fill-94" fill="#00478E" points="8.065 5.7608 9.217 5.7608 9.217 4.6088 8.065 4.6088"></polygon>
                <polygon id="Fill-95" fill="#00478E" points="9.217 5.7608 10.369 5.7608 10.369 4.6088 9.217 4.6088"></polygon>
                <polygon id="Fill-96" fill="#00478E" points="10.369 5.7608 11.52 5.7608 11.52 4.6088 10.369 4.6088"></polygon>
                <polygon id="Fill-97" fill="#00478E" points="11.521 5.7608 12.673 5.7608 12.673 4.6088 11.521 4.6088"></polygon>
                <polygon id="Fill-98" fill="#FFFFFF" points="12.673 5.7608 13.825 5.7608 13.825 4.6088 12.673 4.6088"></polygon>
                <polygon id="Fill-99" fill="#FFFFFF" points="13.825 5.7608 14.977 5.7608 14.977 4.6088 13.825 4.6088"></polygon>
                <polygon id="Fill-100" fill="#FFFFFF" points="14.978 5.7608 16.129 5.7608 16.129 4.6088 14.978 4.6088"></polygon>
                <polygon id="Fill-101" fill="#FFFFFF" points="16.129 5.7608 17.281 5.7608 17.281 4.6088 16.129 4.6088"></polygon>
                <polygon id="Fill-102" fill="#FFFFFF" points="17.282 5.7608 18.434 5.7608 18.434 4.6088 17.282 4.6088"></polygon>
                <polygon id="Fill-103" fill="#FFFFFF" points="18.434 5.7608 19.585 5.7608 19.585 4.6088 18.434 4.6088"></polygon>
                <polygon id="Fill-104" fill="#FFFFFF" points="19.585 5.7608 20.737 5.7608 20.737 4.6088 19.585 4.6088"></polygon>
                <polygon id="Fill-105" fill="#FFFFFF" points="20.738 5.7608 21.89 5.7608 21.89 4.6088 20.738 4.6088"></polygon>
                <polygon id="Fill-106" fill="#FFFFFF" points="21.89 5.7608 23.042 5.7608 23.042 4.6088 21.89 4.6088"></polygon>
                <polygon id="Fill-107" fill="#00478E" points="23.042 5.7608 24.193 5.7608 24.193 4.6088 23.042 4.6088"></polygon>
                <polygon id="Fill-108" fill="#00478E" points="24.194 5.7608 25.346 5.7608 25.346 4.6088 24.194 4.6088"></polygon>
                <polygon id="Fill-109" fill="#0055AA" points="25.346 5.7608 26.498 5.7608 26.498 4.6078 25.346 4.6078"></polygon>
                <polygon id="Fill-110" fill="#00478E" points="1.153 6.9128 2.305 6.9128 2.305 5.7608 1.153 5.7608"></polygon>
                <polygon id="Fill-111" fill="#0055AA" points="0 6.9128 1.152 6.9128 1.152 5.7608 0 5.7608"></polygon>
                <polygon id="Fill-112" fill="#00478E" points="2.305 6.9128 3.456 6.9128 3.456 5.7608 2.305 5.7608"></polygon>
                <polygon id="Fill-113" fill="#00478E" points="3.456 6.9128 4.608 6.9128 4.608 5.7608 3.456 5.7608"></polygon>
                <polygon id="Fill-114" fill="#00478E" points="4.609 6.9128 5.761 6.9128 5.761 5.7608 4.609 5.7608"></polygon>
                <polygon id="Fill-115" fill="#00478E" points="5.761 6.9128 6.912 6.9128 6.912 5.7608 5.761 5.7608"></polygon>
                <polygon id="Fill-116" fill="#00478E" points="6.912 6.9128 8.064 6.9128 8.064 5.7608 6.912 5.7608"></polygon>
                <polygon id="Fill-117" fill="#00478E" points="8.065 6.9128 9.217 6.9128 9.217 5.7608 8.065 5.7608"></polygon>
                <polygon id="Fill-118" fill="#00478E" points="9.217 6.9128 10.369 6.9128 10.369 5.7608 9.217 5.7608"></polygon>
                <polygon id="Fill-119" fill="#00478E" points="10.369 6.9128 11.52 6.9128 11.52 5.7608 10.369 5.7608"></polygon>
                <polygon id="Fill-120" fill="#00478E" points="11.521 6.9128 12.673 6.9128 12.673 5.7608 11.521 5.7608"></polygon>
                <polygon id="Fill-121" fill="#FFFFFF" points="12.673 6.9128 13.825 6.9128 13.825 5.7608 12.673 5.7608"></polygon>
                <polygon id="Fill-122" fill="#FFFFFF" points="13.825 6.9128 14.977 6.9128 14.977 5.7608 13.825 5.7608"></polygon>
                <polygon id="Fill-123" fill="#FFFFFF" points="14.978 6.9128 16.129 6.9128 16.129 5.7608 14.978 5.7608"></polygon>
                <polygon id="Fill-124" fill="#FFFFFF" points="16.129 6.9128 17.281 6.9128 17.281 5.7608 16.129 5.7608"></polygon>
                <polygon id="Fill-125" fill="#FFFFFF" points="17.282 6.9128 18.434 6.9128 18.434 5.7608 17.282 5.7608"></polygon>
                <polygon id="Fill-126" fill="#00478E" points="18.434 6.9128 19.585 6.9128 19.585 5.7608 18.434 5.7608"></polygon>
                <polygon id="Fill-127" fill="#00478E" points="19.585 6.9128 20.737 6.9128 20.737 5.7608 19.585 5.7608"></polygon>
                <polygon id="Fill-128" fill="#00478E" points="20.738 6.9128 21.89 6.9128 21.89 5.7608 20.738 5.7608"></polygon>
                <polygon id="Fill-129" fill="#00478E" points="21.89 6.9128 23.042 6.9128 23.042 5.7608 21.89 5.7608"></polygon>
                <polygon id="Fill-130" fill="#00478E" points="23.042 6.9128 24.193 6.9128 24.193 5.7608 23.042 5.7608"></polygon>
                <polygon id="Fill-131" fill="#00478E" points="24.194 6.9128 25.346 6.9128 25.346 5.7608 24.194 5.7608"></polygon>
                <polygon id="Fill-132" fill="#0055AA" points="25.346 6.9128 26.498 6.9128 26.498 5.7608 25.346 5.7608"></polygon>
                <polygon id="Fill-133" fill="#00478E" points="1.153 8.0638 2.305 8.0638 2.305 6.9128 1.153 6.9128"></polygon>
                <polygon id="Fill-134" fill="#0055AA" points="0 8.0638 1.152 8.0638 1.152 6.9128 0 6.9128"></polygon>
                <polygon id="Fill-135" fill="#00478E" points="2.305 8.0638 3.456 8.0638 3.456 6.9128 2.305 6.9128"></polygon>
                <polygon id="Fill-136" fill="#00478E" points="3.456 8.0638 4.608 8.0638 4.608 6.9128 3.456 6.9128"></polygon>
                <polygon id="Fill-137" fill="#00478E" points="4.609 8.0638 5.761 8.0638 5.761 6.9128 4.609 6.9128"></polygon>
                <polygon id="Fill-138" fill="#00478E" points="5.761 8.0638 6.912 8.0638 6.912 6.9128 5.761 6.9128"></polygon>
                <polygon id="Fill-139" fill="#00478E" points="6.912 8.0638 8.064 8.0638 8.064 6.9128 6.912 6.9128"></polygon>
                <polygon id="Fill-140" fill="#00478E" points="8.065 8.0638 9.217 8.0638 9.217 6.9128 8.065 6.9128"></polygon>
                <polygon id="Fill-141" fill="#00478E" points="9.217 8.0638 10.369 8.0638 10.369 6.9128 9.217 6.9128"></polygon>
                <polygon id="Fill-142" fill="#00478E" points="10.369 8.0638 11.52 8.0638 11.52 6.9128 10.369 6.9128"></polygon>
                <polygon id="Fill-143" fill="#00478E" points="11.521 8.0638 12.673 8.0638 12.673 6.9128 11.521 6.9128"></polygon>
                <polygon id="Fill-144" fill="#FFFFFF" points="12.673 8.0638 13.825 8.0638 13.825 6.9128 12.673 6.9128"></polygon>
                <polygon id="Fill-145" fill="#FFFFFF" points="13.825 8.0638 14.977 8.0638 14.977 6.9128 13.825 6.9128"></polygon>
                <polygon id="Fill-146" fill="#FFFFFF" points="14.978 8.0638 16.129 8.0638 16.129 6.9128 14.978 6.9128"></polygon>
                <polygon id="Fill-147" fill="#FFFFFF" points="16.129 8.0638 17.281 8.0638 17.281 6.9128 16.129 6.9128"></polygon>
                <polygon id="Fill-148" fill="#00478E" points="17.282 8.0638 18.434 8.0638 18.434 6.9128 17.282 6.9128"></polygon>
                <polygon id="Fill-149" fill="#00478E" points="18.434 8.0638 19.585 8.0638 19.585 6.9128 18.434 6.9128"></polygon>
                <polygon id="Fill-150" fill="#00478E" points="19.585 8.0638 20.737 8.0638 20.737 6.9128 19.585 6.9128"></polygon>
                <polygon id="Fill-151" fill="#00478E" points="20.738 8.0638 21.89 8.0638 21.89 6.9128 20.738 6.9128"></polygon>
                <polygon id="Fill-152" fill="#00478E" points="21.89 8.0638 23.042 8.0638 23.042 6.9128 21.89 6.9128"></polygon>
                <polygon id="Fill-153" fill="#00478E" points="23.042 8.0638 24.193 8.0638 24.193 6.9128 23.042 6.9128"></polygon>
                <polygon id="Fill-154" fill="#00478E" points="24.194 8.0638 25.346 8.0638 25.346 6.9128 24.194 6.9128"></polygon>
                <polygon id="Fill-155" fill="#0055AA" points="25.346 8.0638 26.498 8.0638 26.498 6.9128 25.346 6.9128"></polygon>
                <polygon id="Fill-156" fill="#0055AA" points="1.153 9.2168 2.305 9.2168 2.305 8.0648 1.153 8.0648"></polygon>
                <polygon id="Fill-157" fill="#0055AA" points="0 9.2168 1.152 9.2168 1.152 8.0638 0 8.0638"></polygon>
                <polygon id="Fill-158" fill="#0055AA" points="2.305 9.2168 3.456 9.2168 3.456 8.0648 2.305 8.0648"></polygon>
                <polygon id="Fill-159" fill="#0055AA" points="3.456 9.2168 4.608 9.2168 4.608 8.0648 3.456 8.0648"></polygon>
                <polygon id="Fill-160" fill="#0055AA" points="4.609 9.2168 5.761 9.2168 5.761 8.0648 4.609 8.0648"></polygon>
                <polygon id="Fill-161" fill="#0055AA" points="5.761 9.2168 6.912 9.2168 6.912 8.0648 5.761 8.0648"></polygon>
                <polygon id="Fill-162" fill="#0055AA" points="6.912 9.2168 8.064 9.2168 8.064 8.0648 6.912 8.0648"></polygon>
                <polygon id="Fill-163" fill="#0055AA" points="8.065 9.2168 9.217 9.2168 9.217 8.0648 8.065 8.0648"></polygon>
                <polygon id="Fill-164" fill="#0055AA" points="9.217 9.2168 10.369 9.2168 10.369 8.0648 9.217 8.0648"></polygon>
                <polygon id="Fill-165" fill="#0055AA" points="10.369 9.2168 11.52 9.2168 11.52 8.0648 10.369 8.0648"></polygon>
                <polygon id="Fill-166" fill="#0055AA" points="11.521 9.2168 12.673 9.2168 12.673 8.0648 11.521 8.0648"></polygon>
                <polygon id="Fill-167" fill="#FFFFFF" points="12.673 9.2168 13.825 9.2168 13.825 8.0648 12.673 8.0648"></polygon>
                <polygon id="Fill-168" fill="#FFFFFF" points="13.825 9.2168 14.977 9.2168 14.977 8.0648 13.825 8.0648"></polygon>
                <polygon id="Fill-169" fill="#FFFFFF" points="14.978 9.2168 16.129 9.2168 16.129 8.0648 14.978 8.0648"></polygon>
                <polygon id="Fill-170" fill="#FFFFFF" points="16.129 9.2168 17.281 9.2168 17.281 8.0648 16.129 8.0648"></polygon>
                <polygon id="Fill-171" fill="#0055AA" points="17.282 9.2168 18.434 9.2168 18.434 8.0648 17.282 8.0648"></polygon>
                <polygon id="Fill-172" fill="#0055AA" points="18.434 9.2168 19.585 9.2168 19.585 8.0648 18.434 8.0648"></polygon>
                <polygon id="Fill-173" fill="#0055AA" points="19.585 9.2168 20.737 9.2168 20.737 8.0648 19.585 8.0648"></polygon>
                <polygon id="Fill-174" fill="#0055AA" points="20.738 9.2168 21.89 9.2168 21.89 8.0648 20.738 8.0648"></polygon>
                <polygon id="Fill-175" fill="#0055AA" points="21.89 9.2168 23.042 9.2168 23.042 8.0648 21.89 8.0648"></polygon>
                <polygon id="Fill-176" fill="#0055AA" points="23.042 9.2168 24.193 9.2168 24.193 8.0648 23.042 8.0648"></polygon>
                <polygon id="Fill-177" fill="#0055AA" points="24.194 9.2168 25.346 9.2168 25.346 8.0648 24.194 8.0648"></polygon>
                <polygon id="Fill-178" fill="#0055AA" points="25.346 9.2168 26.498 9.2168 26.498 8.0638 25.346 8.0638"></polygon>
                <polygon id="Fill-179" fill="#0055AA" points="1.153 10.3688 2.305 10.3688 2.305 9.2168 1.153 9.2168"></polygon>
                <polygon id="Fill-180" fill="#0055AA" points="0 10.3688 1.152 10.3688 1.152 9.2168 0 9.2168"></polygon>
                <polygon id="Fill-181" fill="#0055AA" points="2.305 10.3688 3.456 10.3688 3.456 9.2168 2.305 9.2168"></polygon>
                <polygon id="Fill-182" fill="#0055AA" points="3.456 10.3688 4.608 10.3688 4.608 9.2168 3.456 9.2168"></polygon>
                <polygon id="Fill-183" fill="#0055AA" points="4.609 10.3688 5.761 10.3688 5.761 9.2168 4.609 9.2168"></polygon>
                <polygon id="Fill-184" fill="#0055AA" points="5.761 10.3688 6.912 10.3688 6.912 9.2168 5.761 9.2168"></polygon>
                <polygon id="Fill-185" fill="#0055AA" points="6.912 10.3688 8.064 10.3688 8.064 9.2168 6.912 9.2168"></polygon>
                <polygon id="Fill-186" fill="#0055AA" points="8.065 10.3688 9.217 10.3688 9.217 9.2168 8.065 9.2168"></polygon>
                <polygon id="Fill-187" fill="#0055AA" points="9.217 10.3688 10.369 10.3688 10.369 9.2168 9.217 9.2168"></polygon>
                <polygon id="Fill-188" fill="#0055AA" points="10.369 10.3688 11.52 10.3688 11.52 9.2168 10.369 9.2168"></polygon>
                <polygon id="Fill-189" fill="#0055AA" points="11.521 10.3688 12.673 10.3688 12.673 9.2168 11.521 9.2168"></polygon>
                <polygon id="Fill-190" fill="#FFFFFF" points="12.673 10.3688 13.825 10.3688 13.825 9.2168 12.673 9.2168"></polygon>
                <polygon id="Fill-191" fill="#FFFFFF" points="13.825 10.3688 14.977 10.3688 14.977 9.2168 13.825 9.2168"></polygon>
                <polygon id="Fill-192" fill="#FFFFFF" points="14.978 10.3688 16.129 10.3688 16.129 9.2168 14.978 9.2168"></polygon>
                <polygon id="Fill-193" fill="#FFFFFF" points="16.129 10.3688 17.281 10.3688 17.281 9.2168 16.129 9.2168"></polygon>
                <polygon id="Fill-194" fill="#0055AA" points="17.282 10.3688 18.434 10.3688 18.434 9.2168 17.282 9.2168"></polygon>
                <polygon id="Fill-195" fill="#0055AA" points="18.434 10.3688 19.585 10.3688 19.585 9.2168 18.434 9.2168"></polygon>
                <polygon id="Fill-196" fill="#0055AA" points="19.585 10.3688 20.737 10.3688 20.737 9.2168 19.585 9.2168"></polygon>
                <polygon id="Fill-197" fill="#0055AA" points="20.738 10.3688 21.89 10.3688 21.89 9.2168 20.738 9.2168"></polygon>
                <polygon id="Fill-198" fill="#0055AA" points="21.89 10.3688 23.042 10.3688 23.042 9.2168 21.89 9.2168"></polygon>
                <polygon id="Fill-199" fill="#0055AA" points="23.042 10.3688 24.193 10.3688 24.193 9.2168 23.042 9.2168"></polygon>
                <polygon id="Fill-200" fill="#0055AA" points="24.194 10.3688 25.346 10.3688 25.346 9.2168 24.194 9.2168"></polygon>
                <polygon id="Fill-201" fill="#0055AA" points="25.346 10.3688 26.498 10.3688 26.498 9.2168 25.346 9.2168"></polygon>
                <polygon id="Fill-202" fill="#0055AA" points="1.153 11.5208 2.305 11.5208 2.305 10.3698 1.153 10.3698"></polygon>
                <polygon id="Fill-203" fill="#0055AA" points="0 11.5198 1.152 11.5198 1.152 10.3688 0 10.3688"></polygon>
                <polygon id="Fill-204" fill="#0055AA" points="2.305 11.5208 3.456 11.5208 3.456 10.3698 2.305 10.3698"></polygon>
                <polygon id="Fill-205" fill="#0055AA" points="3.456 11.5208 4.608 11.5208 4.608 10.3698 3.456 10.3698"></polygon>
                <polygon id="Fill-206" fill="#0055AA" points="4.609 11.5208 5.761 11.5208 5.761 10.3698 4.609 10.3698"></polygon>
                <polygon id="Fill-207" fill="#0055AA" points="5.761 11.5208 6.912 11.5208 6.912 10.3698 5.761 10.3698"></polygon>
                <polygon id="Fill-208" fill="#0055AA" points="6.912 11.5208 8.064 11.5208 8.064 10.3698 6.912 10.3698"></polygon>
                <polygon id="Fill-209" fill="#0055AA" points="8.065 11.5208 9.217 11.5208 9.217 10.3698 8.065 10.3698"></polygon>
                <polygon id="Fill-210" fill="#0055AA" points="9.217 11.5208 10.369 11.5208 10.369 10.3698 9.217 10.3698"></polygon>
                <polygon id="Fill-211" fill="#FFFFFF" points="10.369 11.5208 11.52 11.5208 11.52 10.3698 10.369 10.3698"></polygon>
                <polygon id="Fill-212" fill="#FFFFFF" points="11.521 11.5208 12.673 11.5208 12.673 10.3698 11.521 10.3698"></polygon>
                <polygon id="Fill-213" fill="#FFFFFF" points="12.673 11.5208 13.825 11.5208 13.825 10.3698 12.673 10.3698"></polygon>
                <polygon id="Fill-214" fill="#FFFFFF" points="13.825 11.5208 14.977 11.5208 14.977 10.3698 13.825 10.3698"></polygon>
                <polygon id="Fill-215" fill="#FFFFFF" points="14.978 11.5208 16.129 11.5208 16.129 10.3698 14.978 10.3698"></polygon>
                <polygon id="Fill-216" fill="#FFFFFF" points="16.129 11.5208 17.281 11.5208 17.281 10.3698 16.129 10.3698"></polygon>
                <polygon id="Fill-217" fill="#FFFFFF" points="17.282 11.5208 18.434 11.5208 18.434 10.3698 17.282 10.3698"></polygon>
                <polygon id="Fill-218" fill="#FFFFFF" points="18.434 11.5208 19.585 11.5208 19.585 10.3698 18.434 10.3698"></polygon>
                <polygon id="Fill-219" fill="#FFFFFF" points="19.585 11.5208 20.737 11.5208 20.737 10.3698 19.585 10.3698"></polygon>
                <polygon id="Fill-220" fill="#FFFFFF" points="20.738 11.5208 21.89 11.5208 21.89 10.3698 20.738 10.3698"></polygon>
                <polygon id="Fill-221" fill="#FFFFFF" points="21.89 11.5208 23.042 11.5208 23.042 10.3698 21.89 10.3698"></polygon>
                <polygon id="Fill-222" fill="#0055AA" points="23.042 11.5208 24.193 11.5208 24.193 10.3698 23.042 10.3698"></polygon>
                <polygon id="Fill-223" fill="#0055AA" points="24.194 11.5208 25.346 11.5208 25.346 10.3698 24.194 10.3698"></polygon>
                <polygon id="Fill-224" fill="#0055AA" points="25.346 11.5198 26.498 11.5198 26.498 10.3688 25.346 10.3688"></polygon>
                <polygon id="Fill-225" fill="#0055AA" points="1.153 12.6728 2.305 12.6728 2.305 11.5208 1.153 11.5208"></polygon>
                <polygon id="Fill-226" fill="#0055AA" points="0 12.6728 1.152 12.6728 1.152 11.5198 0 11.5198"></polygon>
                <polygon id="Fill-227" fill="#0055AA" points="2.305 12.6728 3.456 12.6728 3.456 11.5208 2.305 11.5208"></polygon>
                <polygon id="Fill-228" fill="#0055AA" points="3.456 12.6728 4.608 12.6728 4.608 11.5208 3.456 11.5208"></polygon>
                <polygon id="Fill-229" fill="#0055AA" points="4.609 12.6728 5.761 12.6728 5.761 11.5208 4.609 11.5208"></polygon>
                <polygon id="Fill-230" fill="#0055AA" points="5.761 12.6728 6.912 12.6728 6.912 11.5208 5.761 11.5208"></polygon>
                <polygon id="Fill-231" fill="#0055AA" points="6.912 12.6728 8.064 12.6728 8.064 11.5208 6.912 11.5208"></polygon>
                <polygon id="Fill-232" fill="#0055AA" points="8.065 12.6728 9.217 12.6728 9.217 11.5208 8.065 11.5208"></polygon>
                <polygon id="Fill-233" fill="#0055AA" points="9.217 12.6728 10.369 12.6728 10.369 11.5208 9.217 11.5208"></polygon>
                <polygon id="Fill-234" fill="#FFFFFF" points="10.369 12.6728 11.52 12.6728 11.52 11.5208 10.369 11.5208"></polygon>
                <polygon id="Fill-235" fill="#FFFFFF" points="11.521 12.6728 12.673 12.6728 12.673 11.5208 11.521 11.5208"></polygon>
                <polygon id="Fill-236" fill="#FFFFFF" points="12.673 12.6728 13.825 12.6728 13.825 11.5208 12.673 11.5208"></polygon>
                <polygon id="Fill-237" fill="#FFFFFF" points="13.825 12.6728 14.977 12.6728 14.977 11.5208 13.825 11.5208"></polygon>
                <polygon id="Fill-238" fill="#FFFFFF" points="14.978 12.6728 16.129 12.6728 16.129 11.5208 14.978 11.5208"></polygon>
                <polygon id="Fill-239" fill="#FFFFFF" points="16.129 12.6728 17.281 12.6728 17.281 11.5208 16.129 11.5208"></polygon>
                <polygon id="Fill-240" fill="#FFFFFF" points="17.282 12.6728 18.434 12.6728 18.434 11.5208 17.282 11.5208"></polygon>
                <polygon id="Fill-241" fill="#FFFFFF" points="18.434 12.6728 19.585 12.6728 19.585 11.5208 18.434 11.5208"></polygon>
                <polygon id="Fill-242" fill="#FFFFFF" points="19.585 12.6728 20.737 12.6728 20.737 11.5208 19.585 11.5208"></polygon>
                <polygon id="Fill-243" fill="#FFFFFF" points="20.738 12.6728 21.89 12.6728 21.89 11.5208 20.738 11.5208"></polygon>
                <polygon id="Fill-244" fill="#FFFFFF" points="21.89 12.6728 23.042 12.6728 23.042 11.5208 21.89 11.5208"></polygon>
                <polygon id="Fill-245" fill="#0055AA" points="23.042 12.6728 24.193 12.6728 24.193 11.5208 23.042 11.5208"></polygon>
                <polygon id="Fill-246" fill="#0055AA" points="24.194 12.6728 25.346 12.6728 25.346 11.5208 24.194 11.5208"></polygon>
                <polygon id="Fill-247" fill="#0055AA" points="25.346 12.6728 26.498 12.6728 26.498 11.5198 25.346 11.5198"></polygon>
                <polygon id="Fill-248" fill="#0055AA" points="1.153 13.8248 2.305 13.8248 2.305 12.6728 1.153 12.6728"></polygon>
                <polygon id="Fill-249" fill="#0055AA" points="0 13.8248 1.152 13.8248 1.152 12.6728 0 12.6728"></polygon>
                <polygon id="Fill-250" fill="#0055AA" points="2.305 13.8248 3.456 13.8248 3.456 12.6728 2.305 12.6728"></polygon>
                <polygon id="Fill-251" fill="#0055AA" points="3.456 13.8248 4.608 13.8248 4.608 12.6728 3.456 12.6728"></polygon>
                <polygon id="Fill-252" fill="#0055AA" points="4.609 13.8248 5.761 13.8248 5.761 12.6728 4.609 12.6728"></polygon>
                <polygon id="Fill-253" fill="#0055AA" points="5.761 13.8248 6.912 13.8248 6.912 12.6728 5.761 12.6728"></polygon>
                <polygon id="Fill-254" fill="#0055AA" points="6.912 13.8248 8.064 13.8248 8.064 12.6728 6.912 12.6728"></polygon>
                <polygon id="Fill-255" fill="#0055AA" points="8.065 13.8248 9.217 13.8248 9.217 12.6728 8.065 12.6728"></polygon>
                <polygon id="Fill-256" fill="#0055AA" points="9.217 13.8248 10.369 13.8248 10.369 12.6728 9.217 12.6728"></polygon>
                <polygon id="Fill-257" fill="#FFFFFF" points="10.369 13.8248 11.52 13.8248 11.52 12.6728 10.369 12.6728"></polygon>
                <polygon id="Fill-258" fill="#FFFFFF" points="11.521 13.8248 12.673 13.8248 12.673 12.6728 11.521 12.6728"></polygon>
                <polygon id="Fill-259" fill="#FFFFFF" points="12.673 13.8248 13.825 13.8248 13.825 12.6728 12.673 12.6728"></polygon>
                <polygon id="Fill-260" fill="#FFFFFF" points="13.825 13.8248 14.977 13.8248 14.977 12.6728 13.825 12.6728"></polygon>
                <polygon id="Fill-261" fill="#FFFFFF" points="14.978 13.8248 16.129 13.8248 16.129 12.6728 14.978 12.6728"></polygon>
                <polygon id="Fill-262" fill="#FFFFFF" points="16.129 13.8248 17.281 13.8248 17.281 12.6728 16.129 12.6728"></polygon>
                <polygon id="Fill-263" fill="#FFFFFF" points="17.282 13.8248 18.434 13.8248 18.434 12.6728 17.282 12.6728"></polygon>
                <polygon id="Fill-264" fill="#FFFFFF" points="18.434 13.8248 19.585 13.8248 19.585 12.6728 18.434 12.6728"></polygon>
                <polygon id="Fill-265" fill="#FFFFFF" points="19.585 13.8248 20.737 13.8248 20.737 12.6728 19.585 12.6728"></polygon>
                <polygon id="Fill-266" fill="#FFFFFF" points="20.738 13.8248 21.89 13.8248 21.89 12.6728 20.738 12.6728"></polygon>
                <polygon id="Fill-267" fill="#FFFFFF" points="21.89 13.8248 23.042 13.8248 23.042 12.6728 21.89 12.6728"></polygon>
                <polygon id="Fill-268" fill="#0055AA" points="23.042 13.8248 24.193 13.8248 24.193 12.6728 23.042 12.6728"></polygon>
                <polygon id="Fill-269" fill="#0055AA" points="24.194 13.8248 25.346 13.8248 25.346 12.6728 24.194 12.6728"></polygon>
                <polygon id="Fill-270" fill="#0055AA" points="25.346 13.8248 26.498 13.8248 26.498 12.6728 25.346 12.6728"></polygon>
                <polygon id="Fill-271" fill="#0055AA" points="1.153 14.9778 2.305 14.9778 2.305 13.8258 1.153 13.8258"></polygon>
                <polygon id="Fill-272" fill="#0055AA" points="0 14.9778 1.152 14.9778 1.152 13.8248 0 13.8248"></polygon>
                <polygon id="Fill-273" fill="#0055AA" points="2.305 14.9778 3.456 14.9778 3.456 13.8258 2.305 13.8258"></polygon>
                <polygon id="Fill-274" fill="#0055AA" points="3.456 14.9778 4.608 14.9778 4.608 13.8258 3.456 13.8258"></polygon>
                <polygon id="Fill-275" fill="#0055AA" points="4.609 14.9778 5.761 14.9778 5.761 13.8258 4.609 13.8258"></polygon>
                <polygon id="Fill-276" fill="#0055AA" points="5.761 14.9778 6.912 14.9778 6.912 13.8258 5.761 13.8258"></polygon>
                <polygon id="Fill-277" fill="#0055AA" points="6.912 14.9778 8.064 14.9778 8.064 13.8258 6.912 13.8258"></polygon>
                <polygon id="Fill-278" fill="#0055AA" points="8.065 14.9778 9.217 14.9778 9.217 13.8258 8.065 13.8258"></polygon>
                <polygon id="Fill-279" fill="#0055AA" points="9.217 14.9778 10.369 14.9778 10.369 13.8258 9.217 13.8258"></polygon>
                <polygon id="Fill-280" fill="#0055AA" points="10.369 14.9778 11.52 14.9778 11.52 13.8258 10.369 13.8258"></polygon>
                <polygon id="Fill-281" fill="#0055AA" points="11.521 14.9778 12.673 14.9778 12.673 13.8258 11.521 13.8258"></polygon>
                <polygon id="Fill-282" fill="#FFFFFF" points="12.673 14.9778 13.825 14.9778 13.825 13.8258 12.673 13.8258"></polygon>
                <polygon id="Fill-283" fill="#FFFFFF" points="13.825 14.9778 14.977 14.9778 14.977 13.8258 13.825 13.8258"></polygon>
                <polygon id="Fill-284" fill="#FFFFFF" points="14.978 14.9778 16.129 14.9778 16.129 13.8258 14.978 13.8258"></polygon>
                <polygon id="Fill-285" fill="#FFFFFF" points="16.129 14.9778 17.281 14.9778 17.281 13.8258 16.129 13.8258"></polygon>
                <polygon id="Fill-286" fill="#0055AA" points="17.282 14.9778 18.434 14.9778 18.434 13.8258 17.282 13.8258"></polygon>
                <polygon id="Fill-287" fill="#0055AA" points="18.434 14.9778 19.585 14.9778 19.585 13.8258 18.434 13.8258"></polygon>
                <polygon id="Fill-288" fill="#0055AA" points="19.585 14.9778 20.737 14.9778 20.737 13.8258 19.585 13.8258"></polygon>
                <polygon id="Fill-289" fill="#0055AA" points="20.738 14.9778 21.89 14.9778 21.89 13.8258 20.738 13.8258"></polygon>
                <polygon id="Fill-290" fill="#0055AA" points="21.89 14.9778 23.042 14.9778 23.042 13.8258 21.89 13.8258"></polygon>
                <polygon id="Fill-291" fill="#0055AA" points="23.042 14.9778 24.193 14.9778 24.193 13.8258 23.042 13.8258"></polygon>
                <polygon id="Fill-292" fill="#0055AA" points="24.194 14.9778 25.346 14.9778 25.346 13.8258 24.194 13.8258"></polygon>
                <polygon id="Fill-293" fill="#0055AA" points="25.346 14.9778 26.498 14.9778 26.498 13.8248 25.346 13.8248"></polygon>
                <polygon id="Fill-294" fill="#0055AA" points="1.153 16.1288 2.305 16.1288 2.305 14.9778 1.153 14.9778"></polygon>
                <polygon id="Fill-295" fill="#0055AA" points="0 16.1288 1.152 16.1288 1.152 14.9778 0 14.9778"></polygon>
                <polygon id="Fill-296" fill="#0055AA" points="2.305 16.1288 3.456 16.1288 3.456 14.9778 2.305 14.9778"></polygon>
                <polygon id="Fill-297" fill="#0055AA" points="3.456 16.1288 4.608 16.1288 4.608 14.9778 3.456 14.9778"></polygon>
                <polygon id="Fill-298" fill="#0055AA" points="4.609 16.1288 5.761 16.1288 5.761 14.9778 4.609 14.9778"></polygon>
                <polygon id="Fill-299" fill="#0055AA" points="5.761 16.1288 6.912 16.1288 6.912 14.9778 5.761 14.9778"></polygon>
                <polygon id="Fill-300" fill="#0055AA" points="6.912 16.1288 8.064 16.1288 8.064 14.9778 6.912 14.9778"></polygon>
                <polygon id="Fill-301" fill="#0055AA" points="8.065 16.1288 9.217 16.1288 9.217 14.9778 8.065 14.9778"></polygon>
                <polygon id="Fill-302" fill="#0055AA" points="9.217 16.1288 10.369 16.1288 10.369 14.9778 9.217 14.9778"></polygon>
                <polygon id="Fill-303" fill="#0055AA" points="10.369 16.1288 11.52 16.1288 11.52 14.9778 10.369 14.9778"></polygon>
                <polygon id="Fill-304" fill="#0055AA" points="11.521 16.1288 12.673 16.1288 12.673 14.9778 11.521 14.9778"></polygon>
                <polygon id="Fill-305" fill="#FFFFFF" points="12.673 16.1288 13.825 16.1288 13.825 14.9778 12.673 14.9778"></polygon>
                <polygon id="Fill-306" fill="#FFFFFF" points="13.825 16.1288 14.977 16.1288 14.977 14.9778 13.825 14.9778"></polygon>
                <polygon id="Fill-307" fill="#FFFFFF" points="14.978 16.1288 16.129 16.1288 16.129 14.9778 14.978 14.9778"></polygon>
                <polygon id="Fill-308" fill="#FFFFFF" points="16.129 16.1288 17.281 16.1288 17.281 14.9778 16.129 14.9778"></polygon>
                <polygon id="Fill-309" fill="#0055AA" points="17.282 16.1288 18.434 16.1288 18.434 14.9778 17.282 14.9778"></polygon>
                <polygon id="Fill-310" fill="#0055AA" points="18.434 16.1288 19.585 16.1288 19.585 14.9778 18.434 14.9778"></polygon>
                <polygon id="Fill-311" fill="#0055AA" points="19.585 16.1288 20.737 16.1288 20.737 14.9778 19.585 14.9778"></polygon>
                <polygon id="Fill-312" fill="#0055AA" points="20.738 16.1288 21.89 16.1288 21.89 14.9778 20.738 14.9778"></polygon>
                <polygon id="Fill-313" fill="#0055AA" points="21.89 16.1288 23.042 16.1288 23.042 14.9778 21.89 14.9778"></polygon>
                <polygon id="Fill-314" fill="#0055AA" points="23.042 16.1288 24.193 16.1288 24.193 14.9778 23.042 14.9778"></polygon>
                <polygon id="Fill-315" fill="#0055AA" points="24.194 16.1288 25.346 16.1288 25.346 14.9778 24.194 14.9778"></polygon>
                <polygon id="Fill-316" fill="#0055AA" points="25.346 16.1288 26.498 16.1288 26.498 14.9778 25.346 14.9778"></polygon>
                <polygon id="Fill-317" fill="#0055AA" points="1.153 17.2808 2.305 17.2808 2.305 16.1288 1.153 16.1288"></polygon>
                <polygon id="Fill-318" fill="#0055AA" points="0 17.2808 1.152 17.2808 1.152 16.1288 0 16.1288"></polygon>
                <polygon id="Fill-319" fill="#0055AA" points="2.305 17.2808 3.456 17.2808 3.456 16.1288 2.305 16.1288"></polygon>
                <polygon id="Fill-320" fill="#0055AA" points="3.456 17.2808 4.608 17.2808 4.608 16.1288 3.456 16.1288"></polygon>
                <polygon id="Fill-321" fill="#0055AA" points="4.609 17.2808 5.761 17.2808 5.761 16.1288 4.609 16.1288"></polygon>
                <polygon id="Fill-322" fill="#0055AA" points="5.761 17.2808 6.912 17.2808 6.912 16.1288 5.761 16.1288"></polygon>
                <polygon id="Fill-323" fill="#0055AA" points="6.912 17.2808 8.064 17.2808 8.064 16.1288 6.912 16.1288"></polygon>
                <polygon id="Fill-324" fill="#0055AA" points="8.065 17.2808 9.217 17.2808 9.217 16.1288 8.065 16.1288"></polygon>
                <polygon id="Fill-325" fill="#0055AA" points="9.217 17.2808 10.369 17.2808 10.369 16.1288 9.217 16.1288"></polygon>
                <polygon id="Fill-326" fill="#0055AA" points="10.369 17.2808 11.52 17.2808 11.52 16.1288 10.369 16.1288"></polygon>
                <polygon id="Fill-327" fill="#0055AA" points="11.521 17.2808 12.673 17.2808 12.673 16.1288 11.521 16.1288"></polygon>
                <polygon id="Fill-328" fill="#FFFFFF" points="12.673 17.2808 13.825 17.2808 13.825 16.1288 12.673 16.1288"></polygon>
                <polygon id="Fill-329" fill="#FFFFFF" points="13.825 17.2808 14.977 17.2808 14.977 16.1288 13.825 16.1288"></polygon>
                <polygon id="Fill-330" fill="#FFFFFF" points="14.978 17.2808 16.129 17.2808 16.129 16.1288 14.978 16.1288"></polygon>
                <polygon id="Fill-331" fill="#FFFFFF" points="16.129 17.2808 17.281 17.2808 17.281 16.1288 16.129 16.1288"></polygon>
                <polygon id="Fill-332" fill="#0055AA" points="17.282 17.2808 18.434 17.2808 18.434 16.1288 17.282 16.1288"></polygon>
                <polygon id="Fill-333" fill="#0055AA" points="18.434 17.2808 19.585 17.2808 19.585 16.1288 18.434 16.1288"></polygon>
                <polygon id="Fill-334" fill="#0055AA" points="19.585 17.2808 20.737 17.2808 20.737 16.1288 19.585 16.1288"></polygon>
                <polygon id="Fill-335" fill="#0055AA" points="20.738 17.2808 21.89 17.2808 21.89 16.1288 20.738 16.1288"></polygon>
                <polygon id="Fill-336" fill="#0055AA" points="21.89 17.2808 23.042 17.2808 23.042 16.1288 21.89 16.1288"></polygon>
                <polygon id="Fill-337" fill="#0055AA" points="23.042 17.2808 24.193 17.2808 24.193 16.1288 23.042 16.1288"></polygon>
                <polygon id="Fill-338" fill="#0055AA" points="24.194 17.2808 25.346 17.2808 25.346 16.1288 24.194 16.1288"></polygon>
                <polygon id="Fill-339" fill="#0055AA" points="25.346 17.2808 26.498 17.2808 26.498 16.1288 25.346 16.1288"></polygon>
                <polygon id="Fill-340" fill="#0055AA" points="1.153 18.4338 2.305 18.4338 2.305 17.2818 1.153 17.2818"></polygon>
                <polygon id="Fill-341" fill="#0055AA" points="0 18.4338 1.152 18.4338 1.152 17.2808 0 17.2808"></polygon>
                <polygon id="Fill-342" fill="#0055AA" points="2.305 18.4338 3.456 18.4338 3.456 17.2818 2.305 17.2818"></polygon>
                <polygon id="Fill-343" fill="#0055AA" points="3.456 18.4338 4.608 18.4338 4.608 17.2818 3.456 17.2818"></polygon>
                <polygon id="Fill-344" fill="#0055AA" points="4.609 18.4338 5.761 18.4338 5.761 17.2818 4.609 17.2818"></polygon>
                <polygon id="Fill-345" fill="#0055AA" points="5.761 18.4338 6.912 18.4338 6.912 17.2818 5.761 17.2818"></polygon>
                <polygon id="Fill-346" fill="#0055AA" points="6.912 18.4338 8.064 18.4338 8.064 17.2818 6.912 17.2818"></polygon>
                <polygon id="Fill-347" fill="#0055AA" points="8.065 18.4338 9.217 18.4338 9.217 17.2818 8.065 17.2818"></polygon>
                <polygon id="Fill-348" fill="#0055AA" points="9.217 18.4338 10.369 18.4338 10.369 17.2818 9.217 17.2818"></polygon>
                <polygon id="Fill-349" fill="#0055AA" points="10.369 18.4338 11.52 18.4338 11.52 17.2818 10.369 17.2818"></polygon>
                <polygon id="Fill-350" fill="#0055AA" points="11.521 18.4338 12.673 18.4338 12.673 17.2818 11.521 17.2818"></polygon>
                <polygon id="Fill-351" fill="#FFFFFF" points="12.673 18.4338 13.825 18.4338 13.825 17.2818 12.673 17.2818"></polygon>
                <polygon id="Fill-352" fill="#FFFFFF" points="13.825 18.4338 14.977 18.4338 14.977 17.2818 13.825 17.2818"></polygon>
                <polygon id="Fill-353" fill="#FFFFFF" points="14.978 18.4338 16.129 18.4338 16.129 17.2818 14.978 17.2818"></polygon>
                <polygon id="Fill-354" fill="#FFFFFF" points="16.129 18.4338 17.281 18.4338 17.281 17.2818 16.129 17.2818"></polygon>
                <polygon id="Fill-355" fill="#0055AA" points="17.282 18.4338 18.434 18.4338 18.434 17.2818 17.282 17.2818"></polygon>
                <polygon id="Fill-356" fill="#0055AA" points="18.434 18.4338 19.585 18.4338 19.585 17.2818 18.434 17.2818"></polygon>
                <polygon id="Fill-357" fill="#0055AA" points="19.585 18.4338 20.737 18.4338 20.737 17.2818 19.585 17.2818"></polygon>
                <polygon id="Fill-358" fill="#0055AA" points="20.738 18.4338 21.89 18.4338 21.89 17.2818 20.738 17.2818"></polygon>
                <polygon id="Fill-359" fill="#0055AA" points="21.89 18.4338 23.042 18.4338 23.042 17.2818 21.89 17.2818"></polygon>
                <polygon id="Fill-360" fill="#0055AA" points="23.042 18.4338 24.193 18.4338 24.193 17.2818 23.042 17.2818"></polygon>
                <polygon id="Fill-361" fill="#0055AA" points="24.194 18.4338 25.346 18.4338 25.346 17.2818 24.194 17.2818"></polygon>
                <polygon id="Fill-362" fill="#0055AA" points="25.346 18.4338 26.498 18.4338 26.498 17.2808 25.346 17.2808"></polygon>
                <polygon id="Fill-363" fill="#0055AA" points="1.153 19.5858 2.305 19.5858 2.305 18.4338 1.153 18.4338"></polygon>
                <polygon id="Fill-364" fill="#0055AA" points="0 19.5858 1.152 19.5858 1.152 18.4338 0 18.4338"></polygon>
                <polygon id="Fill-365" fill="#0055AA" points="2.305 19.5858 3.456 19.5858 3.456 18.4338 2.305 18.4338"></polygon>
                <polygon id="Fill-366" fill="#0055AA" points="3.456 19.5858 4.608 19.5858 4.608 18.4338 3.456 18.4338"></polygon>
                <polygon id="Fill-367" fill="#0055AA" points="4.609 19.5858 5.761 19.5858 5.761 18.4338 4.609 18.4338"></polygon>
                <polygon id="Fill-368" fill="#0055AA" points="5.761 19.5858 6.912 19.5858 6.912 18.4338 5.761 18.4338"></polygon>
                <polygon id="Fill-369" fill="#0055AA" points="6.912 19.5858 8.064 19.5858 8.064 18.4338 6.912 18.4338"></polygon>
                <polygon id="Fill-370" fill="#0055AA" points="8.065 19.5858 9.217 19.5858 9.217 18.4338 8.065 18.4338"></polygon>
                <polygon id="Fill-371" fill="#0055AA" points="9.217 19.5858 10.369 19.5858 10.369 18.4338 9.217 18.4338"></polygon>
                <polygon id="Fill-372" fill="#0055AA" points="10.369 19.5858 11.52 19.5858 11.52 18.4338 10.369 18.4338"></polygon>
                <polygon id="Fill-373" fill="#0055AA" points="11.521 19.5858 12.673 19.5858 12.673 18.4338 11.521 18.4338"></polygon>
                <polygon id="Fill-374" fill="#FFFFFF" points="12.673 19.5858 13.825 19.5858 13.825 18.4338 12.673 18.4338"></polygon>
                <polygon id="Fill-375" fill="#FFFFFF" points="13.825 19.5858 14.977 19.5858 14.977 18.4338 13.825 18.4338"></polygon>
                <polygon id="Fill-376" fill="#FFFFFF" points="14.978 19.5858 16.129 19.5858 16.129 18.4338 14.978 18.4338"></polygon>
                <polygon id="Fill-377" fill="#FFFFFF" points="16.129 19.5858 17.281 19.5858 17.281 18.4338 16.129 18.4338"></polygon>
                <polygon id="Fill-378" fill="#0055AA" points="17.282 19.5858 18.434 19.5858 18.434 18.4338 17.282 18.4338"></polygon>
                <polygon id="Fill-379" fill="#0055AA" points="18.434 19.5858 19.585 19.5858 19.585 18.4338 18.434 18.4338"></polygon>
                <polygon id="Fill-380" fill="#0055AA" points="19.585 19.5858 20.737 19.5858 20.737 18.4338 19.585 18.4338"></polygon>
                <polygon id="Fill-381" fill="#0055AA" points="20.738 19.5858 21.89 19.5858 21.89 18.4338 20.738 18.4338"></polygon>
                <polygon id="Fill-382" fill="#0055AA" points="21.89 19.5858 23.042 19.5858 23.042 18.4338 21.89 18.4338"></polygon>
                <polygon id="Fill-383" fill="#0055AA" points="23.042 19.5858 24.193 19.5858 24.193 18.4338 23.042 18.4338"></polygon>
                <polygon id="Fill-384" fill="#0055AA" points="24.194 19.5858 25.346 19.5858 25.346 18.4338 24.194 18.4338"></polygon>
                <polygon id="Fill-385" fill="#0055AA" points="25.346 19.5858 26.498 19.5858 26.498 18.4338 25.346 18.4338"></polygon>
                <polygon id="Fill-386" fill="#1764B2" points="1.153 20.7368 2.305 20.7368 2.305 19.5858 1.153 19.5858"></polygon>
                <polygon id="Fill-387" fill="#0055AA" points="0 20.7368 1.152 20.7368 1.152 19.5858 0 19.5858"></polygon>
                <polygon id="Fill-388" fill="#1764B2" points="2.305 20.7368 3.456 20.7368 3.456 19.5858 2.305 19.5858"></polygon>
                <polygon id="Fill-389" fill="#1764B2" points="3.456 20.7368 4.608 20.7368 4.608 19.5858 3.456 19.5858"></polygon>
                <polygon id="Fill-390" fill="#1764B2" points="4.609 20.7368 5.761 20.7368 5.761 19.5858 4.609 19.5858"></polygon>
                <polygon id="Fill-391" fill="#1764B2" points="5.761 20.7368 6.912 20.7368 6.912 19.5858 5.761 19.5858"></polygon>
                <polygon id="Fill-392" fill="#1764B2" points="6.912 20.7368 8.064 20.7368 8.064 19.5858 6.912 19.5858"></polygon>
                <polygon id="Fill-393" fill="#1764B2" points="8.065 20.7368 9.217 20.7368 9.217 19.5858 8.065 19.5858"></polygon>
                <polygon id="Fill-394" fill="#1764B2" points="9.217 20.7368 10.369 20.7368 10.369 19.5858 9.217 19.5858"></polygon>
                <polygon id="Fill-395" fill="#1764B2" points="10.369 20.7368 11.52 20.7368 11.52 19.5858 10.369 19.5858"></polygon>
                <polygon id="Fill-396" fill="#1764B2" points="11.521 20.7368 12.673 20.7368 12.673 19.5858 11.521 19.5858"></polygon>
                <polygon id="Fill-397" fill="#FFFFFF" points="12.673 20.7368 13.825 20.7368 13.825 19.5858 12.673 19.5858"></polygon>
                <polygon id="Fill-398" fill="#FFFFFF" points="13.825 20.7368 14.977 20.7368 14.977 19.5858 13.825 19.5858"></polygon>
                <polygon id="Fill-399" fill="#FFFFFF" points="14.978 20.7368 16.129 20.7368 16.129 19.5858 14.978 19.5858"></polygon>
                <polygon id="Fill-400" fill="#FFFFFF" points="16.129 20.7368 17.281 20.7368 17.281 19.5858 16.129 19.5858"></polygon>
                <polygon id="Fill-401" fill="#1764B2" points="17.282 20.7368 18.434 20.7368 18.434 19.5858 17.282 19.5858"></polygon>
                <polygon id="Fill-402" fill="#1764B2" points="18.434 20.7368 19.585 20.7368 19.585 19.5858 18.434 19.5858"></polygon>
                <polygon id="Fill-403" fill="#1764B2" points="19.585 20.7368 20.737 20.7368 20.737 19.5858 19.585 19.5858"></polygon>
                <polygon id="Fill-404" fill="#1764B2" points="20.738 20.7368 21.89 20.7368 21.89 19.5858 20.738 19.5858"></polygon>
                <polygon id="Fill-405" fill="#1764B2" points="21.89 20.7368 23.042 20.7368 23.042 19.5858 21.89 19.5858"></polygon>
                <polygon id="Fill-406" fill="#1764B2" points="23.042 20.7368 24.193 20.7368 24.193 19.5858 23.042 19.5858"></polygon>
                <polygon id="Fill-407" fill="#1764B2" points="24.194 20.7368 25.346 20.7368 25.346 19.5858 24.194 19.5858"></polygon>
                <polygon id="Fill-408" fill="#0055AA" points="25.346 20.7368 26.498 20.7368 26.498 19.5858 25.346 19.5858"></polygon>
                <polygon id="Fill-409" fill="#1764B2" points="1.153 21.8898 2.305 21.8898 2.305 20.7378 1.153 20.7378"></polygon>
                <polygon id="Fill-410" fill="#0055AA" points="0 21.8898 1.152 21.8898 1.152 20.7368 0 20.7368"></polygon>
                <polygon id="Fill-411" fill="#1764B2" points="2.305 21.8898 3.456 21.8898 3.456 20.7378 2.305 20.7378"></polygon>
                <polygon id="Fill-412" fill="#1764B2" points="3.456 21.8898 4.608 21.8898 4.608 20.7378 3.456 20.7378"></polygon>
                <polygon id="Fill-413" fill="#1764B2" points="4.609 21.8898 5.761 21.8898 5.761 20.7378 4.609 20.7378"></polygon>
                <polygon id="Fill-414" fill="#1764B2" points="5.761 21.8898 6.912 21.8898 6.912 20.7378 5.761 20.7378"></polygon>
                <polygon id="Fill-415" fill="#1764B2" points="6.912 21.8898 8.064 21.8898 8.064 20.7378 6.912 20.7378"></polygon>
                <polygon id="Fill-416" fill="#1764B2" points="8.065 21.8898 9.217 21.8898 9.217 20.7378 8.065 20.7378"></polygon>
                <polygon id="Fill-417" fill="#1764B2" points="9.217 21.8898 10.369 21.8898 10.369 20.7378 9.217 20.7378"></polygon>
                <polygon id="Fill-418" fill="#1764B2" points="10.369 21.8898 11.52 21.8898 11.52 20.7378 10.369 20.7378"></polygon>
                <polygon id="Fill-419" fill="#1764B2" points="11.521 21.8898 12.673 21.8898 12.673 20.7378 11.521 20.7378"></polygon>
                <polygon id="Fill-420" fill="#FFFFFF" points="12.673 21.8898 13.825 21.8898 13.825 20.7378 12.673 20.7378"></polygon>
                <polygon id="Fill-421" fill="#FFFFFF" points="13.825 21.8898 14.977 21.8898 14.977 20.7378 13.825 20.7378"></polygon>
                <polygon id="Fill-422" fill="#FFFFFF" points="14.978 21.8898 16.129 21.8898 16.129 20.7378 14.978 20.7378"></polygon>
                <polygon id="Fill-423" fill="#FFFFFF" points="16.129 21.8898 17.281 21.8898 17.281 20.7378 16.129 20.7378"></polygon>
                <polygon id="Fill-424" fill="#1764B2" points="17.282 21.8898 18.434 21.8898 18.434 20.7378 17.282 20.7378"></polygon>
                <polygon id="Fill-425" fill="#1764B2" points="18.434 21.8898 19.585 21.8898 19.585 20.7378 18.434 20.7378"></polygon>
                <polygon id="Fill-426" fill="#1764B2" points="19.585 21.8898 20.737 21.8898 20.737 20.7378 19.585 20.7378"></polygon>
                <polygon id="Fill-427" fill="#1764B2" points="20.738 21.8898 21.89 21.8898 21.89 20.7378 20.738 20.7378"></polygon>
                <polygon id="Fill-428" fill="#1764B2" points="21.89 21.8898 23.042 21.8898 23.042 20.7378 21.89 20.7378"></polygon>
                <polygon id="Fill-429" fill="#1764B2" points="23.042 21.8898 24.193 21.8898 24.193 20.7378 23.042 20.7378"></polygon>
                <polygon id="Fill-430" fill="#1764B2" points="24.194 21.8898 25.346 21.8898 25.346 20.7378 24.194 20.7378"></polygon>
                <polygon id="Fill-431" fill="#0055AA" points="25.346 21.8898 26.498 21.8898 26.498 20.7368 25.346 20.7368"></polygon>
                <polygon id="Fill-432" fill="#1764B2" points="1.153 23.0418 2.305 23.0418 2.305 21.8898 1.153 21.8898"></polygon>
                <polygon id="Fill-433" fill="#0055AA" points="0 23.0418 1.152 23.0418 1.152 21.8898 0 21.8898"></polygon>
                <polygon id="Fill-434" fill="#1764B2" points="2.305 23.0418 3.456 23.0418 3.456 21.8898 2.305 21.8898"></polygon>
                <polygon id="Fill-435" fill="#1764B2" points="3.456 23.0418 4.608 23.0418 4.608 21.8898 3.456 21.8898"></polygon>
                <polygon id="Fill-436" fill="#1764B2" points="4.609 23.0418 5.761 23.0418 5.761 21.8898 4.609 21.8898"></polygon>
                <polygon id="Fill-437" fill="#1764B2" points="5.761 23.0418 6.912 23.0418 6.912 21.8898 5.761 21.8898"></polygon>
                <polygon id="Fill-438" fill="#1764B2" points="6.912 23.0418 8.064 23.0418 8.064 21.8898 6.912 21.8898"></polygon>
                <polygon id="Fill-439" fill="#1764B2" points="8.065 23.0418 9.217 23.0418 9.217 21.8898 8.065 21.8898"></polygon>
                <polygon id="Fill-440" fill="#1764B2" points="9.217 23.0418 10.369 23.0418 10.369 21.8898 9.217 21.8898"></polygon>
                <polygon id="Fill-441" fill="#1764B2" points="10.369 23.0418 11.52 23.0418 11.52 21.8898 10.369 21.8898"></polygon>
                <polygon id="Fill-442" fill="#1764B2" points="11.521 23.0418 12.673 23.0418 12.673 21.8898 11.521 21.8898"></polygon>
                <polygon id="Fill-443" fill="#FFFFFF" points="12.673 23.0418 13.825 23.0418 13.825 21.8898 12.673 21.8898"></polygon>
                <polygon id="Fill-444" fill="#FFFFFF" points="13.825 23.0418 14.977 23.0418 14.977 21.8898 13.825 21.8898"></polygon>
                <polygon id="Fill-445" fill="#FFFFFF" points="14.978 23.0418 16.129 23.0418 16.129 21.8898 14.978 21.8898"></polygon>
                <polygon id="Fill-446" fill="#FFFFFF" points="16.129 23.0418 17.281 23.0418 17.281 21.8898 16.129 21.8898"></polygon>
                <polygon id="Fill-447" fill="#1764B2" points="17.282 23.0418 18.434 23.0418 18.434 21.8898 17.282 21.8898"></polygon>
                <polygon id="Fill-448" fill="#1764B2" points="18.434 23.0418 19.585 23.0418 19.585 21.8898 18.434 21.8898"></polygon>
                <polygon id="Fill-449" fill="#1764B2" points="19.585 23.0418 20.737 23.0418 20.737 21.8898 19.585 21.8898"></polygon>
                <polygon id="Fill-450" fill="#1764B2" points="20.738 23.0418 21.89 23.0418 21.89 21.8898 20.738 21.8898"></polygon>
                <polygon id="Fill-451" fill="#1764B2" points="21.89 23.0418 23.042 23.0418 23.042 21.8898 21.89 21.8898"></polygon>
                <polygon id="Fill-452" fill="#1764B2" points="23.042 23.0418 24.193 23.0418 24.193 21.8898 23.042 21.8898"></polygon>
                <polygon id="Fill-453" fill="#1764B2" points="24.194 23.0418 25.346 23.0418 25.346 21.8898 24.194 21.8898"></polygon>
                <polygon id="Fill-454" fill="#0055AA" points="25.346 23.0418 26.498 23.0418 26.498 21.8898 25.346 21.8898"></polygon>
                <polygon id="Fill-455" fill="#4986C2" points="1.153 24.1928 2.305 24.1928 2.305 23.0418 1.153 23.0418"></polygon>
                <polygon id="Fill-456" fill="#0055AA" points="0 24.1928 1.152 24.1928 1.152 23.0418 0 23.0418"></polygon>
                <polygon id="Fill-457" fill="#4986C2" points="2.305 24.1928 3.456 24.1928 3.456 23.0418 2.305 23.0418"></polygon>
                <polygon id="Fill-458" fill="#4986C2" points="3.456 24.1928 4.608 24.1928 4.608 23.0418 3.456 23.0418"></polygon>
                <polygon id="Fill-459" fill="#4986C2" points="4.609 24.1928 5.761 24.1928 5.761 23.0418 4.609 23.0418"></polygon>
                <polygon id="Fill-460" fill="#4986C2" points="5.761 24.1928 6.912 24.1928 6.912 23.0418 5.761 23.0418"></polygon>
                <polygon id="Fill-461" fill="#4986C2" points="6.912 24.1928 8.064 24.1928 8.064 23.0418 6.912 23.0418"></polygon>
                <polygon id="Fill-462" fill="#4986C2" points="8.065 24.1928 9.217 24.1928 9.217 23.0418 8.065 23.0418"></polygon>
                <polygon id="Fill-463" fill="#4986C2" points="9.217 24.1928 10.369 24.1928 10.369 23.0418 9.217 23.0418"></polygon>
                <polygon id="Fill-464" fill="#4986C2" points="10.369 24.1928 11.52 24.1928 11.52 23.0418 10.369 23.0418"></polygon>
                <polygon id="Fill-465" fill="#4986C2" points="11.521 24.1928 12.673 24.1928 12.673 23.0418 11.521 23.0418"></polygon>
                <polygon id="Fill-466" fill="#FFFFFF" points="12.673 24.1928 13.825 24.1928 13.825 23.0418 12.673 23.0418"></polygon>
                <polygon id="Fill-467" fill="#FFFFFF" points="13.825 24.1928 14.977 24.1928 14.977 23.0418 13.825 23.0418"></polygon>
                <polygon id="Fill-468" fill="#FFFFFF" points="14.978 24.1928 16.129 24.1928 16.129 23.0418 14.978 23.0418"></polygon>
                <polygon id="Fill-469" fill="#FFFFFF" points="16.129 24.1928 17.281 24.1928 17.281 23.0418 16.129 23.0418"></polygon>
                <polygon id="Fill-470" fill="#4986C2" points="17.282 24.1928 18.434 24.1928 18.434 23.0418 17.282 23.0418"></polygon>
                <polygon id="Fill-471" fill="#4986C2" points="18.434 24.1928 19.585 24.1928 19.585 23.0418 18.434 23.0418"></polygon>
                <polygon id="Fill-472" fill="#4986C2" points="19.585 24.1928 20.737 24.1928 20.737 23.0418 19.585 23.0418"></polygon>
                <polygon id="Fill-473" fill="#4986C2" points="20.738 24.1928 21.89 24.1928 21.89 23.0418 20.738 23.0418"></polygon>
                <polygon id="Fill-474" fill="#4986C2" points="21.89 24.1928 23.042 24.1928 23.042 23.0418 21.89 23.0418"></polygon>
                <polygon id="Fill-475" fill="#4986C2" points="23.042 24.1928 24.193 24.1928 24.193 23.0418 23.042 23.0418"></polygon>
                <polygon id="Fill-476" fill="#4986C2" points="24.194 24.1928 25.346 24.1928 25.346 23.0418 24.194 23.0418"></polygon>
                <polygon id="Fill-477" fill="#0055AA" points="1.153 25.3458 2.305 25.3458 2.305 24.1938 1.153 24.1938"></polygon>
                <polygon id="Fill-478" fill="#4986C2" points="2.305 25.3458 3.456 25.3458 3.456 24.1938 2.305 24.1938"></polygon>
                <polygon id="Fill-479" fill="#4986C2" points="3.456 25.3458 4.608 25.3458 4.608 24.1938 3.456 24.1938"></polygon>
                <polygon id="Fill-480" fill="#4986C2" points="4.609 25.3458 5.761 25.3458 5.761 24.1938 4.609 24.1938"></polygon>
                <polygon id="Fill-481" fill="#4986C2" points="5.761 25.3458 6.912 25.3458 6.912 24.1938 5.761 24.1938"></polygon>
                <polygon id="Fill-482" fill="#4986C2" points="6.912 25.3458 8.064 25.3458 8.064 24.1938 6.912 24.1938"></polygon>
                <polygon id="Fill-483" fill="#4986C2" points="8.065 25.3458 9.217 25.3458 9.217 24.1938 8.065 24.1938"></polygon>
                <polygon id="Fill-484" fill="#4986C2" points="9.217 25.3458 10.369 25.3458 10.369 24.1938 9.217 24.1938"></polygon>
                <polygon id="Fill-485" fill="#4986C2" points="10.369 25.3458 11.52 25.3458 11.52 24.1938 10.369 24.1938"></polygon>
                <polygon id="Fill-486" fill="#4986C2" points="11.521 25.3458 12.673 25.3458 12.673 24.1938 11.521 24.1938"></polygon>
                <polygon id="Fill-487" fill="#FFFFFF" points="12.673 25.3458 13.825 25.3458 13.825 24.1938 12.673 24.1938"></polygon>
                <polygon id="Fill-488" fill="#FFFFFF" points="13.825 25.3458 14.977 25.3458 14.977 24.1938 13.825 24.1938"></polygon>
                <polygon id="Fill-489" fill="#FFFFFF" points="14.978 25.3458 16.129 25.3458 16.129 24.1938 14.978 24.1938"></polygon>
                <polygon id="Fill-490" fill="#FFFFFF" points="16.129 25.3458 17.281 25.3458 17.281 24.1938 16.129 24.1938"></polygon>
                <polygon id="Fill-491" fill="#4986C2" points="17.282 25.3458 18.434 25.3458 18.434 24.1938 17.282 24.1938"></polygon>
                <polygon id="Fill-492" fill="#4986C2" points="18.434 25.3458 19.585 25.3458 19.585 24.1938 18.434 24.1938"></polygon>
                <polygon id="Fill-493" fill="#4986C2" points="19.585 25.3458 20.737 25.3458 20.737 24.1938 19.585 24.1938"></polygon>
                <polygon id="Fill-494" fill="#4986C2" points="20.738 25.3458 21.89 25.3458 21.89 24.1938 20.738 24.1938"></polygon>
                <polygon id="Fill-495" fill="#4986C2" points="21.89 25.3458 23.042 25.3458 23.042 24.1938 21.89 24.1938"></polygon>
                <polygon id="Fill-496" fill="#4986C2" points="23.042 25.3458 24.193 25.3458 24.193 24.1938 23.042 24.1938"></polygon>
                <polygon id="Fill-497" fill="#0055AA" points="2.305 26.4978 3.456 26.4978 3.456 25.3458 2.305 25.3458"></polygon>
                <polygon id="Fill-498" fill="#0055AA" points="3.456 26.4978 4.608 26.4978 4.608 25.3458 3.456 25.3458"></polygon>
                <polygon id="Fill-499" fill="#0055AA" points="4.608 26.4978 5.761 26.4978 5.761 25.3458 4.608 25.3458"></polygon>
                <polygon id="Fill-500" fill="#0055AA" points="5.761 26.4978 6.912 26.4978 6.912 25.3458 5.761 25.3458"></polygon>
                <polygon id="Fill-501" fill="#0055AA" points="6.912 26.4978 8.064 26.4978 8.064 25.3458 6.912 25.3458"></polygon>
                <polygon id="Fill-502" fill="#0055AA" points="8.064 26.4978 9.217 26.4978 9.217 25.3458 8.064 25.3458"></polygon>
                <polygon id="Fill-503" fill="#0055AA" points="9.217 26.4978 10.369 26.4978 10.369 25.3458 9.217 25.3458"></polygon>
                <polygon id="Fill-504" fill="#0055AA" points="10.369 26.4978 11.521 26.4978 11.521 25.3458 10.369 25.3458"></polygon>
                <polygon id="Fill-505" fill="#0055AA" points="11.521 26.4978 12.673 26.4978 12.673 25.3458 11.521 25.3458"></polygon>
                <polygon id="Fill-506" fill="#0055AA" points="12.673 26.4978 13.825 26.4978 13.825 25.3458 12.673 25.3458"></polygon>
                <polygon id="Fill-507" fill="#0055AA" points="13.825 26.4978 14.978 26.4978 14.978 25.3458 13.825 25.3458"></polygon>
                <polygon id="Fill-508" fill="#0055AA" points="14.978 26.4978 16.129 26.4978 16.129 25.3458 14.978 25.3458"></polygon>
                <polygon id="Fill-509" fill="#0055AA" points="16.129 26.4978 17.281 26.4978 17.281 25.3458 16.129 25.3458"></polygon>
                <polygon id="Fill-510" fill="#0055AA" points="17.281 26.4978 18.434 26.4978 18.434 25.3458 17.281 25.3458"></polygon>
                <polygon id="Fill-511" fill="#0055AA" points="18.434 26.4978 19.585 26.4978 19.585 25.3458 18.434 25.3458"></polygon>
                <polygon id="Fill-512" fill="#0055AA" points="19.585 26.4978 20.737 26.4978 20.737 25.3458 19.585 25.3458"></polygon>
                <polygon id="Fill-513" fill="#0055AA" points="20.737 26.4978 21.89 26.4978 21.89 25.3458 20.737 25.3458"></polygon>
                <polygon id="Fill-514" fill="#0055AA" points="21.89 26.4978 23.042 26.4978 23.042 25.3458 21.89 25.3458"></polygon>
                <polygon id="Fill-515" fill="#0055AA" points="23.042 26.4978 24.193 26.4978 24.193 25.3458 23.042 25.3458"></polygon>
                <polygon id="Fill-516" fill="#0055AA" points="24.194 25.3458 25.346 25.3458 25.346 24.1938 24.194 24.1938"></polygon>
                <polygon id="Fill-517" fill="#0055AA" points="25.346 24.1928 26.498 24.1928 26.498 23.0418 25.346 23.0418"></polygon>
            </g>
        </g>
    </g>
</svg>