<?xml version="1.0" encoding="UTF-8" standalone="no"?>
<svg width="27px" height="27px" viewBox="0 0 27 27" version="1.1" xmlns="http://www.w3.org/2000/svg" xmlns:xlink="http://www.w3.org/1999/xlink">
    <!-- Generator: Sketch 46 (44423) - http://www.bohemiancoding.com/sketch -->
    <title>Page 1</title>
    <desc>Created with Sketch.</desc>
    <defs></defs>
    <g id="Page-1" stroke="none" stroke-width="1" fill="none" fill-rule="evenodd">
        <g id="HOME" transform="translate(-723.000000, -695.000000)">
            <g id="Page-1" transform="translate(723.000000, 695.000000)">
                <polygon id="Fill-1" fill="#5044FA" points="1.153 2.3038 2.304 2.3038 2.304 1.1528 1.153 1.1528"></polygon>
                <polygon id="Fill-2" fill="#5044FA" points="2.304 2.3038 3.456 2.3038 3.456 1.1528 2.304 1.1528"></polygon>
                <polygon id="Fill-3" fill="#5044FA" points="3.456 2.3038 4.608 2.3038 4.608 1.1528 3.456 1.1528"></polygon>
                <polygon id="Fill-4" fill="#5044FA" points="4.609 2.3038 5.761 2.3038 5.761 1.1528 4.609 1.1528"></polygon>
                <polygon id="Fill-5" fill="#5044FA" points="5.761 2.3038 6.912 2.3038 6.912 1.1528 5.761 1.1528"></polygon>
                <polygon id="Fill-6" fill="#5044FA" points="6.912 2.3038 8.064 2.3038 8.064 1.1528 6.912 1.1528"></polygon>
                <polygon id="Fill-7" fill="#5044FA" points="8.065 2.3038 9.217 2.3038 9.217 1.1528 8.065 1.1528"></polygon>
                <polygon id="Fill-8" fill="#5044FA" points="9.217 2.3038 10.369 2.3038 10.369 1.1528 9.217 1.1528"></polygon>
                <polygon id="Fill-9" fill="#5044FA" points="10.37 2.3038 11.521 2.3038 11.521 1.1528 10.37 1.1528"></polygon>
                <polygon id="Fill-10" fill="#5044FA" points="11.521 2.3038 12.673 2.3038 12.673 1.1528 11.521 1.1528"></polygon>
                <polygon id="Fill-11" fill="#5044FA" points="12.673 2.3038 13.825 2.3038 13.825 1.1528 12.673 1.1528"></polygon>
                <polygon id="Fill-12" fill="#5044FA" points="13.826 2.3038 14.977 2.3038 14.977 1.1528 13.826 1.1528"></polygon>
                <polygon id="Fill-13" fill="#5044FA" points="14.977 2.3038 16.129 2.3038 16.129 1.1528 14.977 1.1528"></polygon>
                <polygon id="Fill-14" fill="#5044FA" points="16.129 2.3038 17.281 2.3038 17.281 1.1528 16.129 1.1528"></polygon>
                <polygon id="Fill-15" fill="#5044FA" points="17.282 2.3038 18.434 2.3038 18.434 1.1528 17.282 1.1528"></polygon>
                <polygon id="Fill-16" fill="#5044FA" points="18.434 2.3038 19.585 2.3038 19.585 1.1528 18.434 1.1528"></polygon>
                <polygon id="Fill-17" fill="#5044FA" points="19.585 2.3038 20.737 2.3038 20.737 1.1528 19.585 1.1528"></polygon>
                <polygon id="Fill-18" fill="#5044FA" points="20.738 2.3038 21.89 2.3038 21.89 1.1528 20.738 1.1528"></polygon>
                <polygon id="Fill-19" fill="#5044FA" points="21.89 2.3038 23.042 2.3038 23.042 1.1528 21.89 1.1528"></polygon>
                <polygon id="Fill-20" fill="#5044FA" points="23.042 2.3038 24.193 2.3038 24.193 1.1528 23.042 1.1528"></polygon>
                <polygon id="Fill-21" fill="#5044FA" points="2.304 1.1518 3.456 1.1518 3.456 -0.0002 2.304 -0.0002"></polygon>
                <polygon id="Fill-22" fill="#5044FA" points="3.456 1.1518 4.608 1.1518 4.608 -0.0002 3.456 -0.0002"></polygon>
                <polygon id="Fill-23" fill="#5044FA" points="4.608 1.1518 5.761 1.1518 5.761 -0.0002 4.608 -0.0002"></polygon>
                <polygon id="Fill-24" fill="#5044FA" points="5.761 1.1518 6.912 1.1518 6.912 -0.0002 5.761 -0.0002"></polygon>
                <polygon id="Fill-25" fill="#5044FA" points="6.912 1.1518 8.064 1.1518 8.064 -0.0002 6.912 -0.0002"></polygon>
                <polygon id="Fill-26" fill="#5044FA" points="8.064 1.1518 9.217 1.1518 9.217 -0.0002 8.064 -0.0002"></polygon>
                <polygon id="Fill-27" fill="#5044FA" points="9.217 1.1518 10.369 1.1518 10.369 -0.0002 9.217 -0.0002"></polygon>
                <polygon id="Fill-28" fill="#5044FA" points="10.369 1.1518 11.521 1.1518 11.521 -0.0002 10.369 -0.0002"></polygon>
                <polygon id="Fill-29" fill="#5044FA" points="11.521 1.1518 12.673 1.1518 12.673 -0.0002 11.521 -0.0002"></polygon>
                <polygon id="Fill-30" fill="#5044FA" points="12.673 1.1518 13.825 1.1518 13.825 -0.0002 12.673 -0.0002"></polygon>
                <polygon id="Fill-31" fill="#5044FA" points="13.825 1.1518 14.977 1.1518 14.977 -0.0002 13.825 -0.0002"></polygon>
                <polygon id="Fill-32" fill="#5044FA" points="14.977 1.1518 16.129 1.1518 16.129 -0.0002 14.977 -0.0002"></polygon>
                <polygon id="Fill-33" fill="#5044FA" points="16.129 1.1518 17.281 1.1518 17.281 -0.0002 16.129 -0.0002"></polygon>
                <polygon id="Fill-34" fill="#5044FA" points="17.281 1.1518 18.434 1.1518 18.434 -0.0002 17.281 -0.0002"></polygon>
                <polygon id="Fill-35" fill="#5044FA" points="18.434 1.1518 19.585 1.1518 19.585 -0.0002 18.434 -0.0002"></polygon>
                <polygon id="Fill-36" fill="#5044FA" points="19.585 1.1518 20.737 1.1518 20.737 -0.0002 19.585 -0.0002"></polygon>
                <polygon id="Fill-37" fill="#5044FA" points="20.737 1.1518 21.89 1.1518 21.89 -0.0002 20.737 -0.0002"></polygon>
                <polygon id="Fill-38" fill="#5044FA" points="21.89 1.1518 23.042 1.1518 23.042 -0.0002 21.89 -0.0002"></polygon>
                <polygon id="Fill-39" fill="#5044FA" points="23.042 1.1518 24.194 1.1518 24.194 -0.0002 23.042 -0.0002"></polygon>
                <polygon id="Fill-40" fill="#5044FA" points="24.194 2.3038 25.346 2.3038 25.346 1.1528 24.194 1.1528"></polygon>
                <polygon id="Fill-41" fill="#5044FA" points="1.153 3.4558 2.304 3.4558 2.304 2.3038 1.153 2.3038"></polygon>
                <polygon id="Fill-42" fill="#5044FA" points="0 3.4558 1.152 3.4558 1.152 2.3038 0 2.3038"></polygon>
                <polygon id="Fill-43" fill="#5044FA" points="2.304 3.4558 3.456 3.4558 3.456 2.3038 2.304 2.3038"></polygon>
                <polygon id="Fill-44" fill="#5044FA" points="3.456 3.4558 4.608 3.4558 4.608 2.3038 3.456 2.3038"></polygon>
                <polygon id="Fill-45" fill="#FFFFFF" points="4.609 3.4558 5.761 3.4558 5.761 2.3038 4.609 2.3038"></polygon>
                <polygon id="Fill-46" fill="#FFFFFF" points="5.761 3.4558 6.912 3.4558 6.912 2.3038 5.761 2.3038"></polygon>
                <polygon id="Fill-47" fill="#FFFFFF" points="6.912 3.4558 8.064 3.4558 8.064 2.3038 6.912 2.3038"></polygon>
                <polygon id="Fill-48" fill="#FFFFFF" points="8.065 3.4558 9.217 3.4558 9.217 2.3038 8.065 2.3038"></polygon>
                <polygon id="Fill-49" fill="#FFFFFF" points="9.217 3.4558 10.369 3.4558 10.369 2.3038 9.217 2.3038"></polygon>
                <polygon id="Fill-50" fill="#FFFFFF" points="10.37 3.4558 11.521 3.4558 11.521 2.3038 10.37 2.3038"></polygon>
                <polygon id="Fill-51" fill="#FFFFFF" points="11.521 3.4558 12.673 3.4558 12.673 2.3038 11.521 2.3038"></polygon>
                <polygon id="Fill-52" fill="#FFFFFF" points="12.673 3.4558 13.825 3.4558 13.825 2.3038 12.673 2.3038"></polygon>
                <polygon id="Fill-53" fill="#FFFFFF" points="13.826 3.4558 14.977 3.4558 14.977 2.3038 13.826 2.3038"></polygon>
                <polygon id="Fill-54" fill="#FFFFFF" points="14.977 3.4558 16.129 3.4558 16.129 2.3038 14.977 2.3038"></polygon>
                <polygon id="Fill-55" fill="#FFFFFF" points="16.129 3.4558 17.281 3.4558 17.281 2.3038 16.129 2.3038"></polygon>
                <polygon id="Fill-56" fill="#FFFFFF" points="17.282 3.4558 18.434 3.4558 18.434 2.3038 17.282 2.3038"></polygon>
                <polygon id="Fill-57" fill="#FFFFFF" points="18.434 3.4558 19.585 3.4558 19.585 2.3038 18.434 2.3038"></polygon>
                <polygon id="Fill-58" fill="#FFFFFF" points="19.585 3.4558 20.737 3.4558 20.737 2.3038 19.585 2.3038"></polygon>
                <polygon id="Fill-59" fill="#FFFFFF" points="20.738 3.4558 21.89 3.4558 21.89 2.3038 20.738 2.3038"></polygon>
                <polygon id="Fill-60" fill="#5044FA" points="21.89 3.4558 23.042 3.4558 23.042 2.3038 21.89 2.3038"></polygon>
                <polygon id="Fill-61" fill="#5044FA" points="23.042 3.4558 24.193 3.4558 24.193 2.3038 23.042 2.3038"></polygon>
                <polygon id="Fill-62" fill="#5044FA" points="24.194 3.4558 25.346 3.4558 25.346 2.3038 24.194 2.3038"></polygon>
                <polygon id="Fill-63" fill="#5044FA" points="25.346 3.4558 26.498 3.4558 26.498 2.3038 25.346 2.3038"></polygon>
                <polygon id="Fill-64" fill="#7646FA" points="1.153 4.6088 2.304 4.6088 2.304 3.4568 1.153 3.4568"></polygon>
                <polygon id="Fill-65" fill="#5044FA" points="0 4.6078 1.152 4.6078 1.152 3.4558 0 3.4558"></polygon>
                <polygon id="Fill-66" fill="#5044FA" points="2.304 4.6088 3.456 4.6088 3.456 3.4568 2.304 3.4568"></polygon>
                <polygon id="Fill-67" fill="#FFFFFF" points="3.456 4.6088 4.608 4.6088 4.608 3.4568 3.456 3.4568"></polygon>
                <polygon id="Fill-68" fill="#9E41FA" points="4.609 4.6088 5.761 4.6088 5.761 3.4568 4.609 3.4568"></polygon>
                <polygon id="Fill-69" fill="#9E41FA" points="5.761 4.6088 6.912 4.6088 6.912 3.4568 5.761 3.4568"></polygon>
                <polygon id="Fill-70" fill="#9E41FA" points="6.912 4.6088 8.064 4.6088 8.064 3.4568 6.912 3.4568"></polygon>
                <polygon id="Fill-71" fill="#9E41FA" points="8.065 4.6088 9.217 4.6088 9.217 3.4568 8.065 3.4568"></polygon>
                <polygon id="Fill-72" fill="#9E41FA" points="9.217 4.6088 10.369 4.6088 10.369 3.4568 9.217 3.4568"></polygon>
                <polygon id="Fill-73" fill="#9E41FA" points="10.37 4.6088 11.521 4.6088 11.521 3.4568 10.37 3.4568"></polygon>
                <polygon id="Fill-74" fill="#9E41FA" points="11.521 4.6088 12.673 4.6088 12.673 3.4568 11.521 3.4568"></polygon>
                <polygon id="Fill-75" fill="#9E41FA" points="12.673 4.6088 13.825 4.6088 13.825 3.4568 12.673 3.4568"></polygon>
                <polygon id="Fill-76" fill="#9E41FA" points="13.826 4.6088 14.977 4.6088 14.977 3.4568 13.826 3.4568"></polygon>
                <polygon id="Fill-77" fill="#9E41FA" points="14.977 4.6088 16.129 4.6088 16.129 3.4568 14.977 3.4568"></polygon>
                <polygon id="Fill-78" fill="#9E41FA" points="16.129 4.6088 17.281 4.6088 17.281 3.4568 16.129 3.4568"></polygon>
                <polygon id="Fill-79" fill="#9E41FA" points="17.282 4.6088 18.434 4.6088 18.434 3.4568 17.282 3.4568"></polygon>
                <polygon id="Fill-80" fill="#9E41FA" points="18.434 4.6088 19.585 4.6088 19.585 3.4568 18.434 3.4568"></polygon>
                <polygon id="Fill-81" fill="#9E41FA" points="19.585 4.6088 20.737 4.6088 20.737 3.4568 19.585 3.4568"></polygon>
                <polygon id="Fill-82" fill="#9E41FA" points="20.738 4.6088 21.89 4.6088 21.89 3.4568 20.738 3.4568"></polygon>
                <polygon id="Fill-83" fill="#FFFFFF" points="21.89 4.6088 23.042 4.6088 23.042 3.4568 21.89 3.4568"></polygon>
                <polygon id="Fill-84" fill="#5044FA" points="23.042 4.6088 24.193 4.6088 24.193 3.4568 23.042 3.4568"></polygon>
                <polygon id="Fill-85" fill="#5044FA" points="24.194 4.6088 25.346 4.6088 25.346 3.4568 24.194 3.4568"></polygon>
                <polygon id="Fill-86" fill="#5044FA" points="25.346 4.6078 26.498 4.6078 26.498 3.4558 25.346 3.4558"></polygon>
                <polygon id="Fill-87" fill="#9E41FA" points="1.153 5.7608 2.304 5.7608 2.304 4.6088 1.153 4.6088"></polygon>
                <polygon id="Fill-88" fill="#7646FA" points="0 5.7608 1.152 5.7608 1.152 4.6078 0 4.6078"></polygon>
                <polygon id="Fill-89" fill="#FFFFFF" points="2.304 5.7608 3.456 5.7608 3.456 4.6088 2.304 4.6088"></polygon>
                <polygon id="Fill-90" fill="#9E41FA" points="3.456 5.7608 4.608 5.7608 4.608 4.6088 3.456 4.6088"></polygon>
                <polygon id="Fill-91" fill="#9E41FA" points="4.609 5.7608 5.761 5.7608 5.761 4.6088 4.609 4.6088"></polygon>
                <polygon id="Fill-92" fill="#9E41FA" points="5.761 5.7608 6.912 5.7608 6.912 4.6088 5.761 4.6088"></polygon>
                <polygon id="Fill-93" fill="#9E41FA" points="6.912 5.7608 8.064 5.7608 8.064 4.6088 6.912 4.6088"></polygon>
                <polygon id="Fill-94" fill="#9E41FA" points="8.065 5.7608 9.217 5.7608 9.217 4.6088 8.065 4.6088"></polygon>
                <polygon id="Fill-95" fill="#D937FA" points="9.217 5.7608 10.369 5.7608 10.369 4.6088 9.217 4.6088"></polygon>
                <polygon id="Fill-96" fill="#D937FA" points="10.37 5.7608 11.521 5.7608 11.521 4.6088 10.37 4.6088"></polygon>
                <polygon id="Fill-97" fill="#D937FA" points="11.521 5.7608 12.673 5.7608 12.673 4.6088 11.521 4.6088"></polygon>
                <polygon id="Fill-98" fill="#D937FA" points="12.673 5.7608 13.825 5.7608 13.825 4.6088 12.673 4.6088"></polygon>
                <polygon id="Fill-99" fill="#D937FA" points="13.826 5.7608 14.977 5.7608 14.977 4.6088 13.826 4.6088"></polygon>
                <polygon id="Fill-100" fill="#D937FA" points="14.977 5.7608 16.129 5.7608 16.129 4.6088 14.977 4.6088"></polygon>
                <polygon id="Fill-101" fill="#D937FA" points="16.129 5.7608 17.281 5.7608 17.281 4.6088 16.129 4.6088"></polygon>
                <polygon id="Fill-102" fill="#9E41FA" points="17.282 5.7608 18.434 5.7608 18.434 4.6088 17.282 4.6088"></polygon>
                <polygon id="Fill-103" fill="#9E41FA" points="18.434 5.7608 19.585 5.7608 19.585 4.6088 18.434 4.6088"></polygon>
                <polygon id="Fill-104" fill="#FFFFFF" points="19.585 5.7608 20.737 5.7608 20.737 4.6088 19.585 4.6088"></polygon>
                <polygon id="Fill-105" fill="#9E41FA" points="20.738 5.7608 21.89 5.7608 21.89 4.6088 20.738 4.6088"></polygon>
                <polygon id="Fill-106" fill="#9E41FA" points="21.89 5.7608 23.042 5.7608 23.042 4.6088 21.89 4.6088"></polygon>
                <polygon id="Fill-107" fill="#FFFFFF" points="23.042 5.7608 24.193 5.7608 24.193 4.6088 23.042 4.6088"></polygon>
                <polygon id="Fill-108" fill="#7646FA" points="24.194 5.7608 25.346 5.7608 25.346 4.6088 24.194 4.6088"></polygon>
                <polygon id="Fill-109" fill="#7646FA" points="25.346 5.7608 26.498 5.7608 26.498 4.6078 25.346 4.6078"></polygon>
                <polygon id="Fill-110" fill="#9E41FA" points="1.153 6.9118 2.304 6.9118 2.304 5.7608 1.153 5.7608"></polygon>
                <polygon id="Fill-111" fill="#9E41FA" points="0 6.9118 1.152 6.9118 1.152 5.7608 0 5.7608"></polygon>
                <polygon id="Fill-112" fill="#FFFFFF" points="2.304 6.9118 3.456 6.9118 3.456 5.7608 2.304 5.7608"></polygon>
                <polygon id="Fill-113" fill="#9E41FA" points="3.456 6.9118 4.608 6.9118 4.608 5.7608 3.456 5.7608"></polygon>
                <polygon id="Fill-114" fill="#9E41FA" points="4.609 6.9118 5.761 6.9118 5.761 5.7608 4.609 5.7608"></polygon>
                <polygon id="Fill-115" fill="#9E41FA" points="5.761 6.9118 6.912 6.9118 6.912 5.7608 5.761 5.7608"></polygon>
                <polygon id="Fill-116" fill="#D937FA" points="6.912 6.9118 8.064 6.9118 8.064 5.7608 6.912 5.7608"></polygon>
                <polygon id="Fill-117" fill="#D937FA" points="8.065 6.9118 9.217 6.9118 9.217 5.7608 8.065 5.7608"></polygon>
                <polygon id="Fill-118" fill="#D937FA" points="9.217 6.9118 10.369 6.9118 10.369 5.7608 9.217 5.7608"></polygon>
                <polygon id="Fill-119" fill="#D937FA" points="10.37 6.9118 11.521 6.9118 11.521 5.7608 10.37 5.7608"></polygon>
                <polygon id="Fill-120" fill="#D937FA" points="11.521 6.9118 12.673 6.9118 12.673 5.7608 11.521 5.7608"></polygon>
                <polygon id="Fill-121" fill="#D937FA" points="12.673 6.9118 13.825 6.9118 13.825 5.7608 12.673 5.7608"></polygon>
                <polygon id="Fill-122" fill="#D937FA" points="13.826 6.9118 14.977 6.9118 14.977 5.7608 13.826 5.7608"></polygon>
                <polygon id="Fill-123" fill="#D937FA" points="14.977 6.9118 16.129 6.9118 16.129 5.7608 14.977 5.7608"></polygon>
                <polygon id="Fill-124" fill="#D937FA" points="16.129 6.9118 17.281 6.9118 17.281 5.7608 16.129 5.7608"></polygon>
                <polygon id="Fill-125" fill="#C13CFA" points="17.282 6.9118 18.434 6.9118 18.434 5.7608 17.282 5.7608"></polygon>
                <polygon id="Fill-126" fill="#FFFFFF" points="18.434 6.9118 19.585 6.9118 19.585 5.7608 18.434 5.7608"></polygon>
                <polygon id="Fill-127" fill="#FFFFFF" points="19.585 6.9118 20.737 6.9118 20.737 5.7608 19.585 5.7608"></polygon>
                <polygon id="Fill-128" fill="#FFFFFF" points="20.738 6.9118 21.89 6.9118 21.89 5.7608 20.738 5.7608"></polygon>
                <polygon id="Fill-129" fill="#9E41FA" points="21.89 6.9118 23.042 6.9118 23.042 5.7608 21.89 5.7608"></polygon>
                <polygon id="Fill-130" fill="#FFFFFF" points="23.042 6.9118 24.193 6.9118 24.193 5.7608 23.042 5.7608"></polygon>
                <polygon id="Fill-131" fill="#9E41FA" points="24.194 6.9118 25.346 6.9118 25.346 5.7608 24.194 5.7608"></polygon>
                <polygon id="Fill-132" fill="#7646FA" points="25.346 6.9118 26.498 6.9118 26.498 5.7608 25.346 5.7608"></polygon>
                <polygon id="Fill-133" fill="#D937FA" points="1.153 8.0648 2.304 8.0648 2.304 6.9128 1.153 6.9128"></polygon>
                <polygon id="Fill-134" fill="#9E41FA" points="0 8.0638 1.152 8.0638 1.152 6.9118 0 6.9118"></polygon>
                <polygon id="Fill-135" fill="#FFFFFF" points="2.304 8.0648 3.456 8.0648 3.456 6.9128 2.304 6.9128"></polygon>
                <polygon id="Fill-136" fill="#D937FA" points="3.456 8.0648 4.608 8.0648 4.608 6.9128 3.456 6.9128"></polygon>
                <polygon id="Fill-137" fill="#D937FA" points="4.609 8.0648 5.761 8.0648 5.761 6.9128 4.609 6.9128"></polygon>
                <polygon id="Fill-138" fill="#D937FA" points="5.761 8.0648 6.912 8.0648 6.912 6.9128 5.761 6.9128"></polygon>
                <polygon id="Fill-139" fill="#D937FA" points="6.912 8.0648 8.064 8.0648 8.064 6.9128 6.912 6.9128"></polygon>
                <polygon id="Fill-140" fill="#D937FA" points="8.065 8.0648 9.217 8.0648 9.217 6.9128 8.065 6.9128"></polygon>
                <polygon id="Fill-141" fill="#D937FA" points="9.217 8.0648 10.369 8.0648 10.369 6.9128 9.217 6.9128"></polygon>
                <polygon id="Fill-142" fill="#FFFFFF" points="10.37 8.0648 11.521 8.0648 11.521 6.9128 10.37 6.9128"></polygon>
                <polygon id="Fill-143" fill="#FFFFFF" points="11.521 8.0648 12.673 8.0648 12.673 6.9128 11.521 6.9128"></polygon>
                <polygon id="Fill-144" fill="#FFFFFF" points="12.673 8.0648 13.825 8.0648 13.825 6.9128 12.673 6.9128"></polygon>
                <polygon id="Fill-145" fill="#FFFFFF" points="13.826 8.0648 14.977 8.0648 14.977 6.9128 13.826 6.9128"></polygon>
                <polygon id="Fill-146" fill="#FFFFFF" points="14.977 8.0648 16.129 8.0648 16.129 6.9128 14.977 6.9128"></polygon>
                <polygon id="Fill-147" fill="#D937FA" points="16.129 8.0648 17.281 8.0648 17.281 6.9128 16.129 6.9128"></polygon>
                <polygon id="Fill-148" fill="#D937FA" points="17.282 8.0648 18.434 8.0648 18.434 6.9128 17.282 6.9128"></polygon>
                <polygon id="Fill-149" fill="#D937FA" points="18.434 8.0648 19.585 8.0648 19.585 6.9128 18.434 6.9128"></polygon>
                <polygon id="Fill-150" fill="#FFFFFF" points="19.585 8.0648 20.737 8.0648 20.737 6.9128 19.585 6.9128"></polygon>
                <polygon id="Fill-151" fill="#D937FA" points="20.738 8.0648 21.89 8.0648 21.89 6.9128 20.738 6.9128"></polygon>
                <polygon id="Fill-152" fill="#C13CFA" points="21.89 8.0648 23.042 8.0648 23.042 6.9128 21.89 6.9128"></polygon>
                <polygon id="Fill-153" fill="#FFFFFF" points="23.042 8.0648 24.193 8.0648 24.193 6.9128 23.042 6.9128"></polygon>
                <polygon id="Fill-154" fill="#9E41FA" points="24.194 8.0648 25.346 8.0648 25.346 6.9128 24.194 6.9128"></polygon>
                <polygon id="Fill-155" fill="#9E41FA" points="25.346 8.0638 26.498 8.0638 26.498 6.9118 25.346 6.9118"></polygon>
                <polygon id="Fill-156" fill="#FA37ED" points="1.153 9.2168 2.304 9.2168 2.304 8.0648 1.153 8.0648"></polygon>
                <polygon id="Fill-157" fill="#9E41FA" points="0 9.2168 1.152 9.2168 1.152 8.0638 0 8.0638"></polygon>
                <polygon id="Fill-158" fill="#FFFFFF" points="2.304 9.2168 3.456 9.2168 3.456 8.0648 2.304 8.0648"></polygon>
                <polygon id="Fill-159" fill="#D937FA" points="3.456 9.2168 4.608 9.2168 4.608 8.0648 3.456 8.0648"></polygon>
                <polygon id="Fill-160" fill="#D937FA" points="4.609 9.2168 5.761 9.2168 5.761 8.0648 4.609 8.0648"></polygon>
                <polygon id="Fill-161" fill="#FA37ED" points="5.761 9.2168 6.912 9.2168 6.912 8.0648 5.761 8.0648"></polygon>
                <polygon id="Fill-162" fill="#FA37ED" points="6.912 9.2168 8.064 9.2168 8.064 8.0648 6.912 8.0648"></polygon>
                <polygon id="Fill-163" fill="#FA37ED" points="8.065 9.2168 9.217 9.2168 9.217 8.0648 8.065 8.0648"></polygon>
                <polygon id="Fill-164" fill="#FFFFFF" points="9.217 9.2168 10.369 9.2168 10.369 8.0648 9.217 8.0648"></polygon>
                <polygon id="Fill-165" fill="#FA37ED" points="10.37 9.2168 11.521 9.2168 11.521 8.0648 10.37 8.0648"></polygon>
                <polygon id="Fill-166" fill="#FA37ED" points="11.521 9.2168 12.673 9.2168 12.673 8.0648 11.521 8.0648"></polygon>
                <polygon id="Fill-167" fill="#FA37ED" points="12.673 9.2168 13.825 9.2168 13.825 8.0648 12.673 8.0648"></polygon>
                <polygon id="Fill-168" fill="#FA37ED" points="13.826 9.2168 14.977 9.2168 14.977 8.0648 13.826 8.0648"></polygon>
                <polygon id="Fill-169" fill="#D937FA" points="14.977 9.2168 16.129 9.2168 16.129 8.0648 14.977 8.0648"></polygon>
                <polygon id="Fill-170" fill="#FFFFFF" points="16.129 9.2168 17.281 9.2168 17.281 8.0648 16.129 8.0648"></polygon>
                <polygon id="Fill-171" fill="#D937FA" points="17.282 9.2168 18.434 9.2168 18.434 8.0648 17.282 8.0648"></polygon>
                <polygon id="Fill-172" fill="#D937FA" points="18.434 9.2168 19.585 9.2168 19.585 8.0648 18.434 8.0648"></polygon>
                <polygon id="Fill-173" fill="#D937FA" points="19.585 9.2168 20.737 9.2168 20.737 8.0648 19.585 8.0648"></polygon>
                <polygon id="Fill-174" fill="#D937FA" points="20.738 9.2168 21.89 9.2168 21.89 8.0648 20.738 8.0648"></polygon>
                <polygon id="Fill-175" fill="#D937FA" points="21.89 9.2168 23.042 9.2168 23.042 8.0648 21.89 8.0648"></polygon>
                <polygon id="Fill-176" fill="#FFFFFF" points="23.042 9.2168 24.193 9.2168 24.193 8.0648 23.042 8.0648"></polygon>
                <polygon id="Fill-177" fill="#C13CFA" points="24.194 9.2168 25.346 9.2168 25.346 8.0648 24.194 8.0648"></polygon>
                <polygon id="Fill-178" fill="#C13CFA" points="25.346 9.2168 26.498 9.2168 26.498 8.0638 25.346 8.0638"></polygon>
                <polygon id="Fill-179" fill="#FA34C5" points="1.153 10.3688 2.304 10.3688 2.304 9.2168 1.153 9.2168"></polygon>
                <polygon id="Fill-180" fill="#FA37ED" points="0 10.3688 1.152 10.3688 1.152 9.2168 0 9.2168"></polygon>
                <polygon id="Fill-181" fill="#FFFFFF" points="2.304 10.3688 3.456 10.3688 3.456 9.2168 2.304 9.2168"></polygon>
                <polygon id="Fill-182" fill="#FA37ED" points="3.456 10.3688 4.608 10.3688 4.608 9.2168 3.456 9.2168"></polygon>
                <polygon id="Fill-183" fill="#FA34C5" points="4.609 10.3688 5.761 10.3688 5.761 9.2168 4.609 9.2168"></polygon>
                <polygon id="Fill-184" fill="#FA34C5" points="5.761 10.3688 6.912 10.3688 6.912 9.2168 5.761 9.2168"></polygon>
                <polygon id="Fill-185" fill="#FA34C5" points="6.912 10.3688 8.064 10.3688 8.064 9.2168 6.912 9.2168"></polygon>
                <polygon id="Fill-186" fill="#FFFFFF" points="8.065 10.3688 9.217 10.3688 9.217 9.2168 8.065 9.2168"></polygon>
                <polygon id="Fill-187" fill="#FA34C5" points="9.217 10.3688 10.369 10.3688 10.369 9.2168 9.217 9.2168"></polygon>
                <polygon id="Fill-188" fill="#FA34C5" points="10.37 10.3688 11.521 10.3688 11.521 9.2168 10.37 9.2168"></polygon>
                <polygon id="Fill-189" fill="#FA34C5" points="11.521 10.3688 12.673 10.3688 12.673 9.2168 11.521 9.2168"></polygon>
                <polygon id="Fill-190" fill="#FA34C5" points="12.673 10.3688 13.825 10.3688 13.825 9.2168 12.673 9.2168"></polygon>
                <polygon id="Fill-191" fill="#FA37ED" points="13.826 10.3688 14.977 10.3688 14.977 9.2168 13.826 9.2168"></polygon>
                <polygon id="Fill-192" fill="#FA37ED" points="14.977 10.3688 16.129 10.3688 16.129 9.2168 14.977 9.2168"></polygon>
                <polygon id="Fill-193" fill="#D937FA" points="16.129 10.3688 17.281 10.3688 17.281 9.2168 16.129 9.2168"></polygon>
                <polygon id="Fill-194" fill="#FFFFFF" points="17.282 10.3688 18.434 10.3688 18.434 9.2168 17.282 9.2168"></polygon>
                <polygon id="Fill-195" fill="#D937FA" points="18.434 10.3688 19.585 10.3688 19.585 9.2168 18.434 9.2168"></polygon>
                <polygon id="Fill-196" fill="#D937FA" points="19.585 10.3688 20.737 10.3688 20.737 9.2168 19.585 9.2168"></polygon>
                <polygon id="Fill-197" fill="#D937FA" points="20.738 10.3688 21.89 10.3688 21.89 9.2168 20.738 9.2168"></polygon>
                <polygon id="Fill-198" fill="#D937FA" points="21.89 10.3688 23.042 10.3688 23.042 9.2168 21.89 9.2168"></polygon>
                <polygon id="Fill-199" fill="#FFFFFF" points="23.042 10.3688 24.193 10.3688 24.193 9.2168 23.042 9.2168"></polygon>
                <polygon id="Fill-200" fill="#D937FA" points="24.194 10.3688 25.346 10.3688 25.346 9.2168 24.194 9.2168"></polygon>
                <polygon id="Fill-201" fill="#C13CFA" points="25.346 10.3688 26.498 10.3688 26.498 9.2168 25.346 9.2168"></polygon>
                <polygon id="Fill-202" fill="#FA34C5" points="1.153 11.5208 2.304 11.5208 2.304 10.3698 1.153 10.3698"></polygon>
                <polygon id="Fill-203" fill="#FA34C5" points="0 11.5208 1.152 11.5208 1.152 10.3688 0 10.3688"></polygon>
                <polygon id="Fill-204" fill="#FFFFFF" points="2.304 11.5208 3.456 11.5208 3.456 10.3698 2.304 10.3698"></polygon>
                <polygon id="Fill-205" fill="#FA34C5" points="3.456 11.5208 4.608 11.5208 4.608 10.3698 3.456 10.3698"></polygon>
                <polygon id="Fill-206" fill="#FA3296" points="4.609 11.5208 5.761 11.5208 5.761 10.3698 4.609 10.3698"></polygon>
                <polygon id="Fill-207" fill="#FA34C5" points="5.761 11.5208 6.912 11.5208 6.912 10.3698 5.761 10.3698"></polygon>
                <polygon id="Fill-208" fill="#FFFFFF" points="6.912 11.5208 8.064 11.5208 8.064 10.3698 6.912 10.3698"></polygon>
                <polygon id="Fill-209" fill="#FA34C5" points="8.065 11.5208 9.217 11.5208 9.217 10.3698 8.065 10.3698"></polygon>
                <polygon id="Fill-210" fill="#FA34C5" points="9.217 11.5208 10.369 11.5208 10.369 10.3698 9.217 10.3698"></polygon>
                <polygon id="Fill-211" fill="#FA34C5" points="10.37 11.5208 11.521 11.5208 11.521 10.3698 10.37 10.3698"></polygon>
                <polygon id="Fill-212" fill="#FA34C5" points="11.521 11.5208 12.673 11.5208 12.673 10.3698 11.521 10.3698"></polygon>
                <polygon id="Fill-213" fill="#FA34C5" points="12.673 11.5208 13.825 11.5208 13.825 10.3698 12.673 10.3698"></polygon>
                <polygon id="Fill-214" fill="#FA34C5" points="13.826 11.5208 14.977 11.5208 14.977 10.3698 13.826 10.3698"></polygon>
                <polygon id="Fill-215" fill="#FA34C5" points="14.977 11.5208 16.129 11.5208 16.129 10.3698 14.977 10.3698"></polygon>
                <polygon id="Fill-216" fill="#FA34C5" points="16.129 11.5208 17.281 11.5208 17.281 10.3698 16.129 10.3698"></polygon>
                <polygon id="Fill-217" fill="#D937FA" points="17.282 11.5208 18.434 11.5208 18.434 10.3698 17.282 10.3698"></polygon>
                <polygon id="Fill-218" fill="#FFFFFF" points="18.434 11.5208 19.585 11.5208 19.585 10.3698 18.434 10.3698"></polygon>
                <polygon id="Fill-219" fill="#FA37ED" points="19.585 11.5208 20.737 11.5208 20.737 10.3698 19.585 10.3698"></polygon>
                <polygon id="Fill-220" fill="#D937FA" points="20.738 11.5208 21.89 11.5208 21.89 10.3698 20.738 10.3698"></polygon>
                <polygon id="Fill-221" fill="#D937FA" points="21.89 11.5208 23.042 11.5208 23.042 10.3698 21.89 10.3698"></polygon>
                <polygon id="Fill-222" fill="#FFFFFF" points="23.042 11.5208 24.193 11.5208 24.193 10.3698 23.042 10.3698"></polygon>
                <polygon id="Fill-223" fill="#D937FA" points="24.194 11.5208 25.346 11.5208 25.346 10.3698 24.194 10.3698"></polygon>
                <polygon id="Fill-224" fill="#D937FA" points="25.346 11.5208 26.498 11.5208 26.498 10.3688 25.346 10.3688"></polygon>
                <polygon id="Fill-225" fill="#FA3296" points="1.153 12.6728 2.304 12.6728 2.304 11.5208 1.153 11.5208"></polygon>
                <polygon id="Fill-226" fill="#FA34C5" points="0 12.6728 1.152 12.6728 1.152 11.5208 0 11.5208"></polygon>
                <polygon id="Fill-227" fill="#FFFFFF" points="2.304 12.6728 3.456 12.6728 3.456 11.5208 2.304 11.5208"></polygon>
                <polygon id="Fill-228" fill="#FA3296" points="3.456 12.6728 4.608 12.6728 4.608 11.5208 3.456 11.5208"></polygon>
                <polygon id="Fill-229" fill="#FA3296" points="4.609 12.6728 5.761 12.6728 5.761 11.5208 4.609 11.5208"></polygon>
                <polygon id="Fill-230" fill="#FA3296" points="5.761 12.6728 6.912 12.6728 6.912 11.5208 5.761 11.5208"></polygon>
                <polygon id="Fill-231" fill="#FFFFFF" points="6.912 12.6728 8.064 12.6728 8.064 11.5208 6.912 11.5208"></polygon>
                <polygon id="Fill-232" fill="#FA3296" points="8.065 12.6728 9.217 12.6728 9.217 11.5208 8.065 11.5208"></polygon>
                <polygon id="Fill-233" fill="#FA3296" points="9.217 12.6728 10.369 12.6728 10.369 11.5208 9.217 11.5208"></polygon>
                <polygon id="Fill-234" fill="#FA3296" points="10.37 12.6728 11.521 12.6728 11.521 11.5208 10.37 11.5208"></polygon>
                <polygon id="Fill-235" fill="#FA3296" points="11.521 12.6728 12.673 12.6728 12.673 11.5208 11.521 11.5208"></polygon>
                <polygon id="Fill-236" fill="#FA3296" points="12.673 12.6728 13.825 12.6728 13.825 11.5208 12.673 11.5208"></polygon>
                <polygon id="Fill-237" fill="#FA34C5" points="13.826 12.6728 14.977 12.6728 14.977 11.5208 13.826 11.5208"></polygon>
                <polygon id="Fill-238" fill="#FA34C5" points="14.977 12.6728 16.129 12.6728 16.129 11.5208 14.977 11.5208"></polygon>
                <polygon id="Fill-239" fill="#FA34C5" points="16.129 12.6728 17.281 12.6728 17.281 11.5208 16.129 11.5208"></polygon>
                <polygon id="Fill-240" fill="#FA34C5" points="17.282 12.6728 18.434 12.6728 18.434 11.5208 17.282 11.5208"></polygon>
                <polygon id="Fill-241" fill="#FFFFFF" points="18.434 12.6728 19.585 12.6728 19.585 11.5208 18.434 11.5208"></polygon>
                <polygon id="Fill-242" fill="#FA34C5" points="19.585 12.6728 20.737 12.6728 20.737 11.5208 19.585 11.5208"></polygon>
                <polygon id="Fill-243" fill="#FA37ED" points="20.738 12.6728 21.89 12.6728 21.89 11.5208 20.738 11.5208"></polygon>
                <polygon id="Fill-244" fill="#FA37ED" points="21.89 12.6728 23.042 12.6728 23.042 11.5208 21.89 11.5208"></polygon>
                <polygon id="Fill-245" fill="#FFFFFF" points="23.042 12.6728 24.193 12.6728 24.193 11.5208 23.042 11.5208"></polygon>
                <polygon id="Fill-246" fill="#D937FA" points="24.194 12.6728 25.346 12.6728 25.346 11.5208 24.194 11.5208"></polygon>
                <polygon id="Fill-247" fill="#D937FA" points="25.346 12.6728 26.498 12.6728 26.498 11.5208 25.346 11.5208"></polygon>
                <polygon id="Fill-248" fill="#FA3296" points="1.153 13.8248 2.304 13.8248 2.304 12.6728 1.153 12.6728"></polygon>
                <polygon id="Fill-249" fill="#FA3296" points="0 13.8248 1.152 13.8248 1.152 12.6728 0 12.6728"></polygon>
                <polygon id="Fill-250" fill="#FFFFFF" points="2.304 13.8248 3.456 13.8248 3.456 12.6728 2.304 12.6728"></polygon>
                <polygon id="Fill-251" fill="#FA3296" points="3.456 13.8248 4.608 13.8248 4.608 12.6728 3.456 12.6728"></polygon>
                <polygon id="Fill-252" fill="#FA3296" points="4.609 13.8248 5.761 13.8248 5.761 12.6728 4.609 12.6728"></polygon>
                <polygon id="Fill-253" fill="#FA3296" points="5.761 13.8248 6.912 13.8248 6.912 12.6728 5.761 12.6728"></polygon>
                <polygon id="Fill-254" fill="#FFFFFF" points="6.912 13.8248 8.064 13.8248 8.064 12.6728 6.912 12.6728"></polygon>
                <polygon id="Fill-255" fill="#FA482D" points="8.065 13.8248 9.217 13.8248 9.217 12.6728 8.065 12.6728"></polygon>
                <polygon id="Fill-256" fill="#FA482D" points="9.217 13.8248 10.369 13.8248 10.369 12.6728 9.217 12.6728"></polygon>
                <polygon id="Fill-257" fill="#FA482D" points="10.37 13.8248 11.521 13.8248 11.521 12.6728 10.37 12.6728"></polygon>
                <polygon id="Fill-258" fill="#FA482D" points="11.521 13.8248 12.673 13.8248 12.673 12.6728 11.521 12.6728"></polygon>
                <polygon id="Fill-259" fill="#FA3296" points="12.673 13.8248 13.825 13.8248 13.825 12.6728 12.673 12.6728"></polygon>
                <polygon id="Fill-260" fill="#FA3296" points="13.826 13.8248 14.977 13.8248 14.977 12.6728 13.826 12.6728"></polygon>
                <polygon id="Fill-261" fill="#FA3296" points="14.977 13.8248 16.129 13.8248 16.129 12.6728 14.977 12.6728"></polygon>
                <polygon id="Fill-262" fill="#FA3296" points="16.129 13.8248 17.281 13.8248 17.281 12.6728 16.129 12.6728"></polygon>
                <polygon id="Fill-263" fill="#FA3296" points="17.282 13.8248 18.434 13.8248 18.434 12.6728 17.282 12.6728"></polygon>
                <polygon id="Fill-264" fill="#FFFFFF" points="18.434 13.8248 19.585 13.8248 19.585 12.6728 18.434 12.6728"></polygon>
                <polygon id="Fill-265" fill="#FA34C5" points="19.585 13.8248 20.737 13.8248 20.737 12.6728 19.585 12.6728"></polygon>
                <polygon id="Fill-266" fill="#FA34C5" points="20.738 13.8248 21.89 13.8248 21.89 12.6728 20.738 12.6728"></polygon>
                <polygon id="Fill-267" fill="#FA37ED" points="21.89 13.8248 23.042 13.8248 23.042 12.6728 21.89 12.6728"></polygon>
                <polygon id="Fill-268" fill="#FFFFFF" points="23.042 13.8248 24.193 13.8248 24.193 12.6728 23.042 12.6728"></polygon>
                <polygon id="Fill-269" fill="#FA37ED" points="24.194 13.8248 25.346 13.8248 25.346 12.6728 24.194 12.6728"></polygon>
                <polygon id="Fill-270" fill="#FA37ED" points="25.346 13.8248 26.498 13.8248 26.498 12.6728 25.346 12.6728"></polygon>
                <polygon id="Fill-271" fill="#FA3296" points="1.153 14.9768 2.304 14.9768 2.304 13.8258 1.153 13.8258"></polygon>
                <polygon id="Fill-272" fill="#FA3296" points="0 14.9768 1.152 14.9768 1.152 13.8248 0 13.8248"></polygon>
                <polygon id="Fill-273" fill="#FFFFFF" points="2.304 14.9768 3.456 14.9768 3.456 13.8258 2.304 13.8258"></polygon>
                <polygon id="Fill-274" fill="#FA3296" points="3.456 14.9768 4.608 14.9768 4.608 13.8258 3.456 13.8258"></polygon>
                <polygon id="Fill-275" fill="#FA3296" points="4.609 14.9768 5.761 14.9768 5.761 13.8258 4.609 13.8258"></polygon>
                <polygon id="Fill-276" fill="#FA482D" points="5.761 14.9768 6.912 14.9768 6.912 13.8258 5.761 13.8258"></polygon>
                <polygon id="Fill-277" fill="#FFFFFF" points="6.912 14.9768 8.064 14.9768 8.064 13.8258 6.912 13.8258"></polygon>
                <polygon id="Fill-278" fill="#FA482D" points="8.065 14.9768 9.217 14.9768 9.217 13.8258 8.065 13.8258"></polygon>
                <polygon id="Fill-279" fill="#FA482D" points="9.217 14.9768 10.369 14.9768 10.369 13.8258 9.217 13.8258"></polygon>
                <polygon id="Fill-280" fill="#FA482D" points="10.37 14.9768 11.521 14.9768 11.521 13.8258 10.37 13.8258"></polygon>
                <polygon id="Fill-281" fill="#FA482D" points="11.521 14.9768 12.673 14.9768 12.673 13.8258 11.521 13.8258"></polygon>
                <polygon id="Fill-282" fill="#FA482D" points="12.673 14.9768 13.825 14.9768 13.825 13.8258 12.673 13.8258"></polygon>
                <polygon id="Fill-283" fill="#FA482D" points="13.826 14.9768 14.977 14.9768 14.977 13.8258 13.826 13.8258"></polygon>
                <polygon id="Fill-284" fill="#FA482D" points="14.977 14.9768 16.129 14.9768 16.129 13.8258 14.977 13.8258"></polygon>
                <polygon id="Fill-285" fill="#FA482D" points="16.129 14.9768 17.281 14.9768 17.281 13.8258 16.129 13.8258"></polygon>
                <polygon id="Fill-286" fill="#FA3296" points="17.282 14.9768 18.434 14.9768 18.434 13.8258 17.282 13.8258"></polygon>
                <polygon id="Fill-287" fill="#FFFFFF" points="18.434 14.9768 19.585 14.9768 19.585 13.8258 18.434 13.8258"></polygon>
                <polygon id="Fill-288" fill="#FA3296" points="19.585 14.9768 20.737 14.9768 20.737 13.8258 19.585 13.8258"></polygon>
                <polygon id="Fill-289" fill="#FA3296" points="20.738 14.9768 21.89 14.9768 21.89 13.8258 20.738 13.8258"></polygon>
                <polygon id="Fill-290" fill="#FA34C5" points="21.89 14.9768 23.042 14.9768 23.042 13.8258 21.89 13.8258"></polygon>
                <polygon id="Fill-291" fill="#FFFFFF" points="23.042 14.9768 24.193 14.9768 24.193 13.8258 23.042 13.8258"></polygon>
                <polygon id="Fill-292" fill="#FA37ED" points="24.194 14.9768 25.346 14.9768 25.346 13.8258 24.194 13.8258"></polygon>
                <polygon id="Fill-293" fill="#FA37ED" points="25.346 14.9768 26.498 14.9768 26.498 13.8248 25.346 13.8248"></polygon>
                <polygon id="Fill-294" fill="#FA482D" points="1.153 16.1288 2.304 16.1288 2.304 14.9768 1.153 14.9768"></polygon>
                <polygon id="Fill-295" fill="#FA482D" points="0 16.1288 1.152 16.1288 1.152 14.9768 0 14.9768"></polygon>
                <polygon id="Fill-296" fill="#FFFFFF" points="2.304 16.1288 3.456 16.1288 3.456 14.9768 2.304 14.9768"></polygon>
                <polygon id="Fill-297" fill="#FA482D" points="3.456 16.1288 4.608 16.1288 4.608 14.9768 3.456 14.9768"></polygon>
                <polygon id="Fill-298" fill="#FA482D" points="4.609 16.1288 5.761 16.1288 5.761 14.9768 4.609 14.9768"></polygon>
                <polygon id="Fill-299" fill="#FA482D" points="5.761 16.1288 6.912 16.1288 6.912 14.9768 5.761 14.9768"></polygon>
                <polygon id="Fill-300" fill="#FFFFFF" points="6.912 16.1288 8.064 16.1288 8.064 14.9768 6.912 14.9768"></polygon>
                <polygon id="Fill-301" fill="#FA482D" points="8.065 16.1288 9.217 16.1288 9.217 14.9768 8.065 14.9768"></polygon>
                <polygon id="Fill-302" fill="#FA482D" points="9.217 16.1288 10.369 16.1288 10.369 14.9768 9.217 14.9768"></polygon>
                <polygon id="Fill-303" fill="#FA482D" points="10.37 16.1288 11.521 16.1288 11.521 14.9768 10.37 14.9768"></polygon>
                <polygon id="Fill-304" fill="#FA482D" points="11.521 16.1288 12.673 16.1288 12.673 14.9768 11.521 14.9768"></polygon>
                <polygon id="Fill-305" fill="#FA482D" points="12.673 16.1288 13.825 16.1288 13.825 14.9768 12.673 14.9768"></polygon>
                <polygon id="Fill-306" fill="#FA482D" points="13.826 16.1288 14.977 16.1288 14.977 14.9768 13.826 14.9768"></polygon>
                <polygon id="Fill-307" fill="#FA482D" points="14.977 16.1288 16.129 16.1288 16.129 14.9768 14.977 14.9768"></polygon>
                <polygon id="Fill-308" fill="#FA482D" points="16.129 16.1288 17.281 16.1288 17.281 14.9768 16.129 14.9768"></polygon>
                <polygon id="Fill-309" fill="#FA482D" points="17.282 16.1288 18.434 16.1288 18.434 14.9768 17.282 14.9768"></polygon>
                <polygon id="Fill-310" fill="#FFFFFF" points="18.434 16.1288 19.585 16.1288 19.585 14.9768 18.434 14.9768"></polygon>
                <polygon id="Fill-311" fill="#FA3296" points="19.585 16.1288 20.737 16.1288 20.737 14.9768 19.585 14.9768"></polygon>
                <polygon id="Fill-312" fill="#FA3296" points="20.738 16.1288 21.89 16.1288 21.89 14.9768 20.738 14.9768"></polygon>
                <polygon id="Fill-313" fill="#FA3296" points="21.89 16.1288 23.042 16.1288 23.042 14.9768 21.89 14.9768"></polygon>
                <polygon id="Fill-314" fill="#FFFFFF" points="23.042 16.1288 24.193 16.1288 24.193 14.9768 23.042 14.9768"></polygon>
                <polygon id="Fill-315" fill="#FA37ED" points="24.194 16.1288 25.346 16.1288 25.346 14.9768 24.194 14.9768"></polygon>
                <polygon id="Fill-316" fill="#FA37ED" points="25.346 16.1288 26.498 16.1288 26.498 14.9768 25.346 14.9768"></polygon>
                <polygon id="Fill-317" fill="#FA482D" points="1.153 17.2808 2.304 17.2808 2.304 16.1288 1.153 16.1288"></polygon>
                <polygon id="Fill-318" fill="#FA482D" points="0 17.2808 1.152 17.2808 1.152 16.1288 0 16.1288"></polygon>
                <polygon id="Fill-319" fill="#FFFFFF" points="2.304 17.2808 3.456 17.2808 3.456 16.1288 2.304 16.1288"></polygon>
                <polygon id="Fill-320" fill="#FA482D" points="3.456 17.2808 4.608 17.2808 4.608 16.1288 3.456 16.1288"></polygon>
                <polygon id="Fill-321" fill="#FA482D" points="4.609 17.2808 5.761 17.2808 5.761 16.1288 4.609 16.1288"></polygon>
                <polygon id="Fill-322" fill="#FA482D" points="5.761 17.2808 6.912 17.2808 6.912 16.1288 5.761 16.1288"></polygon>
                <polygon id="Fill-323" fill="#FA482D" points="6.912 17.2808 8.064 17.2808 8.064 16.1288 6.912 16.1288"></polygon>
                <polygon id="Fill-324" fill="#FFFFFF" points="8.065 17.2808 9.217 17.2808 9.217 16.1288 8.065 16.1288"></polygon>
                <polygon id="Fill-325" fill="#FA652F" points="9.217 17.2808 10.369 17.2808 10.369 16.1288 9.217 16.1288"></polygon>
                <polygon id="Fill-326" fill="#FA652F" points="10.37 17.2808 11.521 17.2808 11.521 16.1288 10.37 16.1288"></polygon>
                <polygon id="Fill-327" fill="#FA652F" points="11.521 17.2808 12.673 17.2808 12.673 16.1288 11.521 16.1288"></polygon>
                <polygon id="Fill-328" fill="#FA652F" points="12.673 17.2808 13.825 17.2808 13.825 16.1288 12.673 16.1288"></polygon>
                <polygon id="Fill-329" fill="#FA652F" points="13.826 17.2808 14.977 17.2808 14.977 16.1288 13.826 16.1288"></polygon>
                <polygon id="Fill-330" fill="#FA652F" points="14.977 17.2808 16.129 17.2808 16.129 16.1288 14.977 16.1288"></polygon>
                <polygon id="Fill-331" fill="#FA652F" points="16.129 17.2808 17.281 17.2808 17.281 16.1288 16.129 16.1288"></polygon>
                <polygon id="Fill-332" fill="#FFFFFF" points="17.282 17.2808 18.434 17.2808 18.434 16.1288 17.282 16.1288"></polygon>
                <polygon id="Fill-333" fill="#FA482D" points="18.434 17.2808 19.585 17.2808 19.585 16.1288 18.434 16.1288"></polygon>
                <polygon id="Fill-334" fill="#FA482D" points="19.585 17.2808 20.737 17.2808 20.737 16.1288 19.585 16.1288"></polygon>
                <polygon id="Fill-335" fill="#FA3296" points="20.738 17.2808 21.89 17.2808 21.89 16.1288 20.738 16.1288"></polygon>
                <polygon id="Fill-336" fill="#FA3296" points="21.89 17.2808 23.042 17.2808 23.042 16.1288 21.89 16.1288"></polygon>
                <polygon id="Fill-337" fill="#FFFFFF" points="23.042 17.2808 24.193 17.2808 24.193 16.1288 23.042 16.1288"></polygon>
                <polygon id="Fill-338" fill="#FA34C5" points="24.194 17.2808 25.346 17.2808 25.346 16.1288 24.194 16.1288"></polygon>
                <polygon id="Fill-339" fill="#FA34C5" points="25.346 17.2808 26.498 17.2808 26.498 16.1288 25.346 16.1288"></polygon>
                <polygon id="Fill-340" fill="#FA482D" points="1.153 18.4338 2.304 18.4338 2.304 17.2818 1.153 17.2818"></polygon>
                <polygon id="Fill-341" fill="#FA482D" points="0 18.4338 1.152 18.4338 1.152 17.2808 0 17.2808"></polygon>
                <polygon id="Fill-342" fill="#FFFFFF" points="2.304 18.4338 3.456 18.4338 3.456 17.2818 2.304 17.2818"></polygon>
                <polygon id="Fill-343" fill="#FA482D" points="3.456 18.4338 4.608 18.4338 4.608 17.2818 3.456 17.2818"></polygon>
                <polygon id="Fill-344" fill="#FA652F" points="4.609 18.4338 5.761 18.4338 5.761 17.2818 4.609 17.2818"></polygon>
                <polygon id="Fill-345" fill="#FA652F" points="5.761 18.4338 6.912 18.4338 6.912 17.2818 5.761 17.2818"></polygon>
                <polygon id="Fill-346" fill="#FA652F" points="6.912 18.4338 8.064 18.4338 8.064 17.2818 6.912 17.2818"></polygon>
                <polygon id="Fill-347" fill="#FA652F" points="8.065 18.4338 9.217 18.4338 9.217 17.2818 8.065 17.2818"></polygon>
                <polygon id="Fill-348" fill="#FFFFFF" points="9.217 18.4338 10.369 18.4338 10.369 17.2818 9.217 17.2818"></polygon>
                <polygon id="Fill-349" fill="#FA7837" points="10.37 18.4338 11.521 18.4338 11.521 17.2818 10.37 17.2818"></polygon>
                <polygon id="Fill-350" fill="#FA7837" points="11.521 18.4338 12.673 18.4338 12.673 17.2818 11.521 17.2818"></polygon>
                <polygon id="Fill-351" fill="#FA7837" points="12.673 18.4338 13.825 18.4338 13.825 17.2818 12.673 17.2818"></polygon>
                <polygon id="Fill-352" fill="#FA7837" points="13.826 18.4338 14.977 18.4338 14.977 17.2818 13.826 17.2818"></polygon>
                <polygon id="Fill-353" fill="#FA652F" points="14.977 18.4338 16.129 18.4338 16.129 17.2818 14.977 17.2818"></polygon>
                <polygon id="Fill-354" fill="#FFFFFF" points="16.129 18.4338 17.281 18.4338 17.281 17.2818 16.129 17.2818"></polygon>
                <polygon id="Fill-355" fill="#FA652F" points="17.282 18.4338 18.434 18.4338 18.434 17.2818 17.282 17.2818"></polygon>
                <polygon id="Fill-356" fill="#FA652F" points="18.434 18.4338 19.585 18.4338 19.585 17.2818 18.434 17.2818"></polygon>
                <polygon id="Fill-357" fill="#FA482D" points="19.585 18.4338 20.737 18.4338 20.737 17.2818 19.585 17.2818"></polygon>
                <polygon id="Fill-358" fill="#FA482D" points="20.738 18.4338 21.89 18.4338 21.89 17.2818 20.738 17.2818"></polygon>
                <polygon id="Fill-359" fill="#FA482D" points="21.89 18.4338 23.042 18.4338 23.042 17.2818 21.89 17.2818"></polygon>
                <polygon id="Fill-360" fill="#FFFFFF" points="23.042 18.4338 24.193 18.4338 24.193 17.2818 23.042 17.2818"></polygon>
                <polygon id="Fill-361" fill="#FA3296" points="24.194 18.4338 25.346 18.4338 25.346 17.2818 24.194 17.2818"></polygon>
                <polygon id="Fill-362" fill="#FA34C5" points="25.346 18.4338 26.498 18.4338 26.498 17.2808 25.346 17.2808"></polygon>
                <polygon id="Fill-363" fill="#FA652F" points="1.153 19.5848 2.304 19.5848 2.304 18.4338 1.153 18.4338"></polygon>
                <polygon id="Fill-364" fill="#FA482D" points="0 19.5848 1.152 19.5848 1.152 18.4338 0 18.4338"></polygon>
                <polygon id="Fill-365" fill="#FFFFFF" points="2.304 19.5848 3.456 19.5848 3.456 18.4338 2.304 18.4338"></polygon>
                <polygon id="Fill-366" fill="#FA652F" points="3.456 19.5848 4.608 19.5848 4.608 18.4338 3.456 18.4338"></polygon>
                <polygon id="Fill-367" fill="#FA652F" points="4.609 19.5848 5.761 19.5848 5.761 18.4338 4.609 18.4338"></polygon>
                <polygon id="Fill-368" fill="#FA7837" points="5.761 19.5848 6.912 19.5848 6.912 18.4338 5.761 18.4338"></polygon>
                <polygon id="Fill-369" fill="#FA7837" points="6.912 19.5848 8.064 19.5848 8.064 18.4338 6.912 18.4338"></polygon>
                <polygon id="Fill-370" fill="#FA7837" points="8.065 19.5848 9.217 19.5848 9.217 18.4338 8.065 18.4338"></polygon>
                <polygon id="Fill-371" fill="#FA7837" points="9.217 19.5848 10.369 19.5848 10.369 18.4338 9.217 18.4338"></polygon>
                <polygon id="Fill-372" fill="#FFFFFF" points="10.37 19.5848 11.521 19.5848 11.521 18.4338 10.37 18.4338"></polygon>
                <polygon id="Fill-373" fill="#FFFFFF" points="11.521 19.5848 12.673 19.5848 12.673 18.4338 11.521 18.4338"></polygon>
                <polygon id="Fill-374" fill="#FFFFFF" points="12.673 19.5848 13.825 19.5848 13.825 18.4338 12.673 18.4338"></polygon>
                <polygon id="Fill-375" fill="#FFFFFF" points="13.826 19.5848 14.977 19.5848 14.977 18.4338 13.826 18.4338"></polygon>
                <polygon id="Fill-376" fill="#FFFFFF" points="14.977 19.5848 16.129 19.5848 16.129 18.4338 14.977 18.4338"></polygon>
                <polygon id="Fill-377" fill="#FA7837" points="16.129 19.5848 17.281 19.5848 17.281 18.4338 16.129 18.4338"></polygon>
                <polygon id="Fill-378" fill="#FA652F" points="17.282 19.5848 18.434 19.5848 18.434 18.4338 17.282 18.4338"></polygon>
                <polygon id="Fill-379" fill="#FA652F" points="18.434 19.5848 19.585 19.5848 19.585 18.4338 18.434 18.4338"></polygon>
                <polygon id="Fill-380" fill="#FA482D" points="19.585 19.5848 20.737 19.5848 20.737 18.4338 19.585 18.4338"></polygon>
                <polygon id="Fill-381" fill="#FA482D" points="20.738 19.5848 21.89 19.5848 21.89 18.4338 20.738 18.4338"></polygon>
                <polygon id="Fill-382" fill="#FA482D" points="21.89 19.5848 23.042 19.5848 23.042 18.4338 21.89 18.4338"></polygon>
                <polygon id="Fill-383" fill="#FFFFFF" points="23.042 19.5848 24.193 19.5848 24.193 18.4338 23.042 18.4338"></polygon>
                <polygon id="Fill-384" fill="#FA3296" points="24.194 19.5848 25.346 19.5848 25.346 18.4338 24.194 18.4338"></polygon>
                <polygon id="Fill-385" fill="#FA3296" points="25.346 19.5848 26.498 19.5848 26.498 18.4338 25.346 18.4338"></polygon>
                <polygon id="Fill-386" fill="#FA652F" points="1.153 20.7368 2.304 20.7368 2.304 19.5848 1.153 19.5848"></polygon>
                <polygon id="Fill-387" fill="#FA652F" points="0 20.7368 1.152 20.7368 1.152 19.5848 0 19.5848"></polygon>
                <polygon id="Fill-388" fill="#FFFFFF" points="2.304 20.7368 3.456 20.7368 3.456 19.5848 2.304 19.5848"></polygon>
                <polygon id="Fill-389" fill="#FA7837" points="3.456 20.7368 4.608 20.7368 4.608 19.5848 3.456 19.5848"></polygon>
                <polygon id="Fill-390" fill="#FA652F" points="4.609 20.7368 5.761 20.7368 5.761 19.5848 4.609 19.5848"></polygon>
                <polygon id="Fill-391" fill="#FA7837" points="5.761 20.7368 6.912 20.7368 6.912 19.5848 5.761 19.5848"></polygon>
                <polygon id="Fill-392" fill="#FA9F37" points="6.912 20.7368 8.064 20.7368 8.064 19.5848 6.912 19.5848"></polygon>
                <polygon id="Fill-393" fill="#FA9F37" points="8.065 20.7368 9.217 20.7368 9.217 19.5848 8.065 19.5848"></polygon>
                <polygon id="Fill-394" fill="#FA9F37" points="9.217 20.7368 10.369 20.7368 10.369 19.5848 9.217 19.5848"></polygon>
                <polygon id="Fill-395" fill="#FA9F37" points="10.37 20.7368 11.521 20.7368 11.521 19.5848 10.37 19.5848"></polygon>
                <polygon id="Fill-396" fill="#FA7837" points="11.521 20.7368 12.673 20.7368 12.673 19.5848 11.521 19.5848"></polygon>
                <polygon id="Fill-397" fill="#FA7837" points="12.673 20.7368 13.825 20.7368 13.825 19.5848 12.673 19.5848"></polygon>
                <polygon id="Fill-398" fill="#FA7837" points="13.826 20.7368 14.977 20.7368 14.977 19.5848 13.826 19.5848"></polygon>
                <polygon id="Fill-399" fill="#FA7837" points="14.977 20.7368 16.129 20.7368 16.129 19.5848 14.977 19.5848"></polygon>
                <polygon id="Fill-400" fill="#FA7837" points="16.129 20.7368 17.281 20.7368 17.281 19.5848 16.129 19.5848"></polygon>
                <polygon id="Fill-401" fill="#FA7837" points="17.282 20.7368 18.434 20.7368 18.434 19.5848 17.282 19.5848"></polygon>
                <polygon id="Fill-402" fill="#FA7837" points="18.434 20.7368 19.585 20.7368 19.585 19.5848 18.434 19.5848"></polygon>
                <polygon id="Fill-403" fill="#FA652F" points="19.585 20.7368 20.737 20.7368 20.737 19.5848 19.585 19.5848"></polygon>
                <polygon id="Fill-404" fill="#FA482D" points="20.738 20.7368 21.89 20.7368 21.89 19.5848 20.738 19.5848"></polygon>
                <polygon id="Fill-405" fill="#FA482D" points="21.89 20.7368 23.042 20.7368 23.042 19.5848 21.89 19.5848"></polygon>
                <polygon id="Fill-406" fill="#FFFFFF" points="23.042 20.7368 24.193 20.7368 24.193 19.5848 23.042 19.5848"></polygon>
                <polygon id="Fill-407" fill="#FA3296" points="24.194 20.7368 25.346 20.7368 25.346 19.5848 24.194 19.5848"></polygon>
                <polygon id="Fill-408" fill="#FA3296" points="25.346 20.7368 26.498 20.7368 26.498 19.5848 25.346 19.5848"></polygon>
                <polygon id="Fill-409" fill="#FA7837" points="1.153 21.8898 2.304 21.8898 2.304 20.7378 1.153 20.7378"></polygon>
                <polygon id="Fill-410" fill="#FA7837" points="0 21.8898 1.152 21.8898 1.152 20.7368 0 20.7368"></polygon>
                <polygon id="Fill-411" fill="#FFFFFF" points="2.304 21.8898 3.456 21.8898 3.456 20.7378 2.304 20.7378"></polygon>
                <polygon id="Fill-412" fill="#FA9F37" points="3.456 21.8898 4.608 21.8898 4.608 20.7378 3.456 20.7378"></polygon>
                <polygon id="Fill-413" fill="#FA9F37" points="4.609 21.8898 5.761 21.8898 5.761 20.7378 4.609 20.7378"></polygon>
                <polygon id="Fill-414" fill="#FA9F37" points="5.761 21.8898 6.912 21.8898 6.912 20.7378 5.761 20.7378"></polygon>
                <polygon id="Fill-415" fill="#FA9F37" points="6.912 21.8898 8.064 21.8898 8.064 20.7378 6.912 20.7378"></polygon>
                <polygon id="Fill-416" fill="#FA9F37" points="8.065 21.8898 9.217 21.8898 9.217 20.7378 8.065 20.7378"></polygon>
                <polygon id="Fill-417" fill="#FA9F37" points="9.217 21.8898 10.369 21.8898 10.369 20.7378 9.217 20.7378"></polygon>
                <polygon id="Fill-418" fill="#FA9F37" points="10.37 21.8898 11.521 21.8898 11.521 20.7378 10.37 20.7378"></polygon>
                <polygon id="Fill-419" fill="#FA9F37" points="11.521 21.8898 12.673 21.8898 12.673 20.7378 11.521 20.7378"></polygon>
                <polygon id="Fill-420" fill="#FA9F37" points="12.673 21.8898 13.825 21.8898 13.825 20.7378 12.673 20.7378"></polygon>
                <polygon id="Fill-421" fill="#FA9F37" points="13.826 21.8898 14.977 21.8898 14.977 20.7378 13.826 20.7378"></polygon>
                <polygon id="Fill-422" fill="#FA9F37" points="14.977 21.8898 16.129 21.8898 16.129 20.7378 14.977 20.7378"></polygon>
                <polygon id="Fill-423" fill="#FA9F37" points="16.129 21.8898 17.281 21.8898 17.281 20.7378 16.129 20.7378"></polygon>
                <polygon id="Fill-424" fill="#FA7837" points="17.282 21.8898 18.434 21.8898 18.434 20.7378 17.282 20.7378"></polygon>
                <polygon id="Fill-425" fill="#FA7837" points="18.434 21.8898 19.585 21.8898 19.585 20.7378 18.434 20.7378"></polygon>
                <polygon id="Fill-426" fill="#FA7837" points="19.585 21.8898 20.737 21.8898 20.737 20.7378 19.585 20.7378"></polygon>
                <polygon id="Fill-427" fill="#FA482D" points="20.738 21.8898 21.89 21.8898 21.89 20.7378 20.738 20.7378"></polygon>
                <polygon id="Fill-428" fill="#FA482D" points="21.89 21.8898 23.042 21.8898 23.042 20.7378 21.89 20.7378"></polygon>
                <polygon id="Fill-429" fill="#FFFFFF" points="23.042 21.8898 24.193 21.8898 24.193 20.7378 23.042 20.7378"></polygon>
                <polygon id="Fill-430" fill="#FA482D" points="24.194 21.8898 25.346 21.8898 25.346 20.7378 24.194 20.7378"></polygon>
                <polygon id="Fill-431" fill="#FA3296" points="25.346 21.8898 26.498 21.8898 26.498 20.7368 25.346 20.7368"></polygon>
                <polygon id="Fill-432" fill="#FA9F37" points="1.153 23.0418 2.304 23.0418 2.304 21.8898 1.153 21.8898"></polygon>
                <polygon id="Fill-433" fill="#FA7837" points="0 23.0418 1.152 23.0418 1.152 21.8898 0 21.8898"></polygon>
                <polygon id="Fill-434" fill="#FA9F37" points="2.304 23.0418 3.456 23.0418 3.456 21.8898 2.304 21.8898"></polygon>
                <polygon id="Fill-435" fill="#FFFFFF" points="3.456 23.0418 4.608 23.0418 4.608 21.8898 3.456 21.8898"></polygon>
                <polygon id="Fill-436" fill="#FA9F37" points="4.609 23.0418 5.761 23.0418 5.761 21.8898 4.609 21.8898"></polygon>
                <polygon id="Fill-437" fill="#FA9F37" points="5.761 23.0418 6.912 23.0418 6.912 21.8898 5.761 21.8898"></polygon>
                <polygon id="Fill-438" fill="#FA9F37" points="6.912 23.0418 8.064 23.0418 8.064 21.8898 6.912 21.8898"></polygon>
                <polygon id="Fill-439" fill="#FA9F37" points="8.065 23.0418 9.217 23.0418 9.217 21.8898 8.065 21.8898"></polygon>
                <polygon id="Fill-440" fill="#FA9F37" points="9.217 23.0418 10.369 23.0418 10.369 21.8898 9.217 21.8898"></polygon>
                <polygon id="Fill-441" fill="#FA9F37" points="10.37 23.0418 11.521 23.0418 11.521 21.8898 10.37 21.8898"></polygon>
                <polygon id="Fill-442" fill="#FA9F37" points="11.521 23.0418 12.673 23.0418 12.673 21.8898 11.521 21.8898"></polygon>
                <polygon id="Fill-443" fill="#FA9F37" points="12.673 23.0418 13.825 23.0418 13.825 21.8898 12.673 21.8898"></polygon>
                <polygon id="Fill-444" fill="#FA9F37" points="13.826 23.0418 14.977 23.0418 14.977 21.8898 13.826 21.8898"></polygon>
                <polygon id="Fill-445" fill="#FA9F37" points="14.977 23.0418 16.129 23.0418 16.129 21.8898 14.977 21.8898"></polygon>
                <polygon id="Fill-446" fill="#FA9F37" points="16.129 23.0418 17.281 23.0418 17.281 21.8898 16.129 21.8898"></polygon>
                <polygon id="Fill-447" fill="#FA9F37" points="17.282 23.0418 18.434 23.0418 18.434 21.8898 17.282 21.8898"></polygon>
                <polygon id="Fill-448" fill="#FA7837" points="18.434 23.0418 19.585 23.0418 19.585 21.8898 18.434 21.8898"></polygon>
                <polygon id="Fill-449" fill="#FA7837" points="19.585 23.0418 20.737 23.0418 20.737 21.8898 19.585 21.8898"></polygon>
                <polygon id="Fill-450" fill="#FA652F" points="20.738 23.0418 21.89 23.0418 21.89 21.8898 20.738 21.8898"></polygon>
                <polygon id="Fill-451" fill="#FFFFFF" points="21.89 23.0418 23.042 23.0418 23.042 21.8898 21.89 21.8898"></polygon>
                <polygon id="Fill-452" fill="#FA482D" points="23.042 23.0418 24.193 23.0418 24.193 21.8898 23.042 21.8898"></polygon>
                <polygon id="Fill-453" fill="#FA482D" points="24.194 23.0418 25.346 23.0418 25.346 21.8898 24.194 21.8898"></polygon>
                <polygon id="Fill-454" fill="#FA3296" points="25.346 23.0418 26.498 23.0418 26.498 21.8898 25.346 21.8898"></polygon>
                <polygon id="Fill-455" fill="#FA9F37" points="1.153 24.1938 2.304 24.1938 2.304 23.0428 1.153 23.0428"></polygon>
                <polygon id="Fill-456" fill="#FA9F37" points="0 24.1928 1.152 24.1928 1.152 23.0418 0 23.0418"></polygon>
                <polygon id="Fill-457" fill="#FA9F37" points="2.304 24.1938 3.456 24.1938 3.456 23.0428 2.304 23.0428"></polygon>
                <polygon id="Fill-458" fill="#FAF339" points="3.456 24.1938 4.608 24.1938 4.608 23.0428 3.456 23.0428"></polygon>
                <polygon id="Fill-459" fill="#FFFFFF" points="4.609 24.1938 5.761 24.1938 5.761 23.0428 4.609 23.0428"></polygon>
                <polygon id="Fill-460" fill="#FFFFFF" points="5.761 24.1938 6.912 24.1938 6.912 23.0428 5.761 23.0428"></polygon>
                <polygon id="Fill-461" fill="#FFFFFF" points="6.912 24.1938 8.064 24.1938 8.064 23.0428 6.912 23.0428"></polygon>
                <polygon id="Fill-462" fill="#FFFFFF" points="8.065 24.1938 9.217 24.1938 9.217 23.0428 8.065 23.0428"></polygon>
                <polygon id="Fill-463" fill="#FFFFFF" points="9.217 24.1938 10.369 24.1938 10.369 23.0428 9.217 23.0428"></polygon>
                <polygon id="Fill-464" fill="#FFFFFF" points="10.37 24.1938 11.521 24.1938 11.521 23.0428 10.37 23.0428"></polygon>
                <polygon id="Fill-465" fill="#FFFFFF" points="11.521 24.1938 12.673 24.1938 12.673 23.0428 11.521 23.0428"></polygon>
                <polygon id="Fill-466" fill="#FFFFFF" points="12.673 24.1938 13.825 24.1938 13.825 23.0428 12.673 23.0428"></polygon>
                <polygon id="Fill-467" fill="#FFFFFF" points="13.826 24.1938 14.977 24.1938 14.977 23.0428 13.826 23.0428"></polygon>
                <polygon id="Fill-468" fill="#FFFFFF" points="14.977 24.1938 16.129 24.1938 16.129 23.0428 14.977 23.0428"></polygon>
                <polygon id="Fill-469" fill="#FFFFFF" points="16.129 24.1938 17.281 24.1938 17.281 23.0428 16.129 23.0428"></polygon>
                <polygon id="Fill-470" fill="#FFFFFF" points="17.282 24.1938 18.434 24.1938 18.434 23.0428 17.282 23.0428"></polygon>
                <polygon id="Fill-471" fill="#FFFFFF" points="18.434 24.1938 19.585 24.1938 19.585 23.0428 18.434 23.0428"></polygon>
                <polygon id="Fill-472" fill="#FFFFFF" points="19.585 24.1938 20.737 24.1938 20.737 23.0428 19.585 23.0428"></polygon>
                <polygon id="Fill-473" fill="#FFFFFF" points="20.738 24.1938 21.89 24.1938 21.89 23.0428 20.738 23.0428"></polygon>
                <polygon id="Fill-474" fill="#FA482D" points="21.89 24.1938 23.042 24.1938 23.042 23.0428 21.89 23.0428"></polygon>
                <polygon id="Fill-475" fill="#FA482D" points="23.042 24.1938 24.193 24.1938 24.193 23.0428 23.042 23.0428"></polygon>
                <polygon id="Fill-476" fill="#FA482D" points="24.194 24.1938 25.346 24.1938 25.346 23.0428 24.194 23.0428"></polygon>
                <polygon id="Fill-477" fill="#FA9F37" points="1.153 25.3458 2.304 25.3458 2.304 24.1938 1.153 24.1938"></polygon>
                <polygon id="Fill-478" fill="#FAF339" points="2.304 25.3458 3.456 25.3458 3.456 24.1938 2.304 24.1938"></polygon>
                <polygon id="Fill-479" fill="#FAF339" points="3.456 25.3458 4.608 25.3458 4.608 24.1938 3.456 24.1938"></polygon>
                <polygon id="Fill-480" fill="#FAFA5D" points="4.609 25.3458 5.761 25.3458 5.761 24.1938 4.609 24.1938"></polygon>
                <polygon id="Fill-481" fill="#FAFA5D" points="5.761 25.3458 6.912 25.3458 6.912 24.1938 5.761 24.1938"></polygon>
                <polygon id="Fill-482" fill="#FAFA5D" points="6.912 25.3458 8.064 25.3458 8.064 24.1938 6.912 24.1938"></polygon>
                <polygon id="Fill-483" fill="#FAFA5D" points="8.065 25.3458 9.217 25.3458 9.217 24.1938 8.065 24.1938"></polygon>
                <polygon id="Fill-484" fill="#FAFA5D" points="9.217 25.3458 10.369 25.3458 10.369 24.1938 9.217 24.1938"></polygon>
                <polygon id="Fill-485" fill="#FAFA5D" points="10.37 25.3458 11.521 25.3458 11.521 24.1938 10.37 24.1938"></polygon>
                <polygon id="Fill-486" fill="#FAFA5D" points="11.521 25.3458 12.673 25.3458 12.673 24.1938 11.521 24.1938"></polygon>
                <polygon id="Fill-487" fill="#FAF339" points="12.673 25.3458 13.825 25.3458 13.825 24.1938 12.673 24.1938"></polygon>
                <polygon id="Fill-488" fill="#FAF339" points="13.826 25.3458 14.977 25.3458 14.977 24.1938 13.826 24.1938"></polygon>
                <polygon id="Fill-489" fill="#FAF339" points="14.977 25.3458 16.129 25.3458 16.129 24.1938 14.977 24.1938"></polygon>
                <polygon id="Fill-490" fill="#FA9F37" points="16.129 25.3458 17.281 25.3458 17.281 24.1938 16.129 24.1938"></polygon>
                <polygon id="Fill-491" fill="#FA9F37" points="17.282 25.3458 18.434 25.3458 18.434 24.1938 17.282 24.1938"></polygon>
                <polygon id="Fill-492" fill="#FA9F37" points="18.434 25.3458 19.585 25.3458 19.585 24.1938 18.434 24.1938"></polygon>
                <polygon id="Fill-493" fill="#FA7837" points="19.585 25.3458 20.737 25.3458 20.737 24.1938 19.585 24.1938"></polygon>
                <polygon id="Fill-494" fill="#FA7837" points="20.738 25.3458 21.89 25.3458 21.89 24.1938 20.738 24.1938"></polygon>
                <polygon id="Fill-495" fill="#FA652F" points="21.89 25.3458 23.042 25.3458 23.042 24.1938 21.89 24.1938"></polygon>
                <polygon id="Fill-496" fill="#FA482D" points="23.042 25.3458 24.193 25.3458 24.193 24.1938 23.042 24.1938"></polygon>
                <polygon id="Fill-497" fill="#FAF339" points="2.304 26.4978 3.456 26.4978 3.456 25.3458 2.304 25.3458"></polygon>
                <polygon id="Fill-498" fill="#FAFA5D" points="3.456 26.4978 4.608 26.4978 4.608 25.3458 3.456 25.3458"></polygon>
                <polygon id="Fill-499" fill="#FAFA5D" points="4.608 26.4978 5.761 26.4978 5.761 25.3458 4.608 25.3458"></polygon>
                <polygon id="Fill-500" fill="#FAFA5D" points="5.761 26.4978 6.912 26.4978 6.912 25.3458 5.761 25.3458"></polygon>
                <polygon id="Fill-501" fill="#FAFA5D" points="6.912 26.4978 8.064 26.4978 8.064 25.3458 6.912 25.3458"></polygon>
                <polygon id="Fill-502" fill="#FAFA5D" points="8.064 26.4978 9.217 26.4978 9.217 25.3458 8.064 25.3458"></polygon>
                <polygon id="Fill-503" fill="#FAFA5D" points="9.217 26.4978 10.369 26.4978 10.369 25.3458 9.217 25.3458"></polygon>
                <polygon id="Fill-504" fill="#FAFA5D" points="10.369 26.4978 11.521 26.4978 11.521 25.3458 10.369 25.3458"></polygon>
                <polygon id="Fill-505" fill="#FAFA5D" points="11.521 26.4978 12.673 26.4978 12.673 25.3458 11.521 25.3458"></polygon>
                <polygon id="Fill-506" fill="#FAFA5D" points="12.673 26.4978 13.825 26.4978 13.825 25.3458 12.673 25.3458"></polygon>
                <polygon id="Fill-507" fill="#FAF339" points="13.825 26.4978 14.977 26.4978 14.977 25.3458 13.825 25.3458"></polygon>
                <polygon id="Fill-508" fill="#FAF339" points="14.977 26.4978 16.129 26.4978 16.129 25.3458 14.977 25.3458"></polygon>
                <polygon id="Fill-509" fill="#FA9F37" points="16.129 26.4978 17.281 26.4978 17.281 25.3458 16.129 25.3458"></polygon>
                <polygon id="Fill-510" fill="#FA9F37" points="17.281 26.4978 18.434 26.4978 18.434 25.3458 17.281 25.3458"></polygon>
                <polygon id="Fill-511" fill="#FA9F37" points="18.434 26.4978 19.585 26.4978 19.585 25.3458 18.434 25.3458"></polygon>
                <polygon id="Fill-512" fill="#FA7837" points="19.585 26.4978 20.737 26.4978 20.737 25.3458 19.585 25.3458"></polygon>
                <polygon id="Fill-513" fill="#FA7837" points="20.737 26.4978 21.89 26.4978 21.89 25.3458 20.737 25.3458"></polygon>
                <polygon id="Fill-514" fill="#FA7837" points="21.89 26.4978 23.042 26.4978 23.042 25.3458 21.89 25.3458"></polygon>
                <polygon id="Fill-515" fill="#FA482D" points="23.042 26.4978 24.194 26.4978 24.194 25.3458 23.042 25.3458"></polygon>
                <polygon id="Fill-516" fill="#FA482D" points="24.194 25.3458 25.346 25.3458 25.346 24.1938 24.194 24.1938"></polygon>
                <polygon id="Fill-517" fill="#FA3296" points="25.346 24.1928 26.498 24.1928 26.498 23.0418 25.346 23.0418"></polygon>
            </g>
        </g>
    </g>
</svg>