<?xml version="1.0" encoding="UTF-8" standalone="no"?>
<svg width="63" height="63" viewBox="0 0 63 63" fill="none" xmlns="http://www.w3.org/2000/svg">
<g clip-path="url(#clip0_33_10173)">
<path fill-rule="evenodd" clip-rule="evenodd" d="M57.274 5.72778V22.9093V28.637V34.363V40.0908V57.2723H63V5.72778H57.274Z" fill="#00FF00"/>
<path fill-rule="evenodd" clip-rule="evenodd" d="M0 5.72778V22.9093V28.637V34.363V40.0908V57.2723H5.72775V40.0908V34.363V28.637V22.9093V5.72778H0Z" fill="#00FF00"/>
<path fill-rule="evenodd" clip-rule="evenodd" d="M5.72772 0V5.72775H22.9075H28.637H34.363H40.0907H57.274V0H5.72772Z" fill="#00FF00"/>
<path fill-rule="evenodd" clip-rule="evenodd" d="M17.1815 45.8186H22.9093V40.0908H17.1815V45.8186Z" fill="#00FF00"/>
<path fill-rule="evenodd" clip-rule="evenodd" d="M22.9092 40.0908H28.637V34.363H22.9092V40.0908Z" fill="#00FF00"/>
<path fill-rule="evenodd" clip-rule="evenodd" d="M28.637 34.363H34.363V28.637H28.637V34.363Z" fill="#00FF00"/>
<path fill-rule="evenodd" clip-rule="evenodd" d="M34.363 40.0908H40.0907V34.363H34.363V40.0908Z" fill="#00FF00"/>
<path fill-rule="evenodd" clip-rule="evenodd" d="M40.0908 45.8186H45.8185V40.0908H40.0908V45.8186Z" fill="#00FF00"/>
<path fill-rule="evenodd" clip-rule="evenodd" d="M22.9092 28.6369H28.637V22.9092H22.9092V28.6369Z" fill="#00FF00"/>
<path fill-rule="evenodd" clip-rule="evenodd" d="M17.1815 22.9091H22.9093V17.1814H17.1815V22.9091Z" fill="#00FF00"/>
<path fill-rule="evenodd" clip-rule="evenodd" d="M34.363 28.6369H40.0907V22.9092H34.363V28.6369Z" fill="#00FF00"/>
<path fill-rule="evenodd" clip-rule="evenodd" d="M40.0908 22.9091H45.8185V17.1814H40.0908V22.9091Z" fill="#00FF00"/>
<path fill-rule="evenodd" clip-rule="evenodd" d="M40.0907 57.2722H34.363H28.637H22.9092H5.72772V63H22.9092H28.637H34.363H40.0907H57.274V57.2722H40.0907Z" fill="#00FF00"/>
</g>
<defs>
<clipPath id="clip0_33_10173">
<rect width="63" height="63" fill="white"/>
</clipPath>
</defs>
</svg>
