<?xml version="1.0" encoding="UTF-8" standalone="no"?>
<svg width="298px" height="81px" viewBox="0 0 298 81" version="1.1" xmlns="http://www.w3.org/2000/svg" xmlns:xlink="http://www.w3.org/1999/xlink">
    <!-- Generator: Sketch 46 (44423) - http://www.bohemiancoding.com/sketch -->
    <title>Group 2</title>
    <desc>Created with Sketch.</desc>
    <defs>
        <polygon id="path-1" points="0.0232299213 0.823138462 23.9828992 0.823138462 23.9828992 23.6050154 0.0232299213 23.6050154 0.0232299213 0.823138462"></polygon>
        <polygon id="path-3" points="0.0542031496 0.823138462 24.0126992 0.823138462 24.0126992 23.6050154 0.0542031496 23.6050154 0.0542031496 0.823138462"></polygon>
        <polygon id="path-5" points="0.177861417 0.823138462 24.1387039 0.823138462 24.1387039 23.6050154 0.177861417 23.6050154 0.177861417 0.823138462"></polygon>
    </defs>
    <g id="Page-1" stroke="none" stroke-width="1" fill="none" fill-rule="evenodd">
        <g id="HOME" transform="translate(-571.000000, -94.000000)">
            <g id="Group-2" transform="translate(571.000000, 93.000000)">
                <g id="Group-111" transform="translate(0.000000, 0.346326)">
                    <path d="M28.2128567,25.1782154 C28.2128567,26.5754462 29.3473685,27.7037538 30.7493764,27.7037538 L33.2847228,27.7037538 L33.2847228,22.6491692 L30.7493764,22.6491692 C29.3473685,22.6491692 28.2128567,23.7798154 28.2128567,25.1782154" id="Fill-12" fill="#4C16E0"></path>
                    <path d="M47.582622,5.28305231 C45.1012441,2.80896 41.6472598,1.35794462 38.3575276,1.35794462 L33.6094724,1.35794462 C33.8241732,1.62686769 34.0400472,1.89579077 34.2019528,2.21732923 L36.3606929,6.41136 L38.3023858,6.41136 C42.7817717,6.41136 46.395315,10.1762831 46.395315,14.5316677 C46.395315,16.8970215 45.3171181,19.1021908 43.5912992,20.6069908 L45.9647402,25.1786831 C46.5044252,24.7998523 47.0441102,24.31696 47.582622,23.7791138 C49.9572362,21.41376 51.4143858,18.0791138 51.4143858,14.5316677 C51.4143858,10.9818831 49.9572362,7.64840615 47.582622,5.28305231" id="Fill-14" fill="#FFF6CF"></path>
                    <path d="M40.5684764,28.8338154 L46.3419331,40.0712923 C46.9895551,41.3621231 48.5546417,41.8461846 49.7947441,41.2007692 C51.0360197,40.5553538 51.5217362,39.0493846 50.8741142,37.8135077 L45.4256417,27.1127077 C43.9145236,27.9732615 42.2954685,28.5648923 40.5684764,28.8338154" id="Fill-16" fill="#FFF6CF"></path>
                    <polygon id="Fill-18" fill="#FFF6CF" points="34.5797323 22.6496369 34.5797323 27.7042215 38.3575276 27.7042215 38.5722283 27.7042215 35.9829134 22.6496369"></polygon>
                    <path d="M34.8489882,6.41112615 L33.0152323,2.75611077 C32.582311,1.89555692 31.6660197,1.35771077 30.7497283,1.35771077 C29.3477205,1.35771077 28.2132087,2.48718769 28.2132087,3.88441846 C28.2132087,5.28281846 29.3477205,6.41112615 30.7497283,6.41112615 L34.8489882,6.41112615 Z" id="Fill-20" fill="#4C16E0"></path>
                    <path d="M38.3021512,21.3051385 C39.5973953,21.3051385 40.8386709,20.9298154 41.9180409,20.2832308 L35.5509307,7.75609231 L30.7500803,7.75609231 C30.3711276,7.75609231 30.0473165,7.70230769 29.7235055,7.64852308 L36.7382378,21.3051385 L38.3021512,21.3051385 Z" id="Fill-22" fill="#FFF6CF"></path>
                    <path d="M42.5115772,21.4678954 C41.2703016,22.22088 39.813152,22.6499877 38.3020339,22.6499877 L37.439711,22.6499877 L39.921089,27.5970031 C41.5952858,27.3818646 43.2671362,26.7902338 44.7782543,25.92968 L42.5115772,21.4678954 Z" id="Fill-24" fill="#FFF6CF"></path>
                    <path d="M96.4949811,18.8331508 C95.1093984,18.8331508 93.9220913,19.9205354 93.8411386,21.3306277 C93.7578394,22.7921662 94.8794457,24.0420738 96.3436346,24.12392 L96.4961543,24.1285969 C97.8946425,24.1285969 99.0655244,23.0400431 99.1453039,21.63112 C99.2274299,20.17192 98.1093433,18.9231815 96.6463276,18.8378277 L96.6428079,18.8366585 L96.4949811,18.8331508 Z" id="Fill-26" fill="#4C16E0"></path>
                    <g id="Group-30" transform="translate(84.472441, 0.000000)">
                        <mask id="mask-2" fill="white">
                            <use xlink:href="#path-1"></use>
                        </mask>
                        <g id="Clip-29"></g>
                        <path d="M8.0434189,21.2560308 C8.11146614,20.0599077 8.71567874,19.0263077 9.60733228,18.3446462 C6.29648189,17.1695692 5.33560787,14.2476615 5.33560787,12.5873538 C5.33560787,9.02003077 8.24990709,6.118 11.8306,6.118 L12.2001669,6.118 C15.6295134,6.118 18.4581669,8.77683077 18.6705213,12.1851385 L18.6705213,13.8325846 C18.6705213,15.2952923 19.8590016,16.4808923 21.325537,16.4808923 C22.7932457,16.4808923 23.9828992,15.2952923 23.9828992,13.8325846 L23.9828992,12.1103077 L23.9782063,11.9711692 C23.6520488,5.71929231 18.4781118,0.822553846 12.2001669,0.822553846 L11.8306,0.822553846 C5.31918268,0.822553846 0.0232299213,6.10163077 0.0232299213,12.5873538 C0.0232299213,16.3698154 2.39432441,21.8722154 8.66522992,23.6050154 C8.23230866,22.9256923 7.99414331,22.1177538 8.0434189,21.2560308" id="Fill-28" fill="#FFF6CF" mask="url(#mask-2)"></path>
                    </g>
                    <path d="M69.7547606,6.46537846 L78.2794378,6.46537846 C79.6814457,6.46537846 80.8147843,5.33707077 80.8147843,3.93867077 C80.8147843,2.54027077 79.6814457,1.41079385 78.2794378,1.41079385 L69.7547606,1.41079385 C63.3336819,1.41079385 58.1538787,6.46537846 58.1538787,12.5944862 L58.1538787,18.4008862 C58.8015008,17.8642092 59.6649969,17.4888862 60.6364299,17.4888862 L63.1717764,17.4888862 L63.1717764,12.5944862 C63.1717764,8.99325538 65.9229969,6.46537846 69.7547606,6.46537846" id="Fill-31" fill="#FFF6CF"></path>
                    <path d="M63.1714244,23.8868 L63.1714244,18.8333846 L60.6900465,18.8333846 C59.3408339,18.8333846 58.1547,19.9079077 58.1547,21.3589231 C58.1547,22.7584923 59.2868654,23.8868 60.6900465,23.8868 L63.1714244,23.8868 Z" id="Fill-33" fill="#4C16E0"></path>
                    <path d="M64.5199331,23.8868 L73.0457835,23.8868 C74.4477913,23.8868 75.5811299,22.7584923 75.5811299,21.3589231 C75.5811299,19.9616923 74.4477913,18.8333846 73.0457835,18.8333846 L64.5199331,18.8333846 L64.5199331,23.8868 Z" id="Fill-35" fill="#FFF6CF"></path>
                    <path d="M63.1714244,25.1782154 L60.636078,25.1782154 C59.6658181,25.1782154 58.8551173,24.8555077 58.1547,24.2627077 L58.1547,29.9627077 C58.1547,36.0918154 63.3345031,41.1475692 69.7544087,41.1475692 L78.2790858,41.1475692 C79.6810937,41.1475692 80.8144323,40.0180923 80.8144323,38.6196923 C80.8144323,37.2212923 79.6810937,36.0918154 78.2790858,36.0918154 L69.7544087,36.0918154 C65.9238181,36.0918154 63.1714244,33.5651077 63.1714244,29.9627077 L63.1714244,25.1782154 Z" id="Fill-37" fill="#FFF6CF"></path>
                    <path d="M99.848537,19.3583692 C100.281458,20.0365231 100.519624,20.8444615 100.472694,21.7061846 C100.404647,22.9023077 99.7980882,23.9370769 98.9076079,24.6187385 C102.218458,25.7926462 103.179332,28.7145538 103.179332,30.3736923 C103.179332,33.9421846 100.266206,36.8442154 96.6866866,36.8442154 L96.3147732,36.8442154 C92.8854268,36.8442154 90.0556,34.1842154 89.8467654,30.7770769 L89.8467654,29.1284615 C89.8467654,27.6657538 88.6571118,26.4813231 87.1894031,26.4813231 C85.7228677,26.4813231 84.5332142,27.6657538 84.5332142,29.1284615 L84.5332142,30.8519077 L84.5367339,30.9887077 C84.8628913,37.2417538 90.0368283,42.1384923 96.3147732,42.1384923 L96.6866866,42.1384923 C103.196931,42.1384923 108.492883,36.8605846 108.492883,30.3736923 C108.492883,26.5935692 106.120616,21.0911692 99.848537,19.3583692" id="Fill-39" fill="#FFF6CF"></path>
                    <path d="M10.1424417,1.35806154 L5.44952835,1.35806154 C6.04200866,2.05609231 6.36581969,2.91664615 6.36581969,3.88476923 L6.36581969,6.41147692 L10.0896465,6.41147692 C14.5666858,6.41147692 18.1825756,10.1764 18.1825756,14.5317846 C18.1825756,18.886 14.5666858,22.6497538 10.0896465,22.6497538 L6.36581969,22.6497538 L6.36581969,27.7043385 L10.1424417,27.7043385 C13.4345205,27.7043385 16.8873315,26.2533231 19.3687094,23.7792308 C21.7433236,21.4138769 23.1993,18.0792308 23.1993,14.5317846 C23.1993,10.9808308 21.7433236,7.64852308 19.3687094,5.28316923 C16.8873315,2.80907692 13.4345205,1.35806154 10.1424417,1.35806154" id="Fill-41" fill="#FFF6CF"></path>
                    <path d="M2.53593307,1.35806154 C1.13275197,1.35806154 0.000586614173,2.48636923 0.000586614173,3.88476923 C0.000586614173,5.28316923 1.13275197,6.41147692 2.53593307,6.41147692 L5.07127953,6.41147692 L5.07127953,3.88476923 C5.07127953,2.48636923 3.93794094,1.35806154 2.53593307,1.35806154" id="Fill-43" fill="#4C16E0"></path>
                    <path d="M28.2128567,28.0271631 L28.2128567,38.9431015 C28.2128567,40.3403323 29.3473685,41.4698092 30.7493764,41.4698092 L30.8033449,41.4698092 C32.1525575,41.4698092 33.2847228,40.3403323 33.2847228,38.9431015 L33.2847228,28.9941169 L30.7493764,28.9941169 C29.7791165,28.9941169 28.9156205,28.6187938 28.2128567,28.0271631" id="Fill-45" fill="#FFF6CF"></path>
                    <path d="M0.000351968504,28.0271631 L0.000351968504,38.9431015 C0.000351968504,40.3403323 1.13251732,41.4698092 2.53569843,41.4698092 L2.5884937,41.4698092 C3.9377063,41.4698092 5.07104488,40.3403323 5.07104488,38.9431015 L5.07104488,28.9941169 L2.53569843,28.9941169 C1.56426535,28.9941169 0.700769291,28.6187938 0.000351968504,28.0271631" id="Fill-47" fill="#FFF6CF"></path>
                    <path d="M0.000351968504,6.78738462 L0.000351968504,22.2750154 C0.700769291,21.6822154 1.56426535,21.3057231 2.53569843,21.3057231 L5.07104488,21.3057231 L5.07104488,7.75550769 L2.53569843,7.75550769 C1.56426535,7.75550769 0.700769291,7.37901538 0.000351968504,6.78738462" id="Fill-49" fill="#FFF6CF"></path>
                    <path d="M0.000351968504,25.1782154 C0.000351968504,26.5754462 1.13251732,27.7037538 2.53569843,27.7037538 L5.07104488,27.7037538 L5.07104488,22.6491692 L2.53569843,22.6491692 C1.13251732,22.6491692 0.000351968504,23.7798154 0.000351968504,25.1782154" id="Fill-51" fill="#4C16E0"></path>
                    <g id="Group-55" transform="translate(113.803150, 0.000000)">
                        <mask id="mask-4" fill="white">
                            <use xlink:href="#path-3"></use>
                        </mask>
                        <g id="Clip-54"></g>
                        <path d="M8.0732189,21.2560308 C8.14126614,20.0599077 8.74665197,19.0263077 9.63830551,18.3446462 C6.32745512,17.1695692 5.36775433,14.2476615 5.36775433,12.5873538 C5.36775433,9.02003077 8.27970709,6.118 11.8604,6.118 L12.2311402,6.118 C15.6593134,6.118 18.4891402,8.77683077 18.7003213,12.1851385 L18.7003213,13.8325846 C18.7003213,15.2952923 19.8888016,16.4808923 21.3565102,16.4808923 C22.8230457,16.4808923 24.0126992,15.2952923 24.0126992,13.8325846 L24.0126992,12.1103077 L24.0091795,11.9711692 C23.683022,5.71929231 18.5102583,0.822553846 12.2311402,0.822553846 L11.8604,0.822553846 C5.35132913,0.822553846 0.0542031496,6.10163077 0.0542031496,12.5873538 C0.0542031496,16.3698154 2.42647087,21.8722154 8.69737638,23.6050154 C8.26445512,22.9268615 8.02394331,22.1177538 8.0732189,21.2560308" id="Fill-53" fill="#FFF6CF" mask="url(#mask-4)"></path>
                    </g>
                    <path d="M129.210219,19.3583692 C129.64314,20.0353538 129.881306,20.8444615 129.833203,21.7061846 C129.765156,22.9011385 129.158597,23.9370769 128.270463,24.6187385 C131.581313,25.7926462 132.541014,28.7133846 132.541014,30.3736923 C132.541014,33.9421846 129.627888,36.8442154 126.048369,36.8442154 L125.675282,36.8442154 C122.247109,36.8442154 119.418455,34.1842154 119.20962,30.7770769 L119.20962,29.1284615 C119.20962,27.6657538 118.018794,26.4813231 116.552258,26.4813231 C115.08455,26.4813231 113.894896,27.6657538 113.894896,29.1284615 L113.894896,30.8519077 L113.899589,30.9887077 C114.225746,37.2417538 119.39851,42.1384923 125.675282,42.1384923 L126.048369,42.1384923 C132.558613,42.1384923 137.853392,36.8605846 137.853392,30.3736923 C137.853392,26.5935692 135.483471,21.09 129.210219,19.3583692" id="Fill-56" fill="#FFF6CF"></path>
                    <path d="M123.204228,21.3308615 C123.120929,22.7924 124.240189,24.0411385 125.706724,24.1241538 L125.858071,24.1288308 C127.255386,24.1288308 128.427441,23.0391077 128.508394,21.6301846 C128.59052,20.1698154 127.470087,18.9199077 126.005898,18.8368923 L125.856898,18.8333846 C124.472488,18.8333846 123.282835,19.9207692 123.204228,21.3308615" id="Fill-58" fill="#4C16E0"></path>
                    <path d="M273.314454,3.93855385 C273.314454,5.33695385 274.44662,6.46526154 275.848628,6.46526154 L281.514147,6.46526154 L281.514147,3.93855385 C281.514147,2.97043077 281.837958,2.11104615 282.484407,1.41067692 L275.848628,1.41067692 C274.44662,1.41067692 273.314454,2.54015385 273.314454,3.93855385" id="Fill-60" fill="#FFF6CF"></path>
                    <path d="M285.399645,1.41114462 C283.996464,1.41114462 282.864298,2.53945231 282.864298,3.93902154 L282.864298,6.46572923 L287.933818,6.46572923 L287.933818,3.93902154 C287.933818,2.64819077 286.856794,1.41114462 285.399645,1.41114462" id="Fill-62" fill="#4C16E0"></path>
                    <path d="M282.864181,38.9960677 C282.864181,40.3406831 283.996346,41.5239446 285.399528,41.5239446 C286.74874,41.5239446 287.933701,40.3406831 287.933701,38.9960677 L287.933701,7.80917538 L282.864181,7.80917538 L282.864181,38.9960677 Z" id="Fill-64" fill="#FFF6CF"></path>
                    <path d="M294.89552,1.41114462 L288.258568,1.41114462 C288.853394,2.11034462 289.230001,2.96972923 289.230001,3.93902154 L289.230001,6.46572923 L294.89552,6.46572923 C296.297528,6.46572923 297.430867,5.33742154 297.430867,3.93902154 C297.430867,2.53945231 296.297528,1.41114462 294.89552,1.41114462" id="Fill-66" fill="#FFF6CF"></path>
                    <path d="M218.444324,34.8009846 L224.972167,14.1009231 L222.330057,5.82043077 L213.101443,35.1786462 C213.587159,34.9646769 214.126844,34.8009846 214.666529,34.8009846 L218.444324,34.8009846 Z" id="Fill-68" fill="#FFF6CF"></path>
                    <path d="M214.611857,36.0924 C213.264991,36.0924 212.18562,37.2207077 212.18562,38.6202769 C212.18562,39.9648923 213.316613,41.0932 214.666998,41.0932 C215.746369,41.0394154 216.717802,40.3402154 217.040439,39.3183077 L218.065841,36.0924 L214.611857,36.0924 Z" id="Fill-70" fill="#4C16E0"></path>
                    <path d="M208.393981,6.46537846 C209.794816,6.46537846 210.929328,5.33707077 210.929328,3.93867077 C210.929328,2.54027077 209.794816,1.41079385 208.393981,1.41079385 L201.757028,1.41079385 C202.350682,2.10999385 202.727288,2.97054769 202.727288,3.93867077 L202.727288,6.46537846 L208.393981,6.46537846 Z" id="Fill-72" fill="#FFF6CF"></path>
                    <path d="M236.680869,36.0924 L233.280853,36.0924 L234.306254,39.3183077 C234.630065,40.394 235.709435,41.0932 236.733664,41.0932 C238.082876,41.0932 239.215042,39.9648923 239.215042,38.6202769 C239.215042,37.2207077 238.082876,36.0924 236.680869,36.0924" id="Fill-74" fill="#4C16E0"></path>
                    <path d="M232.848401,34.8009846 L236.681338,34.8009846 C237.21985,34.8009846 237.705566,34.9097231 238.245251,35.1236923 L228.965015,5.82043077 L226.374527,14.1009231 L232.848401,34.8009846 Z" id="Fill-76" fill="#FFF6CF"></path>
                    <path d="M225.672702,11.8965723 L227.939379,4.63681846 C228.155253,3.99257231 228.155253,3.72364923 228.155253,3.45472615 C228.155253,2.16506462 227.075883,0.980633846 225.672702,0.980633846 C224.377457,0.980633846 223.191324,2.05632615 223.191324,3.45472615 C223.191324,3.72364923 223.191324,3.99257231 223.406024,4.63681846 L225.672702,11.8965723 Z" id="Fill-78" fill="#4C16E0"></path>
                    <path d="M231.824172,36.0924 L219.468905,36.0924 L218.336739,39.7497538 C218.173661,40.2864308 217.904991,40.7167077 217.580007,41.0932 L233.765865,41.0932 C233.443228,40.7167077 233.172212,40.2864308 233.01148,39.7497538 L231.824172,36.0924 Z" id="Fill-80" fill="#FFF6CF"></path>
                    <path d="M264.061554,5.28305231 C261.58135,2.80896 258.127365,1.35794462 254.83646,1.35794462 L250.088405,1.35794462 C250.304279,1.62686769 250.520153,1.89579077 250.682058,2.21732923 L252.840798,6.41136 L254.782491,6.41136 C259.259531,6.41136 262.87542,10.1762831 262.87542,14.5316677 C262.87542,16.8970215 261.79605,19.1021908 260.070231,20.6069908 L262.442499,25.1786831 C262.982184,24.7998523 263.521869,24.31696 264.061554,23.7791138 C266.434995,21.41376 267.893318,18.0791138 267.893318,14.5316677 C267.893318,10.9818831 266.434995,7.64840615 264.061554,5.28305231" id="Fill-82" fill="#FFF6CF"></path>
                    <polygon id="Fill-84" fill="#FFF6CF" points="251.059838 22.6496369 251.059838 27.7042215 254.83646 27.7042215 255.051161 27.7042215 252.463019 22.6496369"></polygon>
                    <path d="M257.048582,28.8338154 L262.822039,40.0712923 C263.469661,41.3621231 265.033574,41.8461846 266.27485,41.2007692 C267.514952,40.5553538 268.001842,39.0493846 267.353046,37.8135077 L261.904574,27.1127077 C260.394629,27.9732615 258.775574,28.5648923 257.048582,28.8338154" id="Fill-86" fill="#FFF6CF"></path>
                    <path d="M244.692962,28.0271631 L244.692962,38.9431015 C244.692962,40.3403323 245.825128,41.4698092 247.228309,41.4698092 L247.28345,41.4698092 C248.630317,41.4698092 249.764828,40.3403323 249.764828,38.9431015 L249.764828,28.9941169 L247.228309,28.9941169 C246.256876,28.9941169 245.394553,28.6187938 244.692962,28.0271631" id="Fill-88" fill="#FFF6CF"></path>
                    <path d="M258.990509,21.4678954 C257.749234,22.22088 256.293257,22.6499877 254.782139,22.6499877 L253.919817,22.6499877 L256.401194,27.5970031 C258.073045,27.3818646 259.747242,26.7902338 261.257187,25.92968 L258.990509,21.4678954 Z" id="Fill-90" fill="#FFF6CF"></path>
                    <path d="M244.692962,25.1782154 C244.692962,26.5754462 245.825128,27.7037538 247.228309,27.7037538 L249.764828,27.7037538 L249.764828,22.6491692 L247.228309,22.6491692 C245.825128,22.6491692 244.692962,23.7798154 244.692962,25.1782154" id="Fill-92" fill="#4C16E0"></path>
                    <path d="M251.329094,6.41112615 L249.495338,2.75611077 C249.062417,1.89555692 248.146125,1.35771077 247.228661,1.35771077 C245.82548,1.35771077 244.693314,2.48718769 244.693314,3.88441846 C244.693314,5.28281846 245.82548,6.41112615 247.228661,6.41112615 L251.329094,6.41112615 Z" id="Fill-94" fill="#4C16E0"></path>
                    <path d="M254.782257,21.3051385 C256.077501,21.3051385 257.317603,20.9298154 258.396973,20.2832308 L252.031036,7.75609231 L247.229013,7.75609231 C246.851233,7.75609231 246.527422,7.70230769 246.203611,7.64852308 L253.218343,21.3051385 L254.782257,21.3051385 Z" id="Fill-96" fill="#FFF6CF"></path>
                    <path d="M173.917728,19.3583692 C174.349476,20.0353538 174.588814,20.8444615 174.540712,21.7061846 C174.472665,22.9023077 173.866106,23.9370769 172.976798,24.6187385 C176.287649,25.7926462 177.248523,28.7145538 177.248523,30.3736923 C177.248523,33.9421846 174.334224,36.8442154 170.754704,36.8442154 L170.383964,36.8442154 C166.953444,36.8442154 164.124791,34.1842154 163.914783,30.7770769 L163.914783,29.1284615 C163.914783,27.6657538 162.725129,26.4813231 161.258594,26.4813231 C159.790885,26.4813231 158.601231,27.6657538 158.601231,29.1284615 L158.601231,30.8519077 L158.605924,30.9887077 C158.932082,37.2417538 164.106019,42.1384923 170.383964,42.1384923 L170.754704,42.1384923 C177.266121,42.1384923 182.560901,36.8605846 182.560901,30.3736923 C182.560901,26.5935692 180.189806,21.09 173.917728,19.3583692" id="Fill-98" fill="#FFF6CF"></path>
                    <path d="M170.562998,18.8331508 C169.178589,18.8331508 167.991282,19.9205354 167.910329,21.3306277 C167.82703,22.7921662 168.947463,24.0420738 170.411652,24.12392 L170.565345,24.1285969 C171.963833,24.1285969 173.134715,23.0400431 173.214494,21.63112 C173.295447,20.17192 172.177361,18.9231815 170.714345,18.8378277 L170.711998,18.8366585 L170.562998,18.8331508 Z" id="Fill-100" fill="#4C16E0"></path>
                    <g id="Group-104" transform="translate(158.385827, 0.000000)">
                        <mask id="mask-6" fill="white">
                            <use xlink:href="#path-5"></use>
                        </mask>
                        <g id="Clip-103"></g>
                        <path d="M8.19805039,21.2560308 C8.26609764,20.0599077 8.87148346,19.0263077 9.76196378,18.3446462 C6.45111339,17.1695692 5.4914126,14.2476615 5.4914126,12.5873538 C5.4914126,9.02003077 8.40453858,6.118 11.9852315,6.118 L12.3559717,6.118 C15.7841449,6.118 18.6139717,8.77683077 18.8251528,12.1851385 L18.8251528,13.8325846 C18.8251528,15.2952923 20.0136331,16.4808923 21.4813417,16.4808923 C22.9478772,16.4808923 24.1387039,15.2952923 24.1387039,13.8325846 L24.1387039,12.1103077 L24.134011,11.9711692 C23.8078535,5.71929231 18.6339165,0.822553846 12.3559717,0.822553846 L11.9852315,0.822553846 C5.4749874,0.822553846 0.177861417,6.10163077 0.177861417,12.5873538 C0.177861417,16.3698154 2.55012913,21.8722154 8.82103465,23.6050154 C8.38811339,22.9256923 8.1487748,22.1177538 8.19805039,21.2560308" id="Fill-102" fill="#FFF6CF" mask="url(#mask-6)"></path>
                    </g>
                    <path d="M198.896932,1.41114462 C197.494924,1.41114462 196.361586,2.53945231 196.361586,3.93902154 L196.361586,6.46572923 L201.432279,6.46572923 L201.432279,3.93902154 C201.432279,2.64819077 200.352909,1.41114462 198.896932,1.41114462" id="Fill-105" fill="#4C16E0"></path>
                    <path d="M196.361469,38.9960677 C196.361469,40.3406831 197.494807,41.5239446 198.896815,41.5239446 C200.247201,41.5239446 201.432161,40.3406831 201.432161,38.9960677 L201.432161,7.80917538 L196.361469,7.80917538 L196.361469,38.9960677 Z" id="Fill-107" fill="#FFF6CF"></path>
                    <path d="M186.811859,3.93855385 C186.811859,5.33695385 187.945198,6.46526154 189.347206,6.46526154 L195.012725,6.46526154 L195.012725,3.93855385 C195.012725,2.97043077 195.336536,2.11104615 195.982985,1.41067692 L189.347206,1.41067692 C187.945198,1.41067692 186.811859,2.54015385 186.811859,3.93855385" id="Fill-109" fill="#FFF6CF"></path>
                </g>
                <g id="Group" transform="translate(81.000000, 60.000000)" fill="#FFF6CF">
                    <path d="M5.30021339,0.301415385 L0.0945992126,20.6249846 L2.12780394,21.1768615 L3.72926063,14.4537846 L9.3361189,14.4537846 L10.9375756,21.1768615 L12.9707803,20.6249846 L7.76516614,0.301415385 L5.30021339,0.301415385 Z M6.50159921,3.03273846 L6.56378031,3.03273846 L8.84336299,12.6122462 L4.22201654,12.6122462 L6.50159921,3.03273846 Z" id="Fill-1"></path>
                    <path d="M28.984878,9.81743385 L32.0035945,9.81743385 C33.7904213,9.81743385 34.9002953,8.49854154 34.9002953,5.73564923 C34.9002953,3.06395692 33.6062244,2.14260308 31.5108386,2.14260308 L28.984878,2.14260308 L28.984878,9.81743385 Z M26.9211693,0.301064615 L32.4670197,0.301064615 C34.4990512,0.301064615 37.056689,2.05023385 37.056689,5.73564923 C37.056689,8.25300308 36.0406732,10.6475877 33.5135394,11.5069723 L37.7641457,20.2867262 L35.916311,21.1765108 L31.2949646,11.6613108 L28.984878,11.6613108 L28.984878,20.7789723 L26.9211693,20.7789723 L26.9211693,0.301064615 Z" id="Fill-2"></path>
                    <path d="M61.5716472,17.7081046 C60.3702614,19.6420123 58.5834346,21.0544431 56.2416709,21.0544431 C50.8811906,21.0544431 50.0810488,14.6084738 50.0810488,10.5547508 C50.0810488,6.47179692 50.8811906,0.0234892308 56.2416709,0.0234892308 C58.5834346,0.0234892308 60.1837181,1.37628923 61.2630882,3.34059692 L59.5079386,4.38355077 C58.8603165,3.09388923 57.8126236,1.95856615 56.2416709,1.95856615 C52.4838205,1.95856615 52.2362693,7.85265846 52.2362693,10.5547508 C52.2362693,13.2252738 52.4838205,19.1205354 56.2416709,19.1205354 C57.8431276,19.1205354 59.1066945,17.8004738 59.8775055,16.5423815 L61.5716472,17.7081046 Z" id="Fill-4"></path>
                    <path d="M80.4819764,3.03273846 L80.4197953,3.03273846 L78.1402126,12.6122462 L82.7615591,12.6122462 L80.4819764,3.03273846 Z M77.6474567,14.4537846 L76.046,21.1768615 L74.011622,20.6238154 L79.2195827,0.301415385 L81.6833622,0.301415385 L86.8889764,20.6238154 L84.8557717,21.1768615 L83.254315,14.4537846 L77.6474567,14.4537846 Z" id="Fill-6"></path>
                    <path d="M103.241902,18.9366154 L104.936044,18.9366154 C107.431501,18.9366154 109.341517,18.2912 109.341517,10.5555692 C109.341517,2.75796923 107.246131,2.14295385 105.4288,2.14295385 L103.241902,2.14295385 L103.241902,18.9366154 Z M99.5145559,2.14295385 L99.5145559,0.301415385 L104.936044,0.301415385 C109.063461,0.301415385 111.496737,2.11138462 111.496737,10.5555692 C111.496737,15.0688 111.251532,20.7781538 104.997052,20.7781538 L99.5145559,20.7781538 L99.5145559,18.9366154 L101.17702,18.9366154 L101.17702,2.14295385 L99.5145559,2.14295385 Z" id="Fill-8"></path>
                    <polygon id="Fill-10" points="125.324758 0.301415385 135.337089 0.301415385 135.337089 2.14295385 127.388467 2.14295385 127.388467 8.89643077 133.951506 8.89643077 133.951506 10.7379692 127.388467 10.7379692 127.388467 18.9366154 135.337089 18.9366154 135.337089 20.7781538 125.324758 20.7781538"></polygon>
                </g>
            </g>
        </g>
    </g>
</svg>